  0
SECTION
  2
HEADER
  9
$ACADVER
  1
AC1014
  9
$HANDSEED
  5
FFFF
  9
$MEASUREMENT
 70
     1
  0
ENDSEC
  0
SECTION
  2
TABLES
  0
TABLE
  2
VPORT
  5
8
330
0
100
AcDbSymbolTable
 70
     4
  0
VPORT
  5
2E
330
8
100
AcDbSymbolTableRecord
100
AcDbViewportTableRecord
  2
*ACTIVE
 70
     0
 10
0.0
 20
0.0
 11
1.0
 21
1.0
 12
210.0
 22
148.5
 13
0.0
 23
0.0
 14
10.0
 24
10.0
 15
10.0
 25
10.0
 16
0.0
 26
0.0
 36
1.0
 17
0.0
 27
0.0
 37
0.0
 40
341.0
 41
1.24
 42
50.0
 43
0.0
 44
0.0
 50
0.0
 51
0.0
 71
     0
 72
   100
 73
     1
 74
     3
 75
     0
 76
     0
 77
     0
 78
     0
  0
ENDTAB
  0
TABLE
  2
LTYPE
  5
5
330
0
100
AcDbSymbolTable
 70
     1
  0
LTYPE
  5
14
330
5
100
AcDbSymbolTableRecord
100
AcDbLinetypeTableRecord
  2
BYBLOCK
 70
     0
  3

 72
    65
 73
     0
 40
0.0
  0
LTYPE
  5
15
330
5
100
AcDbSymbolTableRecord
100
AcDbLinetypeTableRecord
  2
BYLAYER
 70
     0
  3

 72
    65
 73
     0
 40
0.0
  0
LTYPE
  5
16
330
5
100
AcDbSymbolTableRecord
100
AcDbLinetypeTableRecord
  2
CONTINUOUS
 70
     0
  3
Solid line
 72
    65
 73
     0
 40
0.0
  0
ENDTAB
  0
TABLE
  2
LAYER
  5
2
100
AcDbSymbolTable
 70
5
  0
LAYER
  5
50
100
AcDbSymbolTableRecord
100
AcDbLayerTableRecord
  2
0
 70
0
  6
CONTINUOUS
  0
LAYER
  5
51
100
AcDbSymbolTableRecord
100
AcDbLayerTableRecord
  2
mfos_vco_VI_panel_2
 70
0
  6
CONTINUOUS
  0
LAYER
  5
52
100
AcDbSymbolTableRecord
100
AcDbLayerTableRecord
  2
holes
 70
0
  6
CONTINUOUS
  0
LAYER
  5
53
100
AcDbSymbolTableRecord
100
AcDbLayerTableRecord
  2
text
 70
0
  6
CONTINUOUS
  0
LAYER
  5
54
100
AcDbSymbolTableRecord
100
AcDbLayerTableRecord
  2
overlay#1
 70
0
  6
CONTINUOUS
  0
ENDTAB
  0
TABLE
  2
STYLE
  5
3
330
0
100
AcDbSymbolTable
 70
     1
  0
STYLE
  5
11
330
3
100
AcDbSymbolTableRecord
100
AcDbTextStyleTableRecord
  2
STANDARD
 70
     0
 40
0.0
 41
1.0
 50
0.0
 71
     0
 42
2.5
  3
txt
  4

  0
ENDTAB
  0
TABLE
  2
VIEW
  5
6
330
0
100
AcDbSymbolTable
 70
     0
  0
ENDTAB
  0
TABLE
  2
UCS
  5
7
330
0
100
AcDbSymbolTable
 70
     0
  0
ENDTAB
  0
TABLE
  2
APPID
  5
9
330
0
100
AcDbSymbolTable
 70
     2
  0
APPID
  5
12
330
9
100
AcDbSymbolTableRecord
100
AcDbRegAppTableRecord
  2
ACAD
 70
     0
  0
ENDTAB
  0
TABLE
  2
DIMSTYLE
  5
A
330
0
100
AcDbSymbolTable
 70
     1
  0
DIMSTYLE
105
27
330
A
100
AcDbSymbolTableRecord
100
AcDbDimStyleTableRecord
  2
ISO-25
 70
     0
  3

  4

  5

  6

  7

 40
1.0
 41
2.5
 42
0.625
 43
3.75
 44
1.25
 45
0.0
 46
0.0
 47
0.0
 48
0.0
140
2.5
141
2.5
142
0.0
143
0.03937007874016
144
1.0
145
0.0
146
1.0
147
0.625
 71
     0
 72
     0
 73
     0
 74
     0
 75
     0
 76
     0
 77
     1
 78
     8
170
     0
171
     3
172
     1
173
     0
174
     0
175
     0
176
     0
177
     0
178
     0
270
     2
271
     2
272
     2
273
     2
274
     3
340
11
275
     0
280
     0
281
     0
282
     0
283
     0
284
     8
285
     0
286
     0
287
     3
288
     0
  0
ENDTAB
  0
TABLE
  2
BLOCK_RECORD
  5
1
330
0
100
AcDbSymbolTable
 70
     1
  0
BLOCK_RECORD
  5
1F
330
1
100
AcDbSymbolTableRecord
100
AcDbBlockTableRecord
  2
*MODEL_SPACE
  0
BLOCK_RECORD
  5
1B
330
1
100
AcDbSymbolTableRecord
100
AcDbBlockTableRecord
  2
*PAPER_SPACE
  0
ENDTAB
  0
ENDSEC
  0
SECTION
  2
BLOCKS
  0
BLOCK
  5
20
330
1F
100
AcDbEntity
  8
0
100
AcDbBlockBegin
  2
*MODEL_SPACE
 70
     0
 10
0.0
 20
0.0
 30
0.0
  3
*MODEL_SPACE
  1

  0
ENDBLK
  5
21
330
1F
100
AcDbEntity
  8
0
100
AcDbBlockEnd
  0
BLOCK
  5
1C
330
1B
100
AcDbEntity
 67
     1
  8
0
100
AcDbBlockBegin
  2
*PAPER_SPACE
  1

  0
ENDBLK
  5
1D
330
1B
100
AcDbEntity
 67
     1
  8
0
100
AcDbBlockEnd
  0
ENDSEC
  0
SECTION
  2
ENTITIES
  0
LWPOLYLINE
  5
100
100
AcDbEntity
  8
text
 62
1
100
AcDbPolyline
 90
5
 70
1
 10
4.399403
 20
275.325640
 30
0.0
 10
207.608361
 20
275.325640
 30
0.0
 10
207.608361
 20
8.132922
 30
0.0
 10
4.399403
 20
8.132922
 30
0.0
 10
4.399403
 20
275.325640
 30
0.0
  0
SPLINE
  5
101
100
AcDbEntity
  8
text
 62
1
100
AcDbSpline
 70
8
 71
3
 72
8
 73
4
 74
0
 40
0
 40
0
 40
0
 40
0
 40
1
 40
1
 40
1
 40
1
 10
42.840173
 20
271.561229
 30
0.0
 10
42.840173
 20
271.428686
 30
0.0
 10
42.721982
 20
271.321238
 30
0.0
 10
42.576184
 20
271.321238
 30
0.0
  0
SPLINE
  5
102
100
AcDbEntity
  8
text
 62
1
100
AcDbSpline
 70
8
 71
3
 72
8
 73
4
 74
0
 40
0
 40
0
 40
0
 40
0
 40
1
 40
1
 40
1
 40
1
 10
42.576184
 20
271.321238
 30
0.0
 10
42.430387
 20
271.321238
 30
0.0
 10
42.312195
 20
271.428686
 30
0.0
 10
42.312195
 20
271.561229
 30
0.0
  0
SPLINE
  5
103
100
AcDbEntity
  8
text
 62
1
100
AcDbSpline
 70
8
 71
3
 72
8
 73
4
 74
0
 40
0
 40
0
 40
0
 40
0
 40
1
 40
1
 40
1
 40
1
 10
42.312195
 20
271.561229
 30
0.0
 10
42.312195
 20
271.693772
 30
0.0
 10
42.430387
 20
271.801219
 30
0.0
 10
42.576184
 20
271.801219
 30
0.0
  0
SPLINE
  5
104
100
AcDbEntity
  8
text
 62
1
100
AcDbSpline
 70
8
 71
3
 72
8
 73
4
 74
0
 40
0
 40
0
 40
0
 40
0
 40
1
 40
1
 40
1
 40
1
 10
42.576184
 20
271.801219
 30
0.0
 10
42.721982
 20
271.801219
 30
0.0
 10
42.840174
 20
271.693772
 30
0.0
 10
42.840173
 20
271.561229
 30
0.0
  0
LWPOLYLINE
  5
105
100
AcDbEntity
  8
text
 62
7
100
AcDbPolyline
 90
6
 70
0
 10
23.963275
 20
146.622033
 30
0.0
 10
8.486966
 20
146.622033
 30
0.0
 10
8.486966
 20
274.778799
 30
0.0
 10
51.339693
 20
274.778799
 30
0.0
 10
51.339693
 20
146.622033
 30
0.0
 10
8.486966
 20
146.622033
 30
0.0
  0
SPLINE
  5
106
100
AcDbEntity
  8
text
 62
1
100
AcDbSpline
 70
8
 71
3
 72
8
 73
4
 74
0
 40
0
 40
0
 40
0
 40
0
 40
1
 40
1
 40
1
 40
1
 10
17.392178
 20
150.245896
 30
0.0
 10
17.392178
 20
150.201341
 30
0.0
 10
17.369422
 20
150.158610
 30
0.0
 10
17.328915
 20
150.127105
 30
0.0
  0
SPLINE
  5
107
100
AcDbEntity
  8
text
 62
1
100
AcDbSpline
 70
8
 71
3
 72
8
 73
4
 74
0
 40
0
 40
0
 40
0
 40
0
 40
1
 40
1
 40
1
 40
1
 10
17.328915
 20
150.127105
 30
0.0
 10
17.288408
 20
150.095600
 30
0.0
 10
17.233469
 20
150.077901
 30
0.0
 10
17.176184
 20
150.077901
 30
0.0
  0
SPLINE
  5
108
100
AcDbEntity
  8
text
 62
1
100
AcDbSpline
 70
8
 71
3
 72
8
 73
4
 74
0
 40
0
 40
0
 40
0
 40
0
 40
1
 40
1
 40
1
 40
1
 10
17.176184
 20
150.077901
 30
0.0
 10
17.118900
 20
150.077901
 30
0.0
 10
17.063961
 20
150.095601
 30
0.0
 10
17.023455
 20
150.127106
 30
0.0
  0
SPLINE
  5
109
100
AcDbEntity
  8
text
 62
1
100
AcDbSpline
 70
8
 71
3
 72
8
 73
4
 74
0
 40
0
 40
0
 40
0
 40
0
 40
1
 40
1
 40
1
 40
1
 10
17.023455
 20
150.127106
 30
0.0
 10
16.982949
 20
150.158611
 30
0.0
 10
16.960194
 20
150.201341
 30
0.0
 10
16.960194
 20
150.245896
 30
0.0
  0
SPLINE
  5
10a
100
AcDbEntity
  8
text
 62
1
100
AcDbSpline
 70
8
 71
3
 72
8
 73
4
 74
0
 40
0
 40
0
 40
0
 40
0
 40
1
 40
1
 40
1
 40
1
 10
16.960194
 20
150.245896
 30
0.0
 10
16.960194
 20
150.290450
 30
0.0
 10
16.982949
 20
150.333180
 30
0.0
 10
17.023455
 20
150.364686
 30
0.0
  0
SPLINE
  5
10b
100
AcDbEntity
  8
text
 62
1
100
AcDbSpline
 70
8
 71
3
 72
8
 73
4
 74
0
 40
0
 40
0
 40
0
 40
0
 40
1
 40
1
 40
1
 40
1
 10
17.023455
 20
150.364686
 30
0.0
 10
17.063961
 20
150.396191
 30
0.0
 10
17.118900
 20
150.413890
 30
0.0
 10
17.176184
 20
150.413891
 30
0.0
  0
SPLINE
  5
10c
100
AcDbEntity
  8
text
 62
1
100
AcDbSpline
 70
8
 71
3
 72
8
 73
4
 74
0
 40
0
 40
0
 40
0
 40
0
 40
1
 40
1
 40
1
 40
1
 10
17.176184
 20
150.413891
 30
0.0
 10
17.233469
 20
150.413891
 30
0.0
 10
17.288408
 20
150.396192
 30
0.0
 10
17.328915
 20
150.364687
 30
0.0
  0
SPLINE
  5
10d
100
AcDbEntity
  8
text
 62
1
100
AcDbSpline
 70
8
 71
3
 72
8
 73
4
 74
0
 40
0
 40
0
 40
0
 40
0
 40
1
 40
1
 40
1
 40
1
 10
17.328915
 20
150.364687
 30
0.0
 10
17.369422
 20
150.333181
 30
0.0
 10
17.392178
 20
150.290451
 30
0.0
 10
17.392178
 20
150.245896
 30
0.0
  0
LWPOLYLINE
  5
10e
100
AcDbEntity
  8
text
 62
1
100
AcDbPolyline
 90
2
 70
1
 10
42.840173
 20
271.561229
 30
0.0
 10
42.840173
 20
271.561229
 30
0.0
  0
SPLINE
  5
10f
100
AcDbEntity
  8
text
 62
7
100
AcDbSpline
 70
8
 71
3
 72
8
 73
4
 74
0
 40
0
 40
0
 40
0
 40
0
 40
1
 40
1
 40
1
 40
1
 10
35.613340
 20
232.352848
 30
0.0
 10
35.613340
 20
232.295563
 30
0.0
 10
35.588055
 20
232.240625
 30
0.0
 10
35.543048
 20
232.200118
 30
0.0
  0
SPLINE
  5
110
100
AcDbEntity
  8
text
 62
7
100
AcDbSpline
 70
8
 71
3
 72
8
 73
4
 74
0
 40
0
 40
0
 40
0
 40
0
 40
1
 40
1
 40
1
 40
1
 10
35.543048
 20
232.200118
 30
0.0
 10
35.498041
 20
232.159612
 30
0.0
 10
35.436998
 20
232.136856
 30
0.0
 10
35.373348
 20
232.136856
 30
0.0
  0
SPLINE
  5
111
100
AcDbEntity
  8
text
 62
7
100
AcDbSpline
 70
8
 71
3
 72
8
 73
4
 74
0
 40
0
 40
0
 40
0
 40
0
 40
1
 40
1
 40
1
 40
1
 10
35.373348
 20
232.136856
 30
0.0
 10
35.309699
 20
232.136856
 30
0.0
 10
35.248656
 20
232.159612
 30
0.0
 10
35.203649
 20
232.200118
 30
0.0
  0
SPLINE
  5
112
100
AcDbEntity
  8
text
 62
7
100
AcDbSpline
 70
8
 71
3
 72
8
 73
4
 74
0
 40
0
 40
0
 40
0
 40
0
 40
1
 40
1
 40
1
 40
1
 10
35.203649
 20
232.200118
 30
0.0
 10
35.158642
 20
232.240625
 30
0.0
 10
35.133357
 20
232.295563
 30
0.0
 10
35.133357
 20
232.352848
 30
0.0
  0
SPLINE
  5
113
100
AcDbEntity
  8
text
 62
7
100
AcDbSpline
 70
8
 71
3
 72
8
 73
4
 74
0
 40
0
 40
0
 40
0
 40
0
 40
1
 40
1
 40
1
 40
1
 10
35.133357
 20
232.352848
 30
0.0
 10
35.133357
 20
232.410132
 30
0.0
 10
35.158642
 20
232.465071
 30
0.0
 10
35.203649
 20
232.505577
 30
0.0
  0
SPLINE
  5
114
100
AcDbEntity
  8
text
 62
7
100
AcDbSpline
 70
8
 71
3
 72
8
 73
4
 74
0
 40
0
 40
0
 40
0
 40
0
 40
1
 40
1
 40
1
 40
1
 10
35.203649
 20
232.505577
 30
0.0
 10
35.248656
 20
232.546083
 30
0.0
 10
35.309699
 20
232.568840
 30
0.0
 10
35.373348
 20
232.568839
 30
0.0
  0
SPLINE
  5
115
100
AcDbEntity
  8
text
 62
7
100
AcDbSpline
 70
8
 71
3
 72
8
 73
4
 74
0
 40
0
 40
0
 40
0
 40
0
 40
1
 40
1
 40
1
 40
1
 10
35.373348
 20
232.568839
 30
0.0
 10
35.436998
 20
232.568840
 30
0.0
 10
35.498041
 20
232.546083
 30
0.0
 10
35.543048
 20
232.505577
 30
0.0
  0
SPLINE
  5
116
100
AcDbEntity
  8
text
 62
7
100
AcDbSpline
 70
8
 71
3
 72
8
 73
4
 74
0
 40
0
 40
0
 40
0
 40
0
 40
1
 40
1
 40
1
 40
1
 10
35.543048
 20
232.505577
 30
0.0
 10
35.588055
 20
232.465071
 30
0.0
 10
35.613340
 20
232.410132
 30
0.0
 10
35.613340
 20
232.352848
 30
0.0
  0
LWPOLYLINE
  5
117
100
AcDbEntity
  8
text
 62
1
100
AcDbPolyline
 90
2
 70
1
 10
17.392178
 20
150.245896
 30
0.0
 10
17.392178
 20
150.245896
 30
0.0
  0
SPLINE
  5
118
100
AcDbEntity
  8
text
 62
1
100
AcDbSpline
 70
8
 71
3
 72
8
 73
4
 74
0
 40
0
 40
0
 40
0
 40
0
 40
1
 40
1
 40
1
 40
1
 10
24.596519
 20
254.041159
 30
0.0
 10
24.596519
 20
255.812104
 30
0.0
 10
25.777619
 20
256.992851
 30
0.0
 10
27.548563
 20
256.992851
 30
0.0
  0
SPLINE
  5
119
100
AcDbEntity
  8
text
 62
1
100
AcDbSpline
 70
8
 71
3
 72
8
 73
4
 74
0
 40
0
 40
0
 40
0
 40
0
 40
1
 40
1
 40
1
 40
1
 10
27.548563
 20
256.992851
 30
0.0
 10
29.320566
 20
256.992851
 30
0.0
 10
30.500255
 20
255.812104
 30
0.0
 10
30.500255
 20
254.041159
 30
0.0
  0
SPLINE
  5
11a
100
AcDbEntity
  8
text
 62
1
100
AcDbSpline
 70
8
 71
3
 72
8
 73
4
 74
0
 40
0
 40
0
 40
0
 40
0
 40
1
 40
1
 40
1
 40
1
 10
30.500255
 20
254.041159
 30
0.0
 10
30.500255
 20
252.270568
 30
0.0
 10
29.320566
 20
251.089468
 30
0.0
 10
27.548563
 20
251.089468
 30
0.0
  0
SPLINE
  5
11b
100
AcDbEntity
  8
text
 62
1
100
AcDbSpline
 70
8
 71
3
 72
8
 73
4
 74
0
 40
0
 40
0
 40
0
 40
0
 40
1
 40
1
 40
1
 40
1
 10
27.548563
 20
251.089468
 30
0.0
 10
25.777619
 20
251.089468
 30
0.0
 10
24.596519
 20
252.270568
 30
0.0
 10
24.596519
 20
254.041159
 30
0.0
  0
LWPOLYLINE
  5
11c
100
AcDbEntity
  8
text
 62
7
100
AcDbPolyline
 90
2
 70
1
 10
35.613340
 20
232.352848
 30
0.0
 10
35.613340
 20
232.352848
 30
0.0
  0
LWPOLYLINE
  5
11d
100
AcDbEntity
  8
text
 62
1
100
AcDbPolyline
 90
2
 70
0
 10
26.368875
 20
254.041159
 30
0.0
 10
28.729311
 20
254.041159
 30
0.0
  0
SPLINE
  5
11e
100
AcDbEntity
  8
text
 62
1
100
AcDbSpline
 70
8
 71
3
 72
8
 73
4
 74
0
 40
0
 40
0
 40
0
 40
0
 40
1
 40
1
 40
1
 40
1
 10
24.647319
 20
165.002845
 30
0.0
 10
24.647319
 20
166.773789
 30
0.0
 10
25.828419
 20
167.954537
 30
0.0
 10
27.599363
 20
167.954537
 30
0.0
  0
SPLINE
  5
11f
100
AcDbEntity
  8
text
 62
1
100
AcDbSpline
 70
8
 71
3
 72
8
 73
4
 74
0
 40
0
 40
0
 40
0
 40
0
 40
1
 40
1
 40
1
 40
1
 10
27.599363
 20
167.954537
 30
0.0
 10
29.371366
 20
167.954537
 30
0.0
 10
30.551055
 20
166.773789
 30
0.0
 10
30.551055
 20
165.002845
 30
0.0
  0
SPLINE
  5
120
100
AcDbEntity
  8
text
 62
1
100
AcDbSpline
 70
8
 71
3
 72
8
 73
4
 74
0
 40
0
 40
0
 40
0
 40
0
 40
1
 40
1
 40
1
 40
1
 10
30.551055
 20
165.002845
 30
0.0
 10
30.551055
 20
163.232253
 30
0.0
 10
29.371366
 20
162.051153
 30
0.0
 10
27.599363
 20
162.051153
 30
0.0
  0
SPLINE
  5
121
100
AcDbEntity
  8
text
 62
1
100
AcDbSpline
 70
8
 71
3
 72
8
 73
4
 74
0
 40
0
 40
0
 40
0
 40
0
 40
1
 40
1
 40
1
 40
1
 10
27.599363
 20
162.051153
 30
0.0
 10
25.828419
 20
162.051153
 30
0.0
 10
24.647319
 20
163.232253
 30
0.0
 10
24.647319
 20
165.002845
 30
0.0
  0
LWPOLYLINE
  5
122
100
AcDbEntity
  8
text
 62
1
100
AcDbPolyline
 90
2
 70
0
 10
27.548563
 20
252.860412
 30
0.0
 10
27.548563
 20
255.222259
 30
0.0
  0
LWPOLYLINE
  5
123
100
AcDbEntity
  8
text
 62
1
100
AcDbPolyline
 90
2
 70
0
 10
26.419675
 20
165.002845
 30
0.0
 10
28.780111
 20
165.002845
 30
0.0
  0
SPLINE
  5
124
100
AcDbEntity
  8
text
 62
1
100
AcDbSpline
 70
8
 71
3
 72
8
 73
4
 74
0
 40
0
 40
0
 40
0
 40
0
 40
1
 40
1
 40
1
 40
1
 10
32.498741
 20
236.224445
 30
0.0
 10
32.498741
 20
237.995389
 30
0.0
 10
33.679841
 20
239.176137
 30
0.0
 10
35.450786
 20
239.176137
 30
0.0
  0
SPLINE
  5
125
100
AcDbEntity
  8
text
 62
1
100
AcDbSpline
 70
8
 71
3
 72
8
 73
4
 74
0
 40
0
 40
0
 40
0
 40
0
 40
1
 40
1
 40
1
 40
1
 10
35.450786
 20
239.176137
 30
0.0
 10
37.222788
 20
239.176137
 30
0.0
 10
38.402477
 20
237.995389
 30
0.0
 10
38.402477
 20
236.224445
 30
0.0
  0
SPLINE
  5
126
100
AcDbEntity
  8
text
 62
1
100
AcDbSpline
 70
8
 71
3
 72
8
 73
4
 74
0
 40
0
 40
0
 40
0
 40
0
 40
1
 40
1
 40
1
 40
1
 10
38.402477
 20
236.224445
 30
0.0
 10
38.402477
 20
234.453853
 30
0.0
 10
37.222788
 20
233.272753
 30
0.0
 10
35.450786
 20
233.272753
 30
0.0
  0
SPLINE
  5
127
100
AcDbEntity
  8
text
 62
1
100
AcDbSpline
 70
8
 71
3
 72
8
 73
4
 74
0
 40
0
 40
0
 40
0
 40
0
 40
1
 40
1
 40
1
 40
1
 10
35.450786
 20
233.272753
 30
0.0
 10
33.679841
 20
233.272753
 30
0.0
 10
32.498741
 20
234.453853
 30
0.0
 10
32.498741
 20
236.224445
 30
0.0
  0
LWPOLYLINE
  5
128
100
AcDbEntity
  8
text
 62
1
100
AcDbPolyline
 90
2
 70
0
 10
27.599363
 20
163.822098
 30
0.0
 10
27.599363
 20
166.183945
 30
0.0
  0
LWPOLYLINE
  5
129
100
AcDbEntity
  8
text
 62
1
100
AcDbPolyline
 90
2
 70
0
 10
34.271097
 20
236.224445
 30
0.0
 10
36.631533
 20
236.224445
 30
0.0
  0
SPLINE
  5
12a
100
AcDbEntity
  8
text
 62
1
100
AcDbSpline
 70
8
 71
3
 72
8
 73
4
 74
0
 40
0
 40
0
 40
0
 40
0
 40
1
 40
1
 40
1
 40
1
 10
32.498741
 20
218.342845
 30
0.0
 10
32.498741
 20
220.113789
 30
0.0
 10
33.679841
 20
221.294537
 30
0.0
 10
35.450786
 20
221.294537
 30
0.0
  0
SPLINE
  5
12b
100
AcDbEntity
  8
text
 62
1
100
AcDbSpline
 70
8
 71
3
 72
8
 73
4
 74
0
 40
0
 40
0
 40
0
 40
0
 40
1
 40
1
 40
1
 40
1
 10
35.450786
 20
221.294537
 30
0.0
 10
37.222788
 20
221.294537
 30
0.0
 10
38.402477
 20
220.113789
 30
0.0
 10
38.402477
 20
218.342845
 30
0.0
  0
SPLINE
  5
12c
100
AcDbEntity
  8
text
 62
1
100
AcDbSpline
 70
8
 71
3
 72
8
 73
4
 74
0
 40
0
 40
0
 40
0
 40
0
 40
1
 40
1
 40
1
 40
1
 10
38.402477
 20
218.342845
 30
0.0
 10
38.402477
 20
216.572253
 30
0.0
 10
37.222788
 20
215.391153
 30
0.0
 10
35.450786
 20
215.391153
 30
0.0
  0
SPLINE
  5
12d
100
AcDbEntity
  8
text
 62
1
100
AcDbSpline
 70
8
 71
3
 72
8
 73
4
 74
0
 40
0
 40
0
 40
0
 40
0
 40
1
 40
1
 40
1
 40
1
 10
35.450786
 20
215.391153
 30
0.0
 10
33.679841
 20
215.391153
 30
0.0
 10
32.498741
 20
216.572253
 30
0.0
 10
32.498741
 20
218.342845
 30
0.0
  0
LWPOLYLINE
  5
12e
100
AcDbEntity
  8
text
 62
1
100
AcDbPolyline
 90
2
 70
0
 10
35.450786
 20
235.043698
 30
0.0
 10
35.450786
 20
237.405545
 30
0.0
  0
LWPOLYLINE
  5
12f
100
AcDbEntity
  8
text
 62
1
100
AcDbPolyline
 90
2
 70
0
 10
34.271097
 20
218.342845
 30
0.0
 10
36.631533
 20
218.342845
 30
0.0
  0
SPLINE
  5
130
100
AcDbEntity
  8
text
 62
1
100
AcDbSpline
 70
8
 71
3
 72
8
 73
4
 74
0
 40
0
 40
0
 40
0
 40
0
 40
1
 40
1
 40
1
 40
1
 10
32.498741
 20
200.639045
 30
0.0
 10
32.498741
 20
202.409989
 30
0.0
 10
33.679841
 20
203.590737
 30
0.0
 10
35.450786
 20
203.590737
 30
0.0
  0
SPLINE
  5
131
100
AcDbEntity
  8
text
 62
1
100
AcDbSpline
 70
8
 71
3
 72
8
 73
4
 74
0
 40
0
 40
0
 40
0
 40
0
 40
1
 40
1
 40
1
 40
1
 10
35.450786
 20
203.590737
 30
0.0
 10
37.222788
 20
203.590737
 30
0.0
 10
38.402477
 20
202.409989
 30
0.0
 10
38.402477
 20
200.639045
 30
0.0
  0
SPLINE
  5
132
100
AcDbEntity
  8
text
 62
1
100
AcDbSpline
 70
8
 71
3
 72
8
 73
4
 74
0
 40
0
 40
0
 40
0
 40
0
 40
1
 40
1
 40
1
 40
1
 10
38.402477
 20
200.639045
 30
0.0
 10
38.402477
 20
198.868453
 30
0.0
 10
37.222788
 20
197.687353
 30
0.0
 10
35.450786
 20
197.687353
 30
0.0
  0
SPLINE
  5
133
100
AcDbEntity
  8
text
 62
1
100
AcDbSpline
 70
8
 71
3
 72
8
 73
4
 74
0
 40
0
 40
0
 40
0
 40
0
 40
1
 40
1
 40
1
 40
1
 10
35.450786
 20
197.687353
 30
0.0
 10
33.679841
 20
197.687353
 30
0.0
 10
32.498741
 20
198.868453
 30
0.0
 10
32.498741
 20
200.639045
 30
0.0
  0
LWPOLYLINE
  5
134
100
AcDbEntity
  8
text
 62
1
100
AcDbPolyline
 90
2
 70
0
 10
35.450786
 20
217.162098
 30
0.0
 10
35.450786
 20
219.523945
 30
0.0
  0
LWPOLYLINE
  5
135
100
AcDbEntity
  8
text
 62
1
100
AcDbPolyline
 90
2
 70
0
 10
34.271097
 20
200.639045
 30
0.0
 10
36.631533
 20
200.639045
 30
0.0
  0
SPLINE
  5
136
100
AcDbEntity
  8
text
 62
1
100
AcDbSpline
 70
8
 71
3
 72
8
 73
4
 74
0
 40
0
 40
0
 40
0
 40
0
 40
1
 40
1
 40
1
 40
1
 10
32.498741
 20
182.859045
 30
0.0
 10
32.498741
 20
184.629989
 30
0.0
 10
33.679841
 20
185.810737
 30
0.0
 10
35.450786
 20
185.810737
 30
0.0
  0
SPLINE
  5
137
100
AcDbEntity
  8
text
 62
1
100
AcDbSpline
 70
8
 71
3
 72
8
 73
4
 74
0
 40
0
 40
0
 40
0
 40
0
 40
1
 40
1
 40
1
 40
1
 10
35.450786
 20
185.810737
 30
0.0
 10
37.222788
 20
185.810737
 30
0.0
 10
38.402477
 20
184.629989
 30
0.0
 10
38.402477
 20
182.859045
 30
0.0
  0
SPLINE
  5
138
100
AcDbEntity
  8
text
 62
1
100
AcDbSpline
 70
8
 71
3
 72
8
 73
4
 74
0
 40
0
 40
0
 40
0
 40
0
 40
1
 40
1
 40
1
 40
1
 10
38.402477
 20
182.859045
 30
0.0
 10
38.402477
 20
181.088453
 30
0.0
 10
37.222788
 20
179.907353
 30
0.0
 10
35.450786
 20
179.907353
 30
0.0
  0
SPLINE
  5
139
100
AcDbEntity
  8
text
 62
1
100
AcDbSpline
 70
8
 71
3
 72
8
 73
4
 74
0
 40
0
 40
0
 40
0
 40
0
 40
1
 40
1
 40
1
 40
1
 10
35.450786
 20
179.907353
 30
0.0
 10
33.679841
 20
179.907353
 30
0.0
 10
32.498741
 20
181.088453
 30
0.0
 10
32.498741
 20
182.859045
 30
0.0
  0
LWPOLYLINE
  5
13a
100
AcDbEntity
  8
text
 62
1
100
AcDbPolyline
 90
2
 70
0
 10
35.450786
 20
199.458298
 30
0.0
 10
35.450786
 20
201.820145
 30
0.0
  0
LWPOLYLINE
  5
13b
100
AcDbEntity
  8
text
 62
1
100
AcDbPolyline
 90
2
 70
0
 10
34.271097
 20
182.859045
 30
0.0
 10
36.631533
 20
182.859045
 30
0.0
  0
LWPOLYLINE
  5
13c
100
AcDbEntity
  8
text
 62
1
100
AcDbPolyline
 90
2
 70
0
 10
35.450786
 20
181.678298
 30
0.0
 10
35.450786
 20
184.040145
 30
0.0
  0
LWPOLYLINE
  5
13d
100
AcDbEntity
  8
text
 62
1
100
AcDbPolyline
 90
6
 70
0
 10
12.014716
 20
234.966933
 30
0.0
 10
16.009488
 20
234.966933
 30
0.0
 10
16.009488
 20
237.961887
 30
0.0
 10
19.290909
 20
237.961887
 30
0.0
 10
19.290909
 20
234.965756
 30
0.0
 10
23.033008
 20
234.965756
 30
0.0
  0
SPLINE
  5
13e
100
AcDbEntity
  8
text
 62
1
100
AcDbSpline
 70
8
 71
3
 72
8
 73
4
 74
0
 40
0
 40
0
 40
0
 40
0
 40
1
 40
1
 40
1
 40
1
 10
93.640173
 20
271.561229
 30
0.0
 10
93.640173
 20
271.428686
 30
0.0
 10
93.521982
 20
271.321238
 30
0.0
 10
93.376184
 20
271.321238
 30
0.0
  0
SPLINE
  5
13f
100
AcDbEntity
  8
text
 62
1
100
AcDbSpline
 70
8
 71
3
 72
8
 73
4
 74
0
 40
0
 40
0
 40
0
 40
0
 40
1
 40
1
 40
1
 40
1
 10
93.376184
 20
271.321238
 30
0.0
 10
93.230387
 20
271.321238
 30
0.0
 10
93.112195
 20
271.428686
 30
0.0
 10
93.112195
 20
271.561229
 30
0.0
  0
SPLINE
  5
140
100
AcDbEntity
  8
text
 62
1
100
AcDbSpline
 70
8
 71
3
 72
8
 73
4
 74
0
 40
0
 40
0
 40
0
 40
0
 40
1
 40
1
 40
1
 40
1
 10
93.112195
 20
271.561229
 30
0.0
 10
93.112195
 20
271.693772
 30
0.0
 10
93.230387
 20
271.801219
 30
0.0
 10
93.376184
 20
271.801219
 30
0.0
  0
SPLINE
  5
141
100
AcDbEntity
  8
text
 62
1
100
AcDbSpline
 70
8
 71
3
 72
8
 73
4
 74
0
 40
0
 40
0
 40
0
 40
0
 40
1
 40
1
 40
1
 40
1
 10
93.376184
 20
271.801219
 30
0.0
 10
93.521982
 20
271.801219
 30
0.0
 10
93.640174
 20
271.693772
 30
0.0
 10
93.640173
 20
271.561229
 30
0.0
  0
LWPOLYLINE
  5
142
100
AcDbEntity
  8
text
 62
7
100
AcDbPolyline
 90
6
 70
0
 10
74.763275
 20
146.622033
 30
0.0
 10
59.286966
 20
146.622033
 30
0.0
 10
59.286966
 20
274.778799
 30
0.0
 10
102.139693
 20
274.778799
 30
0.0
 10
102.139693
 20
146.622033
 30
0.0
 10
59.286966
 20
146.622033
 30
0.0
  0
SPLINE
  5
143
100
AcDbEntity
  8
text
 62
1
100
AcDbSpline
 70
8
 71
3
 72
8
 73
4
 74
0
 40
0
 40
0
 40
0
 40
0
 40
1
 40
1
 40
1
 40
1
 10
68.192178
 20
150.245896
 30
0.0
 10
68.192178
 20
150.201341
 30
0.0
 10
68.169422
 20
150.158610
 30
0.0
 10
68.128915
 20
150.127105
 30
0.0
  0
SPLINE
  5
144
100
AcDbEntity
  8
text
 62
1
100
AcDbSpline
 70
8
 71
3
 72
8
 73
4
 74
0
 40
0
 40
0
 40
0
 40
0
 40
1
 40
1
 40
1
 40
1
 10
68.128915
 20
150.127105
 30
0.0
 10
68.088408
 20
150.095600
 30
0.0
 10
68.033469
 20
150.077901
 30
0.0
 10
67.976184
 20
150.077901
 30
0.0
  0
SPLINE
  5
145
100
AcDbEntity
  8
text
 62
1
100
AcDbSpline
 70
8
 71
3
 72
8
 73
4
 74
0
 40
0
 40
0
 40
0
 40
0
 40
1
 40
1
 40
1
 40
1
 10
67.976184
 20
150.077901
 30
0.0
 10
67.918900
 20
150.077901
 30
0.0
 10
67.863961
 20
150.095601
 30
0.0
 10
67.823455
 20
150.127106
 30
0.0
  0
SPLINE
  5
146
100
AcDbEntity
  8
text
 62
1
100
AcDbSpline
 70
8
 71
3
 72
8
 73
4
 74
0
 40
0
 40
0
 40
0
 40
0
 40
1
 40
1
 40
1
 40
1
 10
67.823455
 20
150.127106
 30
0.0
 10
67.782949
 20
150.158611
 30
0.0
 10
67.760194
 20
150.201341
 30
0.0
 10
67.760194
 20
150.245896
 30
0.0
  0
SPLINE
  5
147
100
AcDbEntity
  8
text
 62
1
100
AcDbSpline
 70
8
 71
3
 72
8
 73
4
 74
0
 40
0
 40
0
 40
0
 40
0
 40
1
 40
1
 40
1
 40
1
 10
67.760194
 20
150.245896
 30
0.0
 10
67.760194
 20
150.290450
 30
0.0
 10
67.782949
 20
150.333180
 30
0.0
 10
67.823455
 20
150.364686
 30
0.0
  0
SPLINE
  5
148
100
AcDbEntity
  8
text
 62
1
100
AcDbSpline
 70
8
 71
3
 72
8
 73
4
 74
0
 40
0
 40
0
 40
0
 40
0
 40
1
 40
1
 40
1
 40
1
 10
67.823455
 20
150.364686
 30
0.0
 10
67.863961
 20
150.396191
 30
0.0
 10
67.918900
 20
150.413890
 30
0.0
 10
67.976184
 20
150.413891
 30
0.0
  0
SPLINE
  5
149
100
AcDbEntity
  8
text
 62
1
100
AcDbSpline
 70
8
 71
3
 72
8
 73
4
 74
0
 40
0
 40
0
 40
0
 40
0
 40
1
 40
1
 40
1
 40
1
 10
67.976184
 20
150.413891
 30
0.0
 10
68.033469
 20
150.413891
 30
0.0
 10
68.088408
 20
150.396192
 30
0.0
 10
68.128915
 20
150.364687
 30
0.0
  0
SPLINE
  5
14a
100
AcDbEntity
  8
text
 62
1
100
AcDbSpline
 70
8
 71
3
 72
8
 73
4
 74
0
 40
0
 40
0
 40
0
 40
0
 40
1
 40
1
 40
1
 40
1
 10
68.128915
 20
150.364687
 30
0.0
 10
68.169422
 20
150.333181
 30
0.0
 10
68.192178
 20
150.290451
 30
0.0
 10
68.192178
 20
150.245896
 30
0.0
  0
LWPOLYLINE
  5
14b
100
AcDbEntity
  8
text
 62
1
100
AcDbPolyline
 90
2
 70
1
 10
93.640173
 20
271.561229
 30
0.0
 10
93.640173
 20
271.561229
 30
0.0
  0
SPLINE
  5
14c
100
AcDbEntity
  8
text
 62
7
100
AcDbSpline
 70
8
 71
3
 72
8
 73
4
 74
0
 40
0
 40
0
 40
0
 40
0
 40
1
 40
1
 40
1
 40
1
 10
86.413340
 20
232.352848
 30
0.0
 10
86.413340
 20
232.295563
 30
0.0
 10
86.388055
 20
232.240625
 30
0.0
 10
86.343048
 20
232.200118
 30
0.0
  0
SPLINE
  5
14d
100
AcDbEntity
  8
text
 62
7
100
AcDbSpline
 70
8
 71
3
 72
8
 73
4
 74
0
 40
0
 40
0
 40
0
 40
0
 40
1
 40
1
 40
1
 40
1
 10
86.343048
 20
232.200118
 30
0.0
 10
86.298041
 20
232.159612
 30
0.0
 10
86.236998
 20
232.136856
 30
0.0
 10
86.173348
 20
232.136856
 30
0.0
  0
SPLINE
  5
14e
100
AcDbEntity
  8
text
 62
7
100
AcDbSpline
 70
8
 71
3
 72
8
 73
4
 74
0
 40
0
 40
0
 40
0
 40
0
 40
1
 40
1
 40
1
 40
1
 10
86.173348
 20
232.136856
 30
0.0
 10
86.109699
 20
232.136856
 30
0.0
 10
86.048656
 20
232.159612
 30
0.0
 10
86.003649
 20
232.200118
 30
0.0
  0
SPLINE
  5
14f
100
AcDbEntity
  8
text
 62
7
100
AcDbSpline
 70
8
 71
3
 72
8
 73
4
 74
0
 40
0
 40
0
 40
0
 40
0
 40
1
 40
1
 40
1
 40
1
 10
86.003649
 20
232.200118
 30
0.0
 10
85.958642
 20
232.240625
 30
0.0
 10
85.933357
 20
232.295563
 30
0.0
 10
85.933357
 20
232.352848
 30
0.0
  0
SPLINE
  5
150
100
AcDbEntity
  8
text
 62
7
100
AcDbSpline
 70
8
 71
3
 72
8
 73
4
 74
0
 40
0
 40
0
 40
0
 40
0
 40
1
 40
1
 40
1
 40
1
 10
85.933357
 20
232.352848
 30
0.0
 10
85.933357
 20
232.410132
 30
0.0
 10
85.958642
 20
232.465071
 30
0.0
 10
86.003649
 20
232.505577
 30
0.0
  0
SPLINE
  5
151
100
AcDbEntity
  8
text
 62
7
100
AcDbSpline
 70
8
 71
3
 72
8
 73
4
 74
0
 40
0
 40
0
 40
0
 40
0
 40
1
 40
1
 40
1
 40
1
 10
86.003649
 20
232.505577
 30
0.0
 10
86.048656
 20
232.546083
 30
0.0
 10
86.109699
 20
232.568840
 30
0.0
 10
86.173348
 20
232.568839
 30
0.0
  0
SPLINE
  5
152
100
AcDbEntity
  8
text
 62
7
100
AcDbSpline
 70
8
 71
3
 72
8
 73
4
 74
0
 40
0
 40
0
 40
0
 40
0
 40
1
 40
1
 40
1
 40
1
 10
86.173348
 20
232.568839
 30
0.0
 10
86.236998
 20
232.568840
 30
0.0
 10
86.298041
 20
232.546083
 30
0.0
 10
86.343048
 20
232.505577
 30
0.0
  0
SPLINE
  5
153
100
AcDbEntity
  8
text
 62
7
100
AcDbSpline
 70
8
 71
3
 72
8
 73
4
 74
0
 40
0
 40
0
 40
0
 40
0
 40
1
 40
1
 40
1
 40
1
 10
86.343048
 20
232.505577
 30
0.0
 10
86.388055
 20
232.465071
 30
0.0
 10
86.413340
 20
232.410132
 30
0.0
 10
86.413340
 20
232.352848
 30
0.0
  0
LWPOLYLINE
  5
154
100
AcDbEntity
  8
text
 62
1
100
AcDbPolyline
 90
2
 70
1
 10
68.192178
 20
150.245896
 30
0.0
 10
68.192178
 20
150.245896
 30
0.0
  0
SPLINE
  5
155
100
AcDbEntity
  8
text
 62
1
100
AcDbSpline
 70
8
 71
3
 72
8
 73
4
 74
0
 40
0
 40
0
 40
0
 40
0
 40
1
 40
1
 40
1
 40
1
 10
75.396519
 20
254.041159
 30
0.0
 10
75.396519
 20
255.812104
 30
0.0
 10
76.577619
 20
256.992851
 30
0.0
 10
78.348563
 20
256.992851
 30
0.0
  0
SPLINE
  5
156
100
AcDbEntity
  8
text
 62
1
100
AcDbSpline
 70
8
 71
3
 72
8
 73
4
 74
0
 40
0
 40
0
 40
0
 40
0
 40
1
 40
1
 40
1
 40
1
 10
78.348563
 20
256.992851
 30
0.0
 10
80.120566
 20
256.992851
 30
0.0
 10
81.300255
 20
255.812104
 30
0.0
 10
81.300255
 20
254.041159
 30
0.0
  0
SPLINE
  5
157
100
AcDbEntity
  8
text
 62
1
100
AcDbSpline
 70
8
 71
3
 72
8
 73
4
 74
0
 40
0
 40
0
 40
0
 40
0
 40
1
 40
1
 40
1
 40
1
 10
81.300255
 20
254.041159
 30
0.0
 10
81.300255
 20
252.270568
 30
0.0
 10
80.120566
 20
251.089468
 30
0.0
 10
78.348563
 20
251.089468
 30
0.0
  0
SPLINE
  5
158
100
AcDbEntity
  8
text
 62
1
100
AcDbSpline
 70
8
 71
3
 72
8
 73
4
 74
0
 40
0
 40
0
 40
0
 40
0
 40
1
 40
1
 40
1
 40
1
 10
78.348563
 20
251.089468
 30
0.0
 10
76.577619
 20
251.089468
 30
0.0
 10
75.396519
 20
252.270568
 30
0.0
 10
75.396519
 20
254.041159
 30
0.0
  0
LWPOLYLINE
  5
159
100
AcDbEntity
  8
text
 62
7
100
AcDbPolyline
 90
2
 70
1
 10
86.413340
 20
232.352848
 30
0.0
 10
86.413340
 20
232.352848
 30
0.0
  0
LWPOLYLINE
  5
15a
100
AcDbEntity
  8
text
 62
1
100
AcDbPolyline
 90
2
 70
0
 10
77.168875
 20
254.041159
 30
0.0
 10
79.529311
 20
254.041159
 30
0.0
  0
SPLINE
  5
15b
100
AcDbEntity
  8
text
 62
1
100
AcDbSpline
 70
8
 71
3
 72
8
 73
4
 74
0
 40
0
 40
0
 40
0
 40
0
 40
1
 40
1
 40
1
 40
1
 10
75.447319
 20
165.002845
 30
0.0
 10
75.447319
 20
166.773789
 30
0.0
 10
76.628419
 20
167.954537
 30
0.0
 10
78.399363
 20
167.954537
 30
0.0
  0
SPLINE
  5
15c
100
AcDbEntity
  8
text
 62
1
100
AcDbSpline
 70
8
 71
3
 72
8
 73
4
 74
0
 40
0
 40
0
 40
0
 40
0
 40
1
 40
1
 40
1
 40
1
 10
78.399363
 20
167.954537
 30
0.0
 10
80.171366
 20
167.954537
 30
0.0
 10
81.351055
 20
166.773789
 30
0.0
 10
81.351055
 20
165.002845
 30
0.0
  0
SPLINE
  5
15d
100
AcDbEntity
  8
text
 62
1
100
AcDbSpline
 70
8
 71
3
 72
8
 73
4
 74
0
 40
0
 40
0
 40
0
 40
0
 40
1
 40
1
 40
1
 40
1
 10
81.351055
 20
165.002845
 30
0.0
 10
81.351055
 20
163.232253
 30
0.0
 10
80.171366
 20
162.051153
 30
0.0
 10
78.399363
 20
162.051153
 30
0.0
  0
SPLINE
  5
15e
100
AcDbEntity
  8
text
 62
1
100
AcDbSpline
 70
8
 71
3
 72
8
 73
4
 74
0
 40
0
 40
0
 40
0
 40
0
 40
1
 40
1
 40
1
 40
1
 10
78.399363
 20
162.051153
 30
0.0
 10
76.628419
 20
162.051153
 30
0.0
 10
75.447319
 20
163.232253
 30
0.0
 10
75.447319
 20
165.002845
 30
0.0
  0
LWPOLYLINE
  5
15f
100
AcDbEntity
  8
text
 62
1
100
AcDbPolyline
 90
2
 70
0
 10
78.348563
 20
252.860412
 30
0.0
 10
78.348563
 20
255.222259
 30
0.0
  0
LWPOLYLINE
  5
160
100
AcDbEntity
  8
text
 62
1
100
AcDbPolyline
 90
2
 70
0
 10
77.219675
 20
165.002845
 30
0.0
 10
79.580111
 20
165.002845
 30
0.0
  0
SPLINE
  5
161
100
AcDbEntity
  8
text
 62
1
100
AcDbSpline
 70
8
 71
3
 72
8
 73
4
 74
0
 40
0
 40
0
 40
0
 40
0
 40
1
 40
1
 40
1
 40
1
 10
83.298741
 20
236.224445
 30
0.0
 10
83.298741
 20
237.995389
 30
0.0
 10
84.479841
 20
239.176137
 30
0.0
 10
86.250786
 20
239.176137
 30
0.0
  0
SPLINE
  5
162
100
AcDbEntity
  8
text
 62
1
100
AcDbSpline
 70
8
 71
3
 72
8
 73
4
 74
0
 40
0
 40
0
 40
0
 40
0
 40
1
 40
1
 40
1
 40
1
 10
86.250786
 20
239.176137
 30
0.0
 10
88.022788
 20
239.176137
 30
0.0
 10
89.202477
 20
237.995389
 30
0.0
 10
89.202477
 20
236.224445
 30
0.0
  0
SPLINE
  5
163
100
AcDbEntity
  8
text
 62
1
100
AcDbSpline
 70
8
 71
3
 72
8
 73
4
 74
0
 40
0
 40
0
 40
0
 40
0
 40
1
 40
1
 40
1
 40
1
 10
89.202477
 20
236.224445
 30
0.0
 10
89.202477
 20
234.453853
 30
0.0
 10
88.022788
 20
233.272753
 30
0.0
 10
86.250786
 20
233.272753
 30
0.0
  0
SPLINE
  5
164
100
AcDbEntity
  8
text
 62
1
100
AcDbSpline
 70
8
 71
3
 72
8
 73
4
 74
0
 40
0
 40
0
 40
0
 40
0
 40
1
 40
1
 40
1
 40
1
 10
86.250786
 20
233.272753
 30
0.0
 10
84.479841
 20
233.272753
 30
0.0
 10
83.298741
 20
234.453853
 30
0.0
 10
83.298741
 20
236.224445
 30
0.0
  0
LWPOLYLINE
  5
165
100
AcDbEntity
  8
text
 62
1
100
AcDbPolyline
 90
2
 70
0
 10
78.399363
 20
163.822098
 30
0.0
 10
78.399363
 20
166.183945
 30
0.0
  0
LWPOLYLINE
  5
166
100
AcDbEntity
  8
text
 62
1
100
AcDbPolyline
 90
2
 70
0
 10
85.071097
 20
236.224445
 30
0.0
 10
87.431533
 20
236.224445
 30
0.0
  0
SPLINE
  5
167
100
AcDbEntity
  8
text
 62
1
100
AcDbSpline
 70
8
 71
3
 72
8
 73
4
 74
0
 40
0
 40
0
 40
0
 40
0
 40
1
 40
1
 40
1
 40
1
 10
83.298741
 20
218.342845
 30
0.0
 10
83.298741
 20
220.113789
 30
0.0
 10
84.479841
 20
221.294537
 30
0.0
 10
86.250786
 20
221.294537
 30
0.0
  0
SPLINE
  5
168
100
AcDbEntity
  8
text
 62
1
100
AcDbSpline
 70
8
 71
3
 72
8
 73
4
 74
0
 40
0
 40
0
 40
0
 40
0
 40
1
 40
1
 40
1
 40
1
 10
86.250786
 20
221.294537
 30
0.0
 10
88.022788
 20
221.294537
 30
0.0
 10
89.202477
 20
220.113789
 30
0.0
 10
89.202477
 20
218.342845
 30
0.0
  0
SPLINE
  5
169
100
AcDbEntity
  8
text
 62
1
100
AcDbSpline
 70
8
 71
3
 72
8
 73
4
 74
0
 40
0
 40
0
 40
0
 40
0
 40
1
 40
1
 40
1
 40
1
 10
89.202477
 20
218.342845
 30
0.0
 10
89.202477
 20
216.572253
 30
0.0
 10
88.022788
 20
215.391153
 30
0.0
 10
86.250786
 20
215.391153
 30
0.0
  0
SPLINE
  5
16a
100
AcDbEntity
  8
text
 62
1
100
AcDbSpline
 70
8
 71
3
 72
8
 73
4
 74
0
 40
0
 40
0
 40
0
 40
0
 40
1
 40
1
 40
1
 40
1
 10
86.250786
 20
215.391153
 30
0.0
 10
84.479841
 20
215.391153
 30
0.0
 10
83.298741
 20
216.572253
 30
0.0
 10
83.298741
 20
218.342845
 30
0.0
  0
LWPOLYLINE
  5
16b
100
AcDbEntity
  8
text
 62
1
100
AcDbPolyline
 90
2
 70
0
 10
86.250786
 20
235.043698
 30
0.0
 10
86.250786
 20
237.405545
 30
0.0
  0
LWPOLYLINE
  5
16c
100
AcDbEntity
  8
text
 62
1
100
AcDbPolyline
 90
2
 70
0
 10
85.071097
 20
218.342845
 30
0.0
 10
87.431533
 20
218.342845
 30
0.0
  0
SPLINE
  5
16d
100
AcDbEntity
  8
text
 62
1
100
AcDbSpline
 70
8
 71
3
 72
8
 73
4
 74
0
 40
0
 40
0
 40
0
 40
0
 40
1
 40
1
 40
1
 40
1
 10
83.298741
 20
200.639045
 30
0.0
 10
83.298741
 20
202.409989
 30
0.0
 10
84.479841
 20
203.590737
 30
0.0
 10
86.250786
 20
203.590737
 30
0.0
  0
SPLINE
  5
16e
100
AcDbEntity
  8
text
 62
1
100
AcDbSpline
 70
8
 71
3
 72
8
 73
4
 74
0
 40
0
 40
0
 40
0
 40
0
 40
1
 40
1
 40
1
 40
1
 10
86.250786
 20
203.590737
 30
0.0
 10
88.022788
 20
203.590737
 30
0.0
 10
89.202477
 20
202.409989
 30
0.0
 10
89.202477
 20
200.639045
 30
0.0
  0
SPLINE
  5
16f
100
AcDbEntity
  8
text
 62
1
100
AcDbSpline
 70
8
 71
3
 72
8
 73
4
 74
0
 40
0
 40
0
 40
0
 40
0
 40
1
 40
1
 40
1
 40
1
 10
89.202477
 20
200.639045
 30
0.0
 10
89.202477
 20
198.868453
 30
0.0
 10
88.022788
 20
197.687353
 30
0.0
 10
86.250786
 20
197.687353
 30
0.0
  0
SPLINE
  5
170
100
AcDbEntity
  8
text
 62
1
100
AcDbSpline
 70
8
 71
3
 72
8
 73
4
 74
0
 40
0
 40
0
 40
0
 40
0
 40
1
 40
1
 40
1
 40
1
 10
86.250786
 20
197.687353
 30
0.0
 10
84.479841
 20
197.687353
 30
0.0
 10
83.298741
 20
198.868453
 30
0.0
 10
83.298741
 20
200.639045
 30
0.0
  0
LWPOLYLINE
  5
171
100
AcDbEntity
  8
text
 62
1
100
AcDbPolyline
 90
2
 70
0
 10
86.250786
 20
217.162098
 30
0.0
 10
86.250786
 20
219.523945
 30
0.0
  0
LWPOLYLINE
  5
172
100
AcDbEntity
  8
text
 62
1
100
AcDbPolyline
 90
2
 70
0
 10
85.071097
 20
200.639045
 30
0.0
 10
87.431533
 20
200.639045
 30
0.0
  0
SPLINE
  5
173
100
AcDbEntity
  8
text
 62
1
100
AcDbSpline
 70
8
 71
3
 72
8
 73
4
 74
0
 40
0
 40
0
 40
0
 40
0
 40
1
 40
1
 40
1
 40
1
 10
83.298741
 20
182.859045
 30
0.0
 10
83.298741
 20
184.629989
 30
0.0
 10
84.479841
 20
185.810737
 30
0.0
 10
86.250786
 20
185.810737
 30
0.0
  0
SPLINE
  5
174
100
AcDbEntity
  8
text
 62
1
100
AcDbSpline
 70
8
 71
3
 72
8
 73
4
 74
0
 40
0
 40
0
 40
0
 40
0
 40
1
 40
1
 40
1
 40
1
 10
86.250786
 20
185.810737
 30
0.0
 10
88.022788
 20
185.810737
 30
0.0
 10
89.202477
 20
184.629989
 30
0.0
 10
89.202477
 20
182.859045
 30
0.0
  0
SPLINE
  5
175
100
AcDbEntity
  8
text
 62
1
100
AcDbSpline
 70
8
 71
3
 72
8
 73
4
 74
0
 40
0
 40
0
 40
0
 40
0
 40
1
 40
1
 40
1
 40
1
 10
89.202477
 20
182.859045
 30
0.0
 10
89.202477
 20
181.088453
 30
0.0
 10
88.022788
 20
179.907353
 30
0.0
 10
86.250786
 20
179.907353
 30
0.0
  0
SPLINE
  5
176
100
AcDbEntity
  8
text
 62
1
100
AcDbSpline
 70
8
 71
3
 72
8
 73
4
 74
0
 40
0
 40
0
 40
0
 40
0
 40
1
 40
1
 40
1
 40
1
 10
86.250786
 20
179.907353
 30
0.0
 10
84.479841
 20
179.907353
 30
0.0
 10
83.298741
 20
181.088453
 30
0.0
 10
83.298741
 20
182.859045
 30
0.0
  0
LWPOLYLINE
  5
177
100
AcDbEntity
  8
text
 62
1
100
AcDbPolyline
 90
2
 70
0
 10
86.250786
 20
199.458298
 30
0.0
 10
86.250786
 20
201.820145
 30
0.0
  0
LWPOLYLINE
  5
178
100
AcDbEntity
  8
text
 62
1
100
AcDbPolyline
 90
2
 70
0
 10
85.071097
 20
182.859045
 30
0.0
 10
87.431533
 20
182.859045
 30
0.0
  0
LWPOLYLINE
  5
179
100
AcDbEntity
  8
text
 62
1
100
AcDbPolyline
 90
2
 70
0
 10
86.250786
 20
181.678298
 30
0.0
 10
86.250786
 20
184.040145
 30
0.0
  0
LWPOLYLINE
  5
17a
100
AcDbEntity
  8
text
 62
1
100
AcDbPolyline
 90
6
 70
0
 10
62.814716
 20
234.966933
 30
0.0
 10
66.809488
 20
234.966933
 30
0.0
 10
66.809488
 20
237.961887
 30
0.0
 10
70.090909
 20
237.961887
 30
0.0
 10
70.090909
 20
234.965756
 30
0.0
 10
73.833008
 20
234.965756
 30
0.0
  0
SPLINE
  5
17b
100
AcDbEntity
  8
text
 62
1
100
AcDbSpline
 70
8
 71
3
 72
8
 73
4
 74
0
 40
0
 40
0
 40
0
 40
0
 40
1
 40
1
 40
1
 40
1
 10
144.440173
 20
271.561229
 30
0.0
 10
144.440173
 20
271.428686
 30
0.0
 10
144.321982
 20
271.321238
 30
0.0
 10
144.176184
 20
271.321238
 30
0.0
  0
SPLINE
  5
17c
100
AcDbEntity
  8
text
 62
1
100
AcDbSpline
 70
8
 71
3
 72
8
 73
4
 74
0
 40
0
 40
0
 40
0
 40
0
 40
1
 40
1
 40
1
 40
1
 10
144.176184
 20
271.321238
 30
0.0
 10
144.030387
 20
271.321238
 30
0.0
 10
143.912195
 20
271.428686
 30
0.0
 10
143.912195
 20
271.561229
 30
0.0
  0
SPLINE
  5
17d
100
AcDbEntity
  8
text
 62
1
100
AcDbSpline
 70
8
 71
3
 72
8
 73
4
 74
0
 40
0
 40
0
 40
0
 40
0
 40
1
 40
1
 40
1
 40
1
 10
143.912195
 20
271.561229
 30
0.0
 10
143.912195
 20
271.693772
 30
0.0
 10
144.030387
 20
271.801219
 30
0.0
 10
144.176184
 20
271.801219
 30
0.0
  0
SPLINE
  5
17e
100
AcDbEntity
  8
text
 62
1
100
AcDbSpline
 70
8
 71
3
 72
8
 73
4
 74
0
 40
0
 40
0
 40
0
 40
0
 40
1
 40
1
 40
1
 40
1
 10
144.176184
 20
271.801219
 30
0.0
 10
144.321982
 20
271.801219
 30
0.0
 10
144.440174
 20
271.693772
 30
0.0
 10
144.440173
 20
271.561229
 30
0.0
  0
LWPOLYLINE
  5
17f
100
AcDbEntity
  8
text
 62
7
100
AcDbPolyline
 90
6
 70
0
 10
125.563275
 20
146.622033
 30
0.0
 10
110.086966
 20
146.622033
 30
0.0
 10
110.086966
 20
274.778799
 30
0.0
 10
152.939693
 20
274.778799
 30
0.0
 10
152.939693
 20
146.622033
 30
0.0
 10
110.086966
 20
146.622033
 30
0.0
  0
SPLINE
  5
180
100
AcDbEntity
  8
text
 62
1
100
AcDbSpline
 70
8
 71
3
 72
8
 73
4
 74
0
 40
0
 40
0
 40
0
 40
0
 40
1
 40
1
 40
1
 40
1
 10
118.992178
 20
150.245896
 30
0.0
 10
118.992178
 20
150.201341
 30
0.0
 10
118.969422
 20
150.158610
 30
0.0
 10
118.928915
 20
150.127105
 30
0.0
  0
SPLINE
  5
181
100
AcDbEntity
  8
text
 62
1
100
AcDbSpline
 70
8
 71
3
 72
8
 73
4
 74
0
 40
0
 40
0
 40
0
 40
0
 40
1
 40
1
 40
1
 40
1
 10
118.928915
 20
150.127105
 30
0.0
 10
118.888408
 20
150.095600
 30
0.0
 10
118.833469
 20
150.077901
 30
0.0
 10
118.776184
 20
150.077901
 30
0.0
  0
SPLINE
  5
182
100
AcDbEntity
  8
text
 62
1
100
AcDbSpline
 70
8
 71
3
 72
8
 73
4
 74
0
 40
0
 40
0
 40
0
 40
0
 40
1
 40
1
 40
1
 40
1
 10
118.776184
 20
150.077901
 30
0.0
 10
118.718900
 20
150.077901
 30
0.0
 10
118.663961
 20
150.095601
 30
0.0
 10
118.623455
 20
150.127106
 30
0.0
  0
SPLINE
  5
183
100
AcDbEntity
  8
text
 62
1
100
AcDbSpline
 70
8
 71
3
 72
8
 73
4
 74
0
 40
0
 40
0
 40
0
 40
0
 40
1
 40
1
 40
1
 40
1
 10
118.623455
 20
150.127106
 30
0.0
 10
118.582949
 20
150.158611
 30
0.0
 10
118.560194
 20
150.201341
 30
0.0
 10
118.560194
 20
150.245896
 30
0.0
  0
SPLINE
  5
184
100
AcDbEntity
  8
text
 62
1
100
AcDbSpline
 70
8
 71
3
 72
8
 73
4
 74
0
 40
0
 40
0
 40
0
 40
0
 40
1
 40
1
 40
1
 40
1
 10
118.560194
 20
150.245896
 30
0.0
 10
118.560194
 20
150.290450
 30
0.0
 10
118.582949
 20
150.333180
 30
0.0
 10
118.623455
 20
150.364686
 30
0.0
  0
SPLINE
  5
185
100
AcDbEntity
  8
text
 62
1
100
AcDbSpline
 70
8
 71
3
 72
8
 73
4
 74
0
 40
0
 40
0
 40
0
 40
0
 40
1
 40
1
 40
1
 40
1
 10
118.623455
 20
150.364686
 30
0.0
 10
118.663961
 20
150.396191
 30
0.0
 10
118.718900
 20
150.413890
 30
0.0
 10
118.776184
 20
150.413891
 30
0.0
  0
SPLINE
  5
186
100
AcDbEntity
  8
text
 62
1
100
AcDbSpline
 70
8
 71
3
 72
8
 73
4
 74
0
 40
0
 40
0
 40
0
 40
0
 40
1
 40
1
 40
1
 40
1
 10
118.776184
 20
150.413891
 30
0.0
 10
118.833469
 20
150.413891
 30
0.0
 10
118.888408
 20
150.396192
 30
0.0
 10
118.928915
 20
150.364687
 30
0.0
  0
SPLINE
  5
187
100
AcDbEntity
  8
text
 62
1
100
AcDbSpline
 70
8
 71
3
 72
8
 73
4
 74
0
 40
0
 40
0
 40
0
 40
0
 40
1
 40
1
 40
1
 40
1
 10
118.928915
 20
150.364687
 30
0.0
 10
118.969422
 20
150.333181
 30
0.0
 10
118.992178
 20
150.290451
 30
0.0
 10
118.992178
 20
150.245896
 30
0.0
  0
LWPOLYLINE
  5
188
100
AcDbEntity
  8
text
 62
1
100
AcDbPolyline
 90
2
 70
1
 10
144.440173
 20
271.561229
 30
0.0
 10
144.440173
 20
271.561229
 30
0.0
  0
SPLINE
  5
189
100
AcDbEntity
  8
text
 62
7
100
AcDbSpline
 70
8
 71
3
 72
8
 73
4
 74
0
 40
0
 40
0
 40
0
 40
0
 40
1
 40
1
 40
1
 40
1
 10
137.213340
 20
232.352848
 30
0.0
 10
137.213340
 20
232.295563
 30
0.0
 10
137.188055
 20
232.240625
 30
0.0
 10
137.143048
 20
232.200118
 30
0.0
  0
SPLINE
  5
18a
100
AcDbEntity
  8
text
 62
7
100
AcDbSpline
 70
8
 71
3
 72
8
 73
4
 74
0
 40
0
 40
0
 40
0
 40
0
 40
1
 40
1
 40
1
 40
1
 10
137.143048
 20
232.200118
 30
0.0
 10
137.098041
 20
232.159612
 30
0.0
 10
137.036998
 20
232.136856
 30
0.0
 10
136.973348
 20
232.136856
 30
0.0
  0
SPLINE
  5
18b
100
AcDbEntity
  8
text
 62
7
100
AcDbSpline
 70
8
 71
3
 72
8
 73
4
 74
0
 40
0
 40
0
 40
0
 40
0
 40
1
 40
1
 40
1
 40
1
 10
136.973348
 20
232.136856
 30
0.0
 10
136.909699
 20
232.136856
 30
0.0
 10
136.848656
 20
232.159612
 30
0.0
 10
136.803649
 20
232.200118
 30
0.0
  0
SPLINE
  5
18c
100
AcDbEntity
  8
text
 62
7
100
AcDbSpline
 70
8
 71
3
 72
8
 73
4
 74
0
 40
0
 40
0
 40
0
 40
0
 40
1
 40
1
 40
1
 40
1
 10
136.803649
 20
232.200118
 30
0.0
 10
136.758642
 20
232.240625
 30
0.0
 10
136.733357
 20
232.295563
 30
0.0
 10
136.733357
 20
232.352848
 30
0.0
  0
SPLINE
  5
18d
100
AcDbEntity
  8
text
 62
7
100
AcDbSpline
 70
8
 71
3
 72
8
 73
4
 74
0
 40
0
 40
0
 40
0
 40
0
 40
1
 40
1
 40
1
 40
1
 10
136.733357
 20
232.352848
 30
0.0
 10
136.733357
 20
232.410132
 30
0.0
 10
136.758642
 20
232.465071
 30
0.0
 10
136.803649
 20
232.505577
 30
0.0
  0
SPLINE
  5
18e
100
AcDbEntity
  8
text
 62
7
100
AcDbSpline
 70
8
 71
3
 72
8
 73
4
 74
0
 40
0
 40
0
 40
0
 40
0
 40
1
 40
1
 40
1
 40
1
 10
136.803649
 20
232.505577
 30
0.0
 10
136.848656
 20
232.546083
 30
0.0
 10
136.909699
 20
232.568840
 30
0.0
 10
136.973348
 20
232.568839
 30
0.0
  0
SPLINE
  5
18f
100
AcDbEntity
  8
text
 62
7
100
AcDbSpline
 70
8
 71
3
 72
8
 73
4
 74
0
 40
0
 40
0
 40
0
 40
0
 40
1
 40
1
 40
1
 40
1
 10
136.973348
 20
232.568839
 30
0.0
 10
137.036998
 20
232.568840
 30
0.0
 10
137.098041
 20
232.546083
 30
0.0
 10
137.143048
 20
232.505577
 30
0.0
  0
SPLINE
  5
190
100
AcDbEntity
  8
text
 62
7
100
AcDbSpline
 70
8
 71
3
 72
8
 73
4
 74
0
 40
0
 40
0
 40
0
 40
0
 40
1
 40
1
 40
1
 40
1
 10
137.143048
 20
232.505577
 30
0.0
 10
137.188055
 20
232.465071
 30
0.0
 10
137.213340
 20
232.410132
 30
0.0
 10
137.213340
 20
232.352848
 30
0.0
  0
LWPOLYLINE
  5
191
100
AcDbEntity
  8
text
 62
1
100
AcDbPolyline
 90
2
 70
1
 10
118.992178
 20
150.245896
 30
0.0
 10
118.992178
 20
150.245896
 30
0.0
  0
SPLINE
  5
192
100
AcDbEntity
  8
text
 62
1
100
AcDbSpline
 70
8
 71
3
 72
8
 73
4
 74
0
 40
0
 40
0
 40
0
 40
0
 40
1
 40
1
 40
1
 40
1
 10
126.196519
 20
254.041159
 30
0.0
 10
126.196519
 20
255.812104
 30
0.0
 10
127.377619
 20
256.992851
 30
0.0
 10
129.148563
 20
256.992851
 30
0.0
  0
SPLINE
  5
193
100
AcDbEntity
  8
text
 62
1
100
AcDbSpline
 70
8
 71
3
 72
8
 73
4
 74
0
 40
0
 40
0
 40
0
 40
0
 40
1
 40
1
 40
1
 40
1
 10
129.148563
 20
256.992851
 30
0.0
 10
130.920566
 20
256.992851
 30
0.0
 10
132.100255
 20
255.812104
 30
0.0
 10
132.100255
 20
254.041159
 30
0.0
  0
SPLINE
  5
194
100
AcDbEntity
  8
text
 62
1
100
AcDbSpline
 70
8
 71
3
 72
8
 73
4
 74
0
 40
0
 40
0
 40
0
 40
0
 40
1
 40
1
 40
1
 40
1
 10
132.100255
 20
254.041159
 30
0.0
 10
132.100255
 20
252.270568
 30
0.0
 10
130.920566
 20
251.089468
 30
0.0
 10
129.148563
 20
251.089468
 30
0.0
  0
SPLINE
  5
195
100
AcDbEntity
  8
text
 62
1
100
AcDbSpline
 70
8
 71
3
 72
8
 73
4
 74
0
 40
0
 40
0
 40
0
 40
0
 40
1
 40
1
 40
1
 40
1
 10
129.148563
 20
251.089468
 30
0.0
 10
127.377619
 20
251.089468
 30
0.0
 10
126.196519
 20
252.270568
 30
0.0
 10
126.196519
 20
254.041159
 30
0.0
  0
LWPOLYLINE
  5
196
100
AcDbEntity
  8
text
 62
7
100
AcDbPolyline
 90
2
 70
1
 10
137.213340
 20
232.352848
 30
0.0
 10
137.213340
 20
232.352848
 30
0.0
  0
LWPOLYLINE
  5
197
100
AcDbEntity
  8
text
 62
1
100
AcDbPolyline
 90
2
 70
0
 10
127.968875
 20
254.041159
 30
0.0
 10
130.329311
 20
254.041159
 30
0.0
  0
SPLINE
  5
198
100
AcDbEntity
  8
text
 62
1
100
AcDbSpline
 70
8
 71
3
 72
8
 73
4
 74
0
 40
0
 40
0
 40
0
 40
0
 40
1
 40
1
 40
1
 40
1
 10
126.247319
 20
165.002845
 30
0.0
 10
126.247319
 20
166.773789
 30
0.0
 10
127.428419
 20
167.954537
 30
0.0
 10
129.199363
 20
167.954537
 30
0.0
  0
SPLINE
  5
199
100
AcDbEntity
  8
text
 62
1
100
AcDbSpline
 70
8
 71
3
 72
8
 73
4
 74
0
 40
0
 40
0
 40
0
 40
0
 40
1
 40
1
 40
1
 40
1
 10
129.199363
 20
167.954537
 30
0.0
 10
130.971366
 20
167.954537
 30
0.0
 10
132.151055
 20
166.773789
 30
0.0
 10
132.151055
 20
165.002845
 30
0.0
  0
SPLINE
  5
19a
100
AcDbEntity
  8
text
 62
1
100
AcDbSpline
 70
8
 71
3
 72
8
 73
4
 74
0
 40
0
 40
0
 40
0
 40
0
 40
1
 40
1
 40
1
 40
1
 10
132.151055
 20
165.002845
 30
0.0
 10
132.151055
 20
163.232253
 30
0.0
 10
130.971366
 20
162.051153
 30
0.0
 10
129.199363
 20
162.051153
 30
0.0
  0
SPLINE
  5
19b
100
AcDbEntity
  8
text
 62
1
100
AcDbSpline
 70
8
 71
3
 72
8
 73
4
 74
0
 40
0
 40
0
 40
0
 40
0
 40
1
 40
1
 40
1
 40
1
 10
129.199363
 20
162.051153
 30
0.0
 10
127.428419
 20
162.051153
 30
0.0
 10
126.247319
 20
163.232253
 30
0.0
 10
126.247319
 20
165.002845
 30
0.0
  0
LWPOLYLINE
  5
19c
100
AcDbEntity
  8
text
 62
1
100
AcDbPolyline
 90
2
 70
0
 10
129.148563
 20
252.860412
 30
0.0
 10
129.148563
 20
255.222259
 30
0.0
  0
LWPOLYLINE
  5
19d
100
AcDbEntity
  8
text
 62
1
100
AcDbPolyline
 90
2
 70
0
 10
128.019675
 20
165.002845
 30
0.0
 10
130.380111
 20
165.002845
 30
0.0
  0
SPLINE
  5
19e
100
AcDbEntity
  8
text
 62
1
100
AcDbSpline
 70
8
 71
3
 72
8
 73
4
 74
0
 40
0
 40
0
 40
0
 40
0
 40
1
 40
1
 40
1
 40
1
 10
134.098741
 20
236.224445
 30
0.0
 10
134.098741
 20
237.995389
 30
0.0
 10
135.279841
 20
239.176137
 30
0.0
 10
137.050786
 20
239.176137
 30
0.0
  0
SPLINE
  5
19f
100
AcDbEntity
  8
text
 62
1
100
AcDbSpline
 70
8
 71
3
 72
8
 73
4
 74
0
 40
0
 40
0
 40
0
 40
0
 40
1
 40
1
 40
1
 40
1
 10
137.050786
 20
239.176137
 30
0.0
 10
138.822788
 20
239.176137
 30
0.0
 10
140.002477
 20
237.995389
 30
0.0
 10
140.002477
 20
236.224445
 30
0.0
  0
SPLINE
  5
1a0
100
AcDbEntity
  8
text
 62
1
100
AcDbSpline
 70
8
 71
3
 72
8
 73
4
 74
0
 40
0
 40
0
 40
0
 40
0
 40
1
 40
1
 40
1
 40
1
 10
140.002477
 20
236.224445
 30
0.0
 10
140.002477
 20
234.453853
 30
0.0
 10
138.822788
 20
233.272753
 30
0.0
 10
137.050786
 20
233.272753
 30
0.0
  0
SPLINE
  5
1a1
100
AcDbEntity
  8
text
 62
1
100
AcDbSpline
 70
8
 71
3
 72
8
 73
4
 74
0
 40
0
 40
0
 40
0
 40
0
 40
1
 40
1
 40
1
 40
1
 10
137.050786
 20
233.272753
 30
0.0
 10
135.279841
 20
233.272753
 30
0.0
 10
134.098741
 20
234.453853
 30
0.0
 10
134.098741
 20
236.224445
 30
0.0
  0
LWPOLYLINE
  5
1a2
100
AcDbEntity
  8
text
 62
1
100
AcDbPolyline
 90
2
 70
0
 10
129.199363
 20
163.822098
 30
0.0
 10
129.199363
 20
166.183945
 30
0.0
  0
LWPOLYLINE
  5
1a3
100
AcDbEntity
  8
text
 62
1
100
AcDbPolyline
 90
2
 70
0
 10
135.871097
 20
236.224445
 30
0.0
 10
138.231533
 20
236.224445
 30
0.0
  0
SPLINE
  5
1a4
100
AcDbEntity
  8
text
 62
1
100
AcDbSpline
 70
8
 71
3
 72
8
 73
4
 74
0
 40
0
 40
0
 40
0
 40
0
 40
1
 40
1
 40
1
 40
1
 10
134.098741
 20
218.342845
 30
0.0
 10
134.098741
 20
220.113789
 30
0.0
 10
135.279841
 20
221.294537
 30
0.0
 10
137.050786
 20
221.294537
 30
0.0
  0
SPLINE
  5
1a5
100
AcDbEntity
  8
text
 62
1
100
AcDbSpline
 70
8
 71
3
 72
8
 73
4
 74
0
 40
0
 40
0
 40
0
 40
0
 40
1
 40
1
 40
1
 40
1
 10
137.050786
 20
221.294537
 30
0.0
 10
138.822788
 20
221.294537
 30
0.0
 10
140.002477
 20
220.113789
 30
0.0
 10
140.002477
 20
218.342845
 30
0.0
  0
SPLINE
  5
1a6
100
AcDbEntity
  8
text
 62
1
100
AcDbSpline
 70
8
 71
3
 72
8
 73
4
 74
0
 40
0
 40
0
 40
0
 40
0
 40
1
 40
1
 40
1
 40
1
 10
140.002477
 20
218.342845
 30
0.0
 10
140.002477
 20
216.572253
 30
0.0
 10
138.822788
 20
215.391153
 30
0.0
 10
137.050786
 20
215.391153
 30
0.0
  0
SPLINE
  5
1a7
100
AcDbEntity
  8
text
 62
1
100
AcDbSpline
 70
8
 71
3
 72
8
 73
4
 74
0
 40
0
 40
0
 40
0
 40
0
 40
1
 40
1
 40
1
 40
1
 10
137.050786
 20
215.391153
 30
0.0
 10
135.279841
 20
215.391153
 30
0.0
 10
134.098741
 20
216.572253
 30
0.0
 10
134.098741
 20
218.342845
 30
0.0
  0
LWPOLYLINE
  5
1a8
100
AcDbEntity
  8
text
 62
1
100
AcDbPolyline
 90
2
 70
0
 10
137.050786
 20
235.043698
 30
0.0
 10
137.050786
 20
237.405545
 30
0.0
  0
LWPOLYLINE
  5
1a9
100
AcDbEntity
  8
text
 62
1
100
AcDbPolyline
 90
2
 70
0
 10
135.871097
 20
218.342845
 30
0.0
 10
138.231533
 20
218.342845
 30
0.0
  0
SPLINE
  5
1aa
100
AcDbEntity
  8
text
 62
1
100
AcDbSpline
 70
8
 71
3
 72
8
 73
4
 74
0
 40
0
 40
0
 40
0
 40
0
 40
1
 40
1
 40
1
 40
1
 10
134.098741
 20
200.639045
 30
0.0
 10
134.098741
 20
202.409989
 30
0.0
 10
135.279841
 20
203.590737
 30
0.0
 10
137.050786
 20
203.590737
 30
0.0
  0
SPLINE
  5
1ab
100
AcDbEntity
  8
text
 62
1
100
AcDbSpline
 70
8
 71
3
 72
8
 73
4
 74
0
 40
0
 40
0
 40
0
 40
0
 40
1
 40
1
 40
1
 40
1
 10
137.050786
 20
203.590737
 30
0.0
 10
138.822788
 20
203.590737
 30
0.0
 10
140.002477
 20
202.409989
 30
0.0
 10
140.002477
 20
200.639045
 30
0.0
  0
SPLINE
  5
1ac
100
AcDbEntity
  8
text
 62
1
100
AcDbSpline
 70
8
 71
3
 72
8
 73
4
 74
0
 40
0
 40
0
 40
0
 40
0
 40
1
 40
1
 40
1
 40
1
 10
140.002477
 20
200.639045
 30
0.0
 10
140.002477
 20
198.868453
 30
0.0
 10
138.822788
 20
197.687353
 30
0.0
 10
137.050786
 20
197.687353
 30
0.0
  0
SPLINE
  5
1ad
100
AcDbEntity
  8
text
 62
1
100
AcDbSpline
 70
8
 71
3
 72
8
 73
4
 74
0
 40
0
 40
0
 40
0
 40
0
 40
1
 40
1
 40
1
 40
1
 10
137.050786
 20
197.687353
 30
0.0
 10
135.279841
 20
197.687353
 30
0.0
 10
134.098741
 20
198.868453
 30
0.0
 10
134.098741
 20
200.639045
 30
0.0
  0
LWPOLYLINE
  5
1ae
100
AcDbEntity
  8
text
 62
1
100
AcDbPolyline
 90
2
 70
0
 10
137.050786
 20
217.162098
 30
0.0
 10
137.050786
 20
219.523945
 30
0.0
  0
LWPOLYLINE
  5
1af
100
AcDbEntity
  8
text
 62
1
100
AcDbPolyline
 90
2
 70
0
 10
135.871097
 20
200.639045
 30
0.0
 10
138.231533
 20
200.639045
 30
0.0
  0
SPLINE
  5
1b0
100
AcDbEntity
  8
text
 62
1
100
AcDbSpline
 70
8
 71
3
 72
8
 73
4
 74
0
 40
0
 40
0
 40
0
 40
0
 40
1
 40
1
 40
1
 40
1
 10
134.098741
 20
182.859045
 30
0.0
 10
134.098741
 20
184.629989
 30
0.0
 10
135.279841
 20
185.810737
 30
0.0
 10
137.050786
 20
185.810737
 30
0.0
  0
SPLINE
  5
1b1
100
AcDbEntity
  8
text
 62
1
100
AcDbSpline
 70
8
 71
3
 72
8
 73
4
 74
0
 40
0
 40
0
 40
0
 40
0
 40
1
 40
1
 40
1
 40
1
 10
137.050786
 20
185.810737
 30
0.0
 10
138.822788
 20
185.810737
 30
0.0
 10
140.002477
 20
184.629989
 30
0.0
 10
140.002477
 20
182.859045
 30
0.0
  0
SPLINE
  5
1b2
100
AcDbEntity
  8
text
 62
1
100
AcDbSpline
 70
8
 71
3
 72
8
 73
4
 74
0
 40
0
 40
0
 40
0
 40
0
 40
1
 40
1
 40
1
 40
1
 10
140.002477
 20
182.859045
 30
0.0
 10
140.002477
 20
181.088453
 30
0.0
 10
138.822788
 20
179.907353
 30
0.0
 10
137.050786
 20
179.907353
 30
0.0
  0
SPLINE
  5
1b3
100
AcDbEntity
  8
text
 62
1
100
AcDbSpline
 70
8
 71
3
 72
8
 73
4
 74
0
 40
0
 40
0
 40
0
 40
0
 40
1
 40
1
 40
1
 40
1
 10
137.050786
 20
179.907353
 30
0.0
 10
135.279841
 20
179.907353
 30
0.0
 10
134.098741
 20
181.088453
 30
0.0
 10
134.098741
 20
182.859045
 30
0.0
  0
LWPOLYLINE
  5
1b4
100
AcDbEntity
  8
text
 62
1
100
AcDbPolyline
 90
2
 70
0
 10
137.050786
 20
199.458298
 30
0.0
 10
137.050786
 20
201.820145
 30
0.0
  0
LWPOLYLINE
  5
1b5
100
AcDbEntity
  8
text
 62
1
100
AcDbPolyline
 90
2
 70
0
 10
135.871097
 20
182.859045
 30
0.0
 10
138.231533
 20
182.859045
 30
0.0
  0
LWPOLYLINE
  5
1b6
100
AcDbEntity
  8
text
 62
1
100
AcDbPolyline
 90
2
 70
0
 10
137.050786
 20
181.678298
 30
0.0
 10
137.050786
 20
184.040145
 30
0.0
  0
LWPOLYLINE
  5
1b7
100
AcDbEntity
  8
text
 62
1
100
AcDbPolyline
 90
6
 70
0
 10
113.614716
 20
234.966933
 30
0.0
 10
117.609488
 20
234.966933
 30
0.0
 10
117.609488
 20
237.961887
 30
0.0
 10
120.890909
 20
237.961887
 30
0.0
 10
120.890909
 20
234.965756
 30
0.0
 10
124.633008
 20
234.965756
 30
0.0
  0
SPLINE
  5
1b8
100
AcDbEntity
  8
text
 62
1
100
AcDbSpline
 70
8
 71
3
 72
8
 73
4
 74
0
 40
0
 40
0
 40
0
 40
0
 40
1
 40
1
 40
1
 40
1
 10
195.240173
 20
271.561229
 30
0.0
 10
195.240173
 20
271.428686
 30
0.0
 10
195.121982
 20
271.321238
 30
0.0
 10
194.976184
 20
271.321238
 30
0.0
  0
SPLINE
  5
1b9
100
AcDbEntity
  8
text
 62
1
100
AcDbSpline
 70
8
 71
3
 72
8
 73
4
 74
0
 40
0
 40
0
 40
0
 40
0
 40
1
 40
1
 40
1
 40
1
 10
194.976184
 20
271.321238
 30
0.0
 10
194.830387
 20
271.321238
 30
0.0
 10
194.712195
 20
271.428686
 30
0.0
 10
194.712195
 20
271.561229
 30
0.0
  0
SPLINE
  5
1ba
100
AcDbEntity
  8
text
 62
1
100
AcDbSpline
 70
8
 71
3
 72
8
 73
4
 74
0
 40
0
 40
0
 40
0
 40
0
 40
1
 40
1
 40
1
 40
1
 10
194.712195
 20
271.561229
 30
0.0
 10
194.712195
 20
271.693772
 30
0.0
 10
194.830387
 20
271.801219
 30
0.0
 10
194.976184
 20
271.801219
 30
0.0
  0
SPLINE
  5
1bb
100
AcDbEntity
  8
text
 62
1
100
AcDbSpline
 70
8
 71
3
 72
8
 73
4
 74
0
 40
0
 40
0
 40
0
 40
0
 40
1
 40
1
 40
1
 40
1
 10
194.976184
 20
271.801219
 30
0.0
 10
195.121982
 20
271.801219
 30
0.0
 10
195.240174
 20
271.693772
 30
0.0
 10
195.240173
 20
271.561229
 30
0.0
  0
LWPOLYLINE
  5
1bc
100
AcDbEntity
  8
text
 62
7
100
AcDbPolyline
 90
6
 70
0
 10
176.363275
 20
146.622033
 30
0.0
 10
160.886966
 20
146.622033
 30
0.0
 10
160.886966
 20
274.778799
 30
0.0
 10
203.739693
 20
274.778799
 30
0.0
 10
203.739693
 20
146.622033
 30
0.0
 10
160.886966
 20
146.622033
 30
0.0
  0
SPLINE
  5
1bd
100
AcDbEntity
  8
text
 62
1
100
AcDbSpline
 70
8
 71
3
 72
8
 73
4
 74
0
 40
0
 40
0
 40
0
 40
0
 40
1
 40
1
 40
1
 40
1
 10
169.792178
 20
150.245896
 30
0.0
 10
169.792178
 20
150.201341
 30
0.0
 10
169.769422
 20
150.158610
 30
0.0
 10
169.728915
 20
150.127105
 30
0.0
  0
SPLINE
  5
1be
100
AcDbEntity
  8
text
 62
1
100
AcDbSpline
 70
8
 71
3
 72
8
 73
4
 74
0
 40
0
 40
0
 40
0
 40
0
 40
1
 40
1
 40
1
 40
1
 10
169.728915
 20
150.127105
 30
0.0
 10
169.688408
 20
150.095600
 30
0.0
 10
169.633469
 20
150.077901
 30
0.0
 10
169.576184
 20
150.077901
 30
0.0
  0
SPLINE
  5
1bf
100
AcDbEntity
  8
text
 62
1
100
AcDbSpline
 70
8
 71
3
 72
8
 73
4
 74
0
 40
0
 40
0
 40
0
 40
0
 40
1
 40
1
 40
1
 40
1
 10
169.576184
 20
150.077901
 30
0.0
 10
169.518900
 20
150.077901
 30
0.0
 10
169.463961
 20
150.095601
 30
0.0
 10
169.423455
 20
150.127106
 30
0.0
  0
SPLINE
  5
1c0
100
AcDbEntity
  8
text
 62
1
100
AcDbSpline
 70
8
 71
3
 72
8
 73
4
 74
0
 40
0
 40
0
 40
0
 40
0
 40
1
 40
1
 40
1
 40
1
 10
169.423455
 20
150.127106
 30
0.0
 10
169.382949
 20
150.158611
 30
0.0
 10
169.360194
 20
150.201341
 30
0.0
 10
169.360194
 20
150.245896
 30
0.0
  0
SPLINE
  5
1c1
100
AcDbEntity
  8
text
 62
1
100
AcDbSpline
 70
8
 71
3
 72
8
 73
4
 74
0
 40
0
 40
0
 40
0
 40
0
 40
1
 40
1
 40
1
 40
1
 10
169.360194
 20
150.245896
 30
0.0
 10
169.360194
 20
150.290450
 30
0.0
 10
169.382949
 20
150.333180
 30
0.0
 10
169.423455
 20
150.364686
 30
0.0
  0
SPLINE
  5
1c2
100
AcDbEntity
  8
text
 62
1
100
AcDbSpline
 70
8
 71
3
 72
8
 73
4
 74
0
 40
0
 40
0
 40
0
 40
0
 40
1
 40
1
 40
1
 40
1
 10
169.423455
 20
150.364686
 30
0.0
 10
169.463961
 20
150.396191
 30
0.0
 10
169.518900
 20
150.413890
 30
0.0
 10
169.576184
 20
150.413891
 30
0.0
  0
SPLINE
  5
1c3
100
AcDbEntity
  8
text
 62
1
100
AcDbSpline
 70
8
 71
3
 72
8
 73
4
 74
0
 40
0
 40
0
 40
0
 40
0
 40
1
 40
1
 40
1
 40
1
 10
169.576184
 20
150.413891
 30
0.0
 10
169.633469
 20
150.413891
 30
0.0
 10
169.688408
 20
150.396192
 30
0.0
 10
169.728915
 20
150.364687
 30
0.0
  0
SPLINE
  5
1c4
100
AcDbEntity
  8
text
 62
1
100
AcDbSpline
 70
8
 71
3
 72
8
 73
4
 74
0
 40
0
 40
0
 40
0
 40
0
 40
1
 40
1
 40
1
 40
1
 10
169.728915
 20
150.364687
 30
0.0
 10
169.769422
 20
150.333181
 30
0.0
 10
169.792178
 20
150.290451
 30
0.0
 10
169.792178
 20
150.245896
 30
0.0
  0
LWPOLYLINE
  5
1c5
100
AcDbEntity
  8
text
 62
1
100
AcDbPolyline
 90
2
 70
1
 10
195.240173
 20
271.561229
 30
0.0
 10
195.240173
 20
271.561229
 30
0.0
  0
SPLINE
  5
1c6
100
AcDbEntity
  8
text
 62
7
100
AcDbSpline
 70
8
 71
3
 72
8
 73
4
 74
0
 40
0
 40
0
 40
0
 40
0
 40
1
 40
1
 40
1
 40
1
 10
188.013340
 20
232.352848
 30
0.0
 10
188.013340
 20
232.295563
 30
0.0
 10
187.988055
 20
232.240625
 30
0.0
 10
187.943048
 20
232.200118
 30
0.0
  0
SPLINE
  5
1c7
100
AcDbEntity
  8
text
 62
7
100
AcDbSpline
 70
8
 71
3
 72
8
 73
4
 74
0
 40
0
 40
0
 40
0
 40
0
 40
1
 40
1
 40
1
 40
1
 10
187.943048
 20
232.200118
 30
0.0
 10
187.898041
 20
232.159612
 30
0.0
 10
187.836998
 20
232.136856
 30
0.0
 10
187.773348
 20
232.136856
 30
0.0
  0
SPLINE
  5
1c8
100
AcDbEntity
  8
text
 62
7
100
AcDbSpline
 70
8
 71
3
 72
8
 73
4
 74
0
 40
0
 40
0
 40
0
 40
0
 40
1
 40
1
 40
1
 40
1
 10
187.773348
 20
232.136856
 30
0.0
 10
187.709699
 20
232.136856
 30
0.0
 10
187.648656
 20
232.159612
 30
0.0
 10
187.603649
 20
232.200118
 30
0.0
  0
SPLINE
  5
1c9
100
AcDbEntity
  8
text
 62
7
100
AcDbSpline
 70
8
 71
3
 72
8
 73
4
 74
0
 40
0
 40
0
 40
0
 40
0
 40
1
 40
1
 40
1
 40
1
 10
187.603649
 20
232.200118
 30
0.0
 10
187.558642
 20
232.240625
 30
0.0
 10
187.533357
 20
232.295563
 30
0.0
 10
187.533357
 20
232.352848
 30
0.0
  0
SPLINE
  5
1ca
100
AcDbEntity
  8
text
 62
7
100
AcDbSpline
 70
8
 71
3
 72
8
 73
4
 74
0
 40
0
 40
0
 40
0
 40
0
 40
1
 40
1
 40
1
 40
1
 10
187.533357
 20
232.352848
 30
0.0
 10
187.533357
 20
232.410132
 30
0.0
 10
187.558642
 20
232.465071
 30
0.0
 10
187.603649
 20
232.505577
 30
0.0
  0
SPLINE
  5
1cb
100
AcDbEntity
  8
text
 62
7
100
AcDbSpline
 70
8
 71
3
 72
8
 73
4
 74
0
 40
0
 40
0
 40
0
 40
0
 40
1
 40
1
 40
1
 40
1
 10
187.603649
 20
232.505577
 30
0.0
 10
187.648656
 20
232.546083
 30
0.0
 10
187.709699
 20
232.568840
 30
0.0
 10
187.773348
 20
232.568839
 30
0.0
  0
SPLINE
  5
1cc
100
AcDbEntity
  8
text
 62
7
100
AcDbSpline
 70
8
 71
3
 72
8
 73
4
 74
0
 40
0
 40
0
 40
0
 40
0
 40
1
 40
1
 40
1
 40
1
 10
187.773348
 20
232.568839
 30
0.0
 10
187.836998
 20
232.568840
 30
0.0
 10
187.898041
 20
232.546083
 30
0.0
 10
187.943048
 20
232.505577
 30
0.0
  0
SPLINE
  5
1cd
100
AcDbEntity
  8
text
 62
7
100
AcDbSpline
 70
8
 71
3
 72
8
 73
4
 74
0
 40
0
 40
0
 40
0
 40
0
 40
1
 40
1
 40
1
 40
1
 10
187.943048
 20
232.505577
 30
0.0
 10
187.988055
 20
232.465071
 30
0.0
 10
188.013340
 20
232.410132
 30
0.0
 10
188.013340
 20
232.352848
 30
0.0
  0
LWPOLYLINE
  5
1ce
100
AcDbEntity
  8
text
 62
1
100
AcDbPolyline
 90
2
 70
1
 10
169.792178
 20
150.245896
 30
0.0
 10
169.792178
 20
150.245896
 30
0.0
  0
SPLINE
  5
1cf
100
AcDbEntity
  8
text
 62
1
100
AcDbSpline
 70
8
 71
3
 72
8
 73
4
 74
0
 40
0
 40
0
 40
0
 40
0
 40
1
 40
1
 40
1
 40
1
 10
176.996519
 20
254.041159
 30
0.0
 10
176.996519
 20
255.812104
 30
0.0
 10
178.177619
 20
256.992851
 30
0.0
 10
179.948563
 20
256.992851
 30
0.0
  0
SPLINE
  5
1d0
100
AcDbEntity
  8
text
 62
1
100
AcDbSpline
 70
8
 71
3
 72
8
 73
4
 74
0
 40
0
 40
0
 40
0
 40
0
 40
1
 40
1
 40
1
 40
1
 10
179.948563
 20
256.992851
 30
0.0
 10
181.720566
 20
256.992851
 30
0.0
 10
182.900255
 20
255.812104
 30
0.0
 10
182.900255
 20
254.041159
 30
0.0
  0
SPLINE
  5
1d1
100
AcDbEntity
  8
text
 62
1
100
AcDbSpline
 70
8
 71
3
 72
8
 73
4
 74
0
 40
0
 40
0
 40
0
 40
0
 40
1
 40
1
 40
1
 40
1
 10
182.900255
 20
254.041159
 30
0.0
 10
182.900255
 20
252.270568
 30
0.0
 10
181.720566
 20
251.089468
 30
0.0
 10
179.948563
 20
251.089468
 30
0.0
  0
SPLINE
  5
1d2
100
AcDbEntity
  8
text
 62
1
100
AcDbSpline
 70
8
 71
3
 72
8
 73
4
 74
0
 40
0
 40
0
 40
0
 40
0
 40
1
 40
1
 40
1
 40
1
 10
179.948563
 20
251.089468
 30
0.0
 10
178.177619
 20
251.089468
 30
0.0
 10
176.996519
 20
252.270568
 30
0.0
 10
176.996519
 20
254.041159
 30
0.0
  0
LWPOLYLINE
  5
1d3
100
AcDbEntity
  8
text
 62
7
100
AcDbPolyline
 90
2
 70
1
 10
188.013340
 20
232.352848
 30
0.0
 10
188.013340
 20
232.352848
 30
0.0
  0
LWPOLYLINE
  5
1d4
100
AcDbEntity
  8
text
 62
1
100
AcDbPolyline
 90
2
 70
0
 10
178.768875
 20
254.041159
 30
0.0
 10
181.129311
 20
254.041159
 30
0.0
  0
SPLINE
  5
1d5
100
AcDbEntity
  8
text
 62
1
100
AcDbSpline
 70
8
 71
3
 72
8
 73
4
 74
0
 40
0
 40
0
 40
0
 40
0
 40
1
 40
1
 40
1
 40
1
 10
177.047319
 20
165.002845
 30
0.0
 10
177.047319
 20
166.773789
 30
0.0
 10
178.228419
 20
167.954537
 30
0.0
 10
179.999363
 20
167.954537
 30
0.0
  0
SPLINE
  5
1d6
100
AcDbEntity
  8
text
 62
1
100
AcDbSpline
 70
8
 71
3
 72
8
 73
4
 74
0
 40
0
 40
0
 40
0
 40
0
 40
1
 40
1
 40
1
 40
1
 10
179.999363
 20
167.954537
 30
0.0
 10
181.771366
 20
167.954537
 30
0.0
 10
182.951055
 20
166.773789
 30
0.0
 10
182.951055
 20
165.002845
 30
0.0
  0
SPLINE
  5
1d7
100
AcDbEntity
  8
text
 62
1
100
AcDbSpline
 70
8
 71
3
 72
8
 73
4
 74
0
 40
0
 40
0
 40
0
 40
0
 40
1
 40
1
 40
1
 40
1
 10
182.951055
 20
165.002845
 30
0.0
 10
182.951055
 20
163.232253
 30
0.0
 10
181.771366
 20
162.051153
 30
0.0
 10
179.999363
 20
162.051153
 30
0.0
  0
SPLINE
  5
1d8
100
AcDbEntity
  8
text
 62
1
100
AcDbSpline
 70
8
 71
3
 72
8
 73
4
 74
0
 40
0
 40
0
 40
0
 40
0
 40
1
 40
1
 40
1
 40
1
 10
179.999363
 20
162.051153
 30
0.0
 10
178.228419
 20
162.051153
 30
0.0
 10
177.047319
 20
163.232253
 30
0.0
 10
177.047319
 20
165.002845
 30
0.0
  0
LWPOLYLINE
  5
1d9
100
AcDbEntity
  8
text
 62
1
100
AcDbPolyline
 90
2
 70
0
 10
179.948563
 20
252.860412
 30
0.0
 10
179.948563
 20
255.222259
 30
0.0
  0
LWPOLYLINE
  5
1da
100
AcDbEntity
  8
text
 62
1
100
AcDbPolyline
 90
2
 70
0
 10
178.819675
 20
165.002845
 30
0.0
 10
181.180111
 20
165.002845
 30
0.0
  0
SPLINE
  5
1db
100
AcDbEntity
  8
text
 62
1
100
AcDbSpline
 70
8
 71
3
 72
8
 73
4
 74
0
 40
0
 40
0
 40
0
 40
0
 40
1
 40
1
 40
1
 40
1
 10
184.898741
 20
236.224445
 30
0.0
 10
184.898741
 20
237.995389
 30
0.0
 10
186.079841
 20
239.176137
 30
0.0
 10
187.850786
 20
239.176137
 30
0.0
  0
SPLINE
  5
1dc
100
AcDbEntity
  8
text
 62
1
100
AcDbSpline
 70
8
 71
3
 72
8
 73
4
 74
0
 40
0
 40
0
 40
0
 40
0
 40
1
 40
1
 40
1
 40
1
 10
187.850786
 20
239.176137
 30
0.0
 10
189.622788
 20
239.176137
 30
0.0
 10
190.802477
 20
237.995389
 30
0.0
 10
190.802477
 20
236.224445
 30
0.0
  0
SPLINE
  5
1dd
100
AcDbEntity
  8
text
 62
1
100
AcDbSpline
 70
8
 71
3
 72
8
 73
4
 74
0
 40
0
 40
0
 40
0
 40
0
 40
1
 40
1
 40
1
 40
1
 10
190.802477
 20
236.224445
 30
0.0
 10
190.802477
 20
234.453853
 30
0.0
 10
189.622788
 20
233.272753
 30
0.0
 10
187.850786
 20
233.272753
 30
0.0
  0
SPLINE
  5
1de
100
AcDbEntity
  8
text
 62
1
100
AcDbSpline
 70
8
 71
3
 72
8
 73
4
 74
0
 40
0
 40
0
 40
0
 40
0
 40
1
 40
1
 40
1
 40
1
 10
187.850786
 20
233.272753
 30
0.0
 10
186.079841
 20
233.272753
 30
0.0
 10
184.898741
 20
234.453853
 30
0.0
 10
184.898741
 20
236.224445
 30
0.0
  0
LWPOLYLINE
  5
1df
100
AcDbEntity
  8
text
 62
1
100
AcDbPolyline
 90
2
 70
0
 10
179.999363
 20
163.822098
 30
0.0
 10
179.999363
 20
166.183945
 30
0.0
  0
LWPOLYLINE
  5
1e0
100
AcDbEntity
  8
text
 62
1
100
AcDbPolyline
 90
2
 70
0
 10
186.671097
 20
236.224445
 30
0.0
 10
189.031533
 20
236.224445
 30
0.0
  0
SPLINE
  5
1e1
100
AcDbEntity
  8
text
 62
1
100
AcDbSpline
 70
8
 71
3
 72
8
 73
4
 74
0
 40
0
 40
0
 40
0
 40
0
 40
1
 40
1
 40
1
 40
1
 10
184.898741
 20
218.342845
 30
0.0
 10
184.898741
 20
220.113789
 30
0.0
 10
186.079841
 20
221.294537
 30
0.0
 10
187.850786
 20
221.294537
 30
0.0
  0
SPLINE
  5
1e2
100
AcDbEntity
  8
text
 62
1
100
AcDbSpline
 70
8
 71
3
 72
8
 73
4
 74
0
 40
0
 40
0
 40
0
 40
0
 40
1
 40
1
 40
1
 40
1
 10
187.850786
 20
221.294537
 30
0.0
 10
189.622788
 20
221.294537
 30
0.0
 10
190.802477
 20
220.113789
 30
0.0
 10
190.802477
 20
218.342845
 30
0.0
  0
SPLINE
  5
1e3
100
AcDbEntity
  8
text
 62
1
100
AcDbSpline
 70
8
 71
3
 72
8
 73
4
 74
0
 40
0
 40
0
 40
0
 40
0
 40
1
 40
1
 40
1
 40
1
 10
190.802477
 20
218.342845
 30
0.0
 10
190.802477
 20
216.572253
 30
0.0
 10
189.622788
 20
215.391153
 30
0.0
 10
187.850786
 20
215.391153
 30
0.0
  0
SPLINE
  5
1e4
100
AcDbEntity
  8
text
 62
1
100
AcDbSpline
 70
8
 71
3
 72
8
 73
4
 74
0
 40
0
 40
0
 40
0
 40
0
 40
1
 40
1
 40
1
 40
1
 10
187.850786
 20
215.391153
 30
0.0
 10
186.079841
 20
215.391153
 30
0.0
 10
184.898741
 20
216.572253
 30
0.0
 10
184.898741
 20
218.342845
 30
0.0
  0
LWPOLYLINE
  5
1e5
100
AcDbEntity
  8
text
 62
1
100
AcDbPolyline
 90
2
 70
0
 10
187.850786
 20
235.043698
 30
0.0
 10
187.850786
 20
237.405545
 30
0.0
  0
LWPOLYLINE
  5
1e6
100
AcDbEntity
  8
text
 62
1
100
AcDbPolyline
 90
2
 70
0
 10
186.671097
 20
218.342845
 30
0.0
 10
189.031533
 20
218.342845
 30
0.0
  0
SPLINE
  5
1e7
100
AcDbEntity
  8
text
 62
1
100
AcDbSpline
 70
8
 71
3
 72
8
 73
4
 74
0
 40
0
 40
0
 40
0
 40
0
 40
1
 40
1
 40
1
 40
1
 10
184.898741
 20
200.639045
 30
0.0
 10
184.898741
 20
202.409989
 30
0.0
 10
186.079841
 20
203.590737
 30
0.0
 10
187.850786
 20
203.590737
 30
0.0
  0
SPLINE
  5
1e8
100
AcDbEntity
  8
text
 62
1
100
AcDbSpline
 70
8
 71
3
 72
8
 73
4
 74
0
 40
0
 40
0
 40
0
 40
0
 40
1
 40
1
 40
1
 40
1
 10
187.850786
 20
203.590737
 30
0.0
 10
189.622788
 20
203.590737
 30
0.0
 10
190.802477
 20
202.409989
 30
0.0
 10
190.802477
 20
200.639045
 30
0.0
  0
SPLINE
  5
1e9
100
AcDbEntity
  8
text
 62
1
100
AcDbSpline
 70
8
 71
3
 72
8
 73
4
 74
0
 40
0
 40
0
 40
0
 40
0
 40
1
 40
1
 40
1
 40
1
 10
190.802477
 20
200.639045
 30
0.0
 10
190.802477
 20
198.868453
 30
0.0
 10
189.622788
 20
197.687353
 30
0.0
 10
187.850786
 20
197.687353
 30
0.0
  0
SPLINE
  5
1ea
100
AcDbEntity
  8
text
 62
1
100
AcDbSpline
 70
8
 71
3
 72
8
 73
4
 74
0
 40
0
 40
0
 40
0
 40
0
 40
1
 40
1
 40
1
 40
1
 10
187.850786
 20
197.687353
 30
0.0
 10
186.079841
 20
197.687353
 30
0.0
 10
184.898741
 20
198.868453
 30
0.0
 10
184.898741
 20
200.639045
 30
0.0
  0
LWPOLYLINE
  5
1eb
100
AcDbEntity
  8
text
 62
1
100
AcDbPolyline
 90
2
 70
0
 10
187.850786
 20
217.162098
 30
0.0
 10
187.850786
 20
219.523945
 30
0.0
  0
LWPOLYLINE
  5
1ec
100
AcDbEntity
  8
text
 62
1
100
AcDbPolyline
 90
2
 70
0
 10
186.671097
 20
200.639045
 30
0.0
 10
189.031533
 20
200.639045
 30
0.0
  0
SPLINE
  5
1ed
100
AcDbEntity
  8
text
 62
1
100
AcDbSpline
 70
8
 71
3
 72
8
 73
4
 74
0
 40
0
 40
0
 40
0
 40
0
 40
1
 40
1
 40
1
 40
1
 10
184.898741
 20
182.859045
 30
0.0
 10
184.898741
 20
184.629989
 30
0.0
 10
186.079841
 20
185.810737
 30
0.0
 10
187.850786
 20
185.810737
 30
0.0
  0
SPLINE
  5
1ee
100
AcDbEntity
  8
text
 62
1
100
AcDbSpline
 70
8
 71
3
 72
8
 73
4
 74
0
 40
0
 40
0
 40
0
 40
0
 40
1
 40
1
 40
1
 40
1
 10
187.850786
 20
185.810737
 30
0.0
 10
189.622788
 20
185.810737
 30
0.0
 10
190.802477
 20
184.629989
 30
0.0
 10
190.802477
 20
182.859045
 30
0.0
  0
SPLINE
  5
1ef
100
AcDbEntity
  8
text
 62
1
100
AcDbSpline
 70
8
 71
3
 72
8
 73
4
 74
0
 40
0
 40
0
 40
0
 40
0
 40
1
 40
1
 40
1
 40
1
 10
190.802477
 20
182.859045
 30
0.0
 10
190.802477
 20
181.088453
 30
0.0
 10
189.622788
 20
179.907353
 30
0.0
 10
187.850786
 20
179.907353
 30
0.0
  0
SPLINE
  5
1f0
100
AcDbEntity
  8
text
 62
1
100
AcDbSpline
 70
8
 71
3
 72
8
 73
4
 74
0
 40
0
 40
0
 40
0
 40
0
 40
1
 40
1
 40
1
 40
1
 10
187.850786
 20
179.907353
 30
0.0
 10
186.079841
 20
179.907353
 30
0.0
 10
184.898741
 20
181.088453
 30
0.0
 10
184.898741
 20
182.859045
 30
0.0
  0
LWPOLYLINE
  5
1f1
100
AcDbEntity
  8
text
 62
1
100
AcDbPolyline
 90
2
 70
0
 10
187.850786
 20
199.458298
 30
0.0
 10
187.850786
 20
201.820145
 30
0.0
  0
LWPOLYLINE
  5
1f2
100
AcDbEntity
  8
text
 62
1
100
AcDbPolyline
 90
2
 70
0
 10
186.671097
 20
182.859045
 30
0.0
 10
189.031533
 20
182.859045
 30
0.0
  0
LWPOLYLINE
  5
1f3
100
AcDbEntity
  8
text
 62
1
100
AcDbPolyline
 90
2
 70
0
 10
187.850786
 20
181.678298
 30
0.0
 10
187.850786
 20
184.040145
 30
0.0
  0
LWPOLYLINE
  5
1f4
100
AcDbEntity
  8
text
 62
1
100
AcDbPolyline
 90
6
 70
0
 10
164.414716
 20
234.966933
 30
0.0
 10
168.409488
 20
234.966933
 30
0.0
 10
168.409488
 20
237.961887
 30
0.0
 10
171.690909
 20
237.961887
 30
0.0
 10
171.690909
 20
234.965756
 30
0.0
 10
175.433008
 20
234.965756
 30
0.0
  0
SPLINE
  5
1f5
100
AcDbEntity
  8
text
 62
1
100
AcDbSpline
 70
8
 71
3
 72
8
 73
4
 74
0
 40
0
 40
0
 40
0
 40
0
 40
1
 40
1
 40
1
 40
1
 10
42.840173
 20
139.481229
 30
0.0
 10
42.840173
 20
139.348686
 30
0.0
 10
42.721982
 20
139.241238
 30
0.0
 10
42.576184
 20
139.241238
 30
0.0
  0
SPLINE
  5
1f6
100
AcDbEntity
  8
text
 62
1
100
AcDbSpline
 70
8
 71
3
 72
8
 73
4
 74
0
 40
0
 40
0
 40
0
 40
0
 40
1
 40
1
 40
1
 40
1
 10
42.576184
 20
139.241238
 30
0.0
 10
42.430387
 20
139.241238
 30
0.0
 10
42.312195
 20
139.348686
 30
0.0
 10
42.312195
 20
139.481229
 30
0.0
  0
SPLINE
  5
1f7
100
AcDbEntity
  8
text
 62
1
100
AcDbSpline
 70
8
 71
3
 72
8
 73
4
 74
0
 40
0
 40
0
 40
0
 40
0
 40
1
 40
1
 40
1
 40
1
 10
42.312195
 20
139.481229
 30
0.0
 10
42.312195
 20
139.613772
 30
0.0
 10
42.430387
 20
139.721219
 30
0.0
 10
42.576184
 20
139.721219
 30
0.0
  0
SPLINE
  5
1f8
100
AcDbEntity
  8
text
 62
1
100
AcDbSpline
 70
8
 71
3
 72
8
 73
4
 74
0
 40
0
 40
0
 40
0
 40
0
 40
1
 40
1
 40
1
 40
1
 10
42.576184
 20
139.721219
 30
0.0
 10
42.721982
 20
139.721219
 30
0.0
 10
42.840174
 20
139.613772
 30
0.0
 10
42.840173
 20
139.481229
 30
0.0
  0
LWPOLYLINE
  5
1f9
100
AcDbEntity
  8
text
 62
7
100
AcDbPolyline
 90
6
 70
0
 10
23.963275
 20
14.542033
 30
0.0
 10
8.486966
 20
14.542033
 30
0.0
 10
8.486966
 20
142.698799
 30
0.0
 10
51.339693
 20
142.698799
 30
0.0
 10
51.339693
 20
14.542033
 30
0.0
 10
8.486966
 20
14.542033
 30
0.0
  0
SPLINE
  5
1fa
100
AcDbEntity
  8
text
 62
1
100
AcDbSpline
 70
8
 71
3
 72
8
 73
4
 74
0
 40
0
 40
0
 40
0
 40
0
 40
1
 40
1
 40
1
 40
1
 10
17.392178
 20
18.165896
 30
0.0
 10
17.392178
 20
18.121341
 30
0.0
 10
17.369422
 20
18.078610
 30
0.0
 10
17.328915
 20
18.047105
 30
0.0
  0
SPLINE
  5
1fb
100
AcDbEntity
  8
text
 62
1
100
AcDbSpline
 70
8
 71
3
 72
8
 73
4
 74
0
 40
0
 40
0
 40
0
 40
0
 40
1
 40
1
 40
1
 40
1
 10
17.328915
 20
18.047105
 30
0.0
 10
17.288408
 20
18.015600
 30
0.0
 10
17.233469
 20
17.997901
 30
0.0
 10
17.176184
 20
17.997901
 30
0.0
  0
SPLINE
  5
1fc
100
AcDbEntity
  8
text
 62
1
100
AcDbSpline
 70
8
 71
3
 72
8
 73
4
 74
0
 40
0
 40
0
 40
0
 40
0
 40
1
 40
1
 40
1
 40
1
 10
17.176184
 20
17.997901
 30
0.0
 10
17.118900
 20
17.997901
 30
0.0
 10
17.063961
 20
18.015601
 30
0.0
 10
17.023455
 20
18.047106
 30
0.0
  0
SPLINE
  5
1fd
100
AcDbEntity
  8
text
 62
1
100
AcDbSpline
 70
8
 71
3
 72
8
 73
4
 74
0
 40
0
 40
0
 40
0
 40
0
 40
1
 40
1
 40
1
 40
1
 10
17.023455
 20
18.047106
 30
0.0
 10
16.982949
 20
18.078611
 30
0.0
 10
16.960194
 20
18.121341
 30
0.0
 10
16.960194
 20
18.165896
 30
0.0
  0
SPLINE
  5
1fe
100
AcDbEntity
  8
text
 62
1
100
AcDbSpline
 70
8
 71
3
 72
8
 73
4
 74
0
 40
0
 40
0
 40
0
 40
0
 40
1
 40
1
 40
1
 40
1
 10
16.960194
 20
18.165896
 30
0.0
 10
16.960194
 20
18.210450
 30
0.0
 10
16.982949
 20
18.253180
 30
0.0
 10
17.023455
 20
18.284686
 30
0.0
  0
SPLINE
  5
1ff
100
AcDbEntity
  8
text
 62
1
100
AcDbSpline
 70
8
 71
3
 72
8
 73
4
 74
0
 40
0
 40
0
 40
0
 40
0
 40
1
 40
1
 40
1
 40
1
 10
17.023455
 20
18.284686
 30
0.0
 10
17.063961
 20
18.316191
 30
0.0
 10
17.118900
 20
18.333890
 30
0.0
 10
17.176184
 20
18.333891
 30
0.0
  0
SPLINE
  5
200
100
AcDbEntity
  8
text
 62
1
100
AcDbSpline
 70
8
 71
3
 72
8
 73
4
 74
0
 40
0
 40
0
 40
0
 40
0
 40
1
 40
1
 40
1
 40
1
 10
17.176184
 20
18.333891
 30
0.0
 10
17.233469
 20
18.333891
 30
0.0
 10
17.288408
 20
18.316192
 30
0.0
 10
17.328915
 20
18.284687
 30
0.0
  0
SPLINE
  5
201
100
AcDbEntity
  8
text
 62
1
100
AcDbSpline
 70
8
 71
3
 72
8
 73
4
 74
0
 40
0
 40
0
 40
0
 40
0
 40
1
 40
1
 40
1
 40
1
 10
17.328915
 20
18.284687
 30
0.0
 10
17.369422
 20
18.253181
 30
0.0
 10
17.392178
 20
18.210451
 30
0.0
 10
17.392178
 20
18.165896
 30
0.0
  0
LWPOLYLINE
  5
202
100
AcDbEntity
  8
text
 62
1
100
AcDbPolyline
 90
2
 70
1
 10
42.840173
 20
139.481229
 30
0.0
 10
42.840173
 20
139.481229
 30
0.0
  0
SPLINE
  5
203
100
AcDbEntity
  8
text
 62
7
100
AcDbSpline
 70
8
 71
3
 72
8
 73
4
 74
0
 40
0
 40
0
 40
0
 40
0
 40
1
 40
1
 40
1
 40
1
 10
35.613340
 20
100.272848
 30
0.0
 10
35.613340
 20
100.215563
 30
0.0
 10
35.588055
 20
100.160625
 30
0.0
 10
35.543048
 20
100.120118
 30
0.0
  0
SPLINE
  5
204
100
AcDbEntity
  8
text
 62
7
100
AcDbSpline
 70
8
 71
3
 72
8
 73
4
 74
0
 40
0
 40
0
 40
0
 40
0
 40
1
 40
1
 40
1
 40
1
 10
35.543048
 20
100.120118
 30
0.0
 10
35.498041
 20
100.079612
 30
0.0
 10
35.436998
 20
100.056856
 30
0.0
 10
35.373348
 20
100.056856
 30
0.0
  0
SPLINE
  5
205
100
AcDbEntity
  8
text
 62
7
100
AcDbSpline
 70
8
 71
3
 72
8
 73
4
 74
0
 40
0
 40
0
 40
0
 40
0
 40
1
 40
1
 40
1
 40
1
 10
35.373348
 20
100.056856
 30
0.0
 10
35.309699
 20
100.056856
 30
0.0
 10
35.248656
 20
100.079612
 30
0.0
 10
35.203649
 20
100.120118
 30
0.0
  0
SPLINE
  5
206
100
AcDbEntity
  8
text
 62
7
100
AcDbSpline
 70
8
 71
3
 72
8
 73
4
 74
0
 40
0
 40
0
 40
0
 40
0
 40
1
 40
1
 40
1
 40
1
 10
35.203649
 20
100.120118
 30
0.0
 10
35.158642
 20
100.160625
 30
0.0
 10
35.133357
 20
100.215563
 30
0.0
 10
35.133357
 20
100.272848
 30
0.0
  0
SPLINE
  5
207
100
AcDbEntity
  8
text
 62
7
100
AcDbSpline
 70
8
 71
3
 72
8
 73
4
 74
0
 40
0
 40
0
 40
0
 40
0
 40
1
 40
1
 40
1
 40
1
 10
35.133357
 20
100.272848
 30
0.0
 10
35.133357
 20
100.330132
 30
0.0
 10
35.158642
 20
100.385071
 30
0.0
 10
35.203649
 20
100.425577
 30
0.0
  0
SPLINE
  5
208
100
AcDbEntity
  8
text
 62
7
100
AcDbSpline
 70
8
 71
3
 72
8
 73
4
 74
0
 40
0
 40
0
 40
0
 40
0
 40
1
 40
1
 40
1
 40
1
 10
35.203649
 20
100.425577
 30
0.0
 10
35.248656
 20
100.466083
 30
0.0
 10
35.309699
 20
100.488840
 30
0.0
 10
35.373348
 20
100.488839
 30
0.0
  0
SPLINE
  5
209
100
AcDbEntity
  8
text
 62
7
100
AcDbSpline
 70
8
 71
3
 72
8
 73
4
 74
0
 40
0
 40
0
 40
0
 40
0
 40
1
 40
1
 40
1
 40
1
 10
35.373348
 20
100.488839
 30
0.0
 10
35.436998
 20
100.488840
 30
0.0
 10
35.498041
 20
100.466083
 30
0.0
 10
35.543048
 20
100.425577
 30
0.0
  0
SPLINE
  5
20a
100
AcDbEntity
  8
text
 62
7
100
AcDbSpline
 70
8
 71
3
 72
8
 73
4
 74
0
 40
0
 40
0
 40
0
 40
0
 40
1
 40
1
 40
1
 40
1
 10
35.543048
 20
100.425577
 30
0.0
 10
35.588055
 20
100.385071
 30
0.0
 10
35.613340
 20
100.330132
 30
0.0
 10
35.613340
 20
100.272848
 30
0.0
  0
LWPOLYLINE
  5
20b
100
AcDbEntity
  8
text
 62
1
100
AcDbPolyline
 90
2
 70
1
 10
17.392178
 20
18.165896
 30
0.0
 10
17.392178
 20
18.165896
 30
0.0
  0
SPLINE
  5
20c
100
AcDbEntity
  8
text
 62
1
100
AcDbSpline
 70
8
 71
3
 72
8
 73
4
 74
0
 40
0
 40
0
 40
0
 40
0
 40
1
 40
1
 40
1
 40
1
 10
24.596519
 20
121.961159
 30
0.0
 10
24.596519
 20
123.732104
 30
0.0
 10
25.777619
 20
124.912851
 30
0.0
 10
27.548563
 20
124.912851
 30
0.0
  0
SPLINE
  5
20d
100
AcDbEntity
  8
text
 62
1
100
AcDbSpline
 70
8
 71
3
 72
8
 73
4
 74
0
 40
0
 40
0
 40
0
 40
0
 40
1
 40
1
 40
1
 40
1
 10
27.548563
 20
124.912851
 30
0.0
 10
29.320566
 20
124.912851
 30
0.0
 10
30.500255
 20
123.732104
 30
0.0
 10
30.500255
 20
121.961159
 30
0.0
  0
SPLINE
  5
20e
100
AcDbEntity
  8
text
 62
1
100
AcDbSpline
 70
8
 71
3
 72
8
 73
4
 74
0
 40
0
 40
0
 40
0
 40
0
 40
1
 40
1
 40
1
 40
1
 10
30.500255
 20
121.961159
 30
0.0
 10
30.500255
 20
120.190568
 30
0.0
 10
29.320566
 20
119.009468
 30
0.0
 10
27.548563
 20
119.009468
 30
0.0
  0
SPLINE
  5
20f
100
AcDbEntity
  8
text
 62
1
100
AcDbSpline
 70
8
 71
3
 72
8
 73
4
 74
0
 40
0
 40
0
 40
0
 40
0
 40
1
 40
1
 40
1
 40
1
 10
27.548563
 20
119.009468
 30
0.0
 10
25.777619
 20
119.009468
 30
0.0
 10
24.596519
 20
120.190568
 30
0.0
 10
24.596519
 20
121.961159
 30
0.0
  0
LWPOLYLINE
  5
210
100
AcDbEntity
  8
text
 62
7
100
AcDbPolyline
 90
2
 70
1
 10
35.613340
 20
100.272848
 30
0.0
 10
35.613340
 20
100.272848
 30
0.0
  0
LWPOLYLINE
  5
211
100
AcDbEntity
  8
text
 62
1
100
AcDbPolyline
 90
2
 70
0
 10
26.368875
 20
121.961159
 30
0.0
 10
28.729311
 20
121.961159
 30
0.0
  0
SPLINE
  5
212
100
AcDbEntity
  8
text
 62
1
100
AcDbSpline
 70
8
 71
3
 72
8
 73
4
 74
0
 40
0
 40
0
 40
0
 40
0
 40
1
 40
1
 40
1
 40
1
 10
24.647319
 20
32.922845
 30
0.0
 10
24.647319
 20
34.693789
 30
0.0
 10
25.828419
 20
35.874537
 30
0.0
 10
27.599363
 20
35.874537
 30
0.0
  0
SPLINE
  5
213
100
AcDbEntity
  8
text
 62
1
100
AcDbSpline
 70
8
 71
3
 72
8
 73
4
 74
0
 40
0
 40
0
 40
0
 40
0
 40
1
 40
1
 40
1
 40
1
 10
27.599363
 20
35.874537
 30
0.0
 10
29.371366
 20
35.874537
 30
0.0
 10
30.551055
 20
34.693789
 30
0.0
 10
30.551055
 20
32.922845
 30
0.0
  0
SPLINE
  5
214
100
AcDbEntity
  8
text
 62
1
100
AcDbSpline
 70
8
 71
3
 72
8
 73
4
 74
0
 40
0
 40
0
 40
0
 40
0
 40
1
 40
1
 40
1
 40
1
 10
30.551055
 20
32.922845
 30
0.0
 10
30.551055
 20
31.152253
 30
0.0
 10
29.371366
 20
29.971153
 30
0.0
 10
27.599363
 20
29.971153
 30
0.0
  0
SPLINE
  5
215
100
AcDbEntity
  8
text
 62
1
100
AcDbSpline
 70
8
 71
3
 72
8
 73
4
 74
0
 40
0
 40
0
 40
0
 40
0
 40
1
 40
1
 40
1
 40
1
 10
27.599363
 20
29.971153
 30
0.0
 10
25.828419
 20
29.971153
 30
0.0
 10
24.647319
 20
31.152253
 30
0.0
 10
24.647319
 20
32.922845
 30
0.0
  0
LWPOLYLINE
  5
216
100
AcDbEntity
  8
text
 62
1
100
AcDbPolyline
 90
2
 70
0
 10
27.548563
 20
120.780412
 30
0.0
 10
27.548563
 20
123.142259
 30
0.0
  0
LWPOLYLINE
  5
217
100
AcDbEntity
  8
text
 62
1
100
AcDbPolyline
 90
2
 70
0
 10
26.419675
 20
32.922845
 30
0.0
 10
28.780111
 20
32.922845
 30
0.0
  0
SPLINE
  5
218
100
AcDbEntity
  8
text
 62
1
100
AcDbSpline
 70
8
 71
3
 72
8
 73
4
 74
0
 40
0
 40
0
 40
0
 40
0
 40
1
 40
1
 40
1
 40
1
 10
32.498741
 20
104.144445
 30
0.0
 10
32.498741
 20
105.915389
 30
0.0
 10
33.679841
 20
107.096137
 30
0.0
 10
35.450786
 20
107.096137
 30
0.0
  0
SPLINE
  5
219
100
AcDbEntity
  8
text
 62
1
100
AcDbSpline
 70
8
 71
3
 72
8
 73
4
 74
0
 40
0
 40
0
 40
0
 40
0
 40
1
 40
1
 40
1
 40
1
 10
35.450786
 20
107.096137
 30
0.0
 10
37.222788
 20
107.096137
 30
0.0
 10
38.402477
 20
105.915389
 30
0.0
 10
38.402477
 20
104.144445
 30
0.0
  0
SPLINE
  5
21a
100
AcDbEntity
  8
text
 62
1
100
AcDbSpline
 70
8
 71
3
 72
8
 73
4
 74
0
 40
0
 40
0
 40
0
 40
0
 40
1
 40
1
 40
1
 40
1
 10
38.402477
 20
104.144445
 30
0.0
 10
38.402477
 20
102.373853
 30
0.0
 10
37.222788
 20
101.192753
 30
0.0
 10
35.450786
 20
101.192753
 30
0.0
  0
SPLINE
  5
21b
100
AcDbEntity
  8
text
 62
1
100
AcDbSpline
 70
8
 71
3
 72
8
 73
4
 74
0
 40
0
 40
0
 40
0
 40
0
 40
1
 40
1
 40
1
 40
1
 10
35.450786
 20
101.192753
 30
0.0
 10
33.679841
 20
101.192753
 30
0.0
 10
32.498741
 20
102.373853
 30
0.0
 10
32.498741
 20
104.144445
 30
0.0
  0
LWPOLYLINE
  5
21c
100
AcDbEntity
  8
text
 62
1
100
AcDbPolyline
 90
2
 70
0
 10
27.599363
 20
31.742098
 30
0.0
 10
27.599363
 20
34.103945
 30
0.0
  0
LWPOLYLINE
  5
21d
100
AcDbEntity
  8
text
 62
1
100
AcDbPolyline
 90
2
 70
0
 10
34.271097
 20
104.144445
 30
0.0
 10
36.631533
 20
104.144445
 30
0.0
  0
SPLINE
  5
21e
100
AcDbEntity
  8
text
 62
1
100
AcDbSpline
 70
8
 71
3
 72
8
 73
4
 74
0
 40
0
 40
0
 40
0
 40
0
 40
1
 40
1
 40
1
 40
1
 10
32.498741
 20
86.262845
 30
0.0
 10
32.498741
 20
88.033789
 30
0.0
 10
33.679841
 20
89.214537
 30
0.0
 10
35.450786
 20
89.214537
 30
0.0
  0
SPLINE
  5
21f
100
AcDbEntity
  8
text
 62
1
100
AcDbSpline
 70
8
 71
3
 72
8
 73
4
 74
0
 40
0
 40
0
 40
0
 40
0
 40
1
 40
1
 40
1
 40
1
 10
35.450786
 20
89.214537
 30
0.0
 10
37.222788
 20
89.214537
 30
0.0
 10
38.402477
 20
88.033789
 30
0.0
 10
38.402477
 20
86.262845
 30
0.0
  0
SPLINE
  5
220
100
AcDbEntity
  8
text
 62
1
100
AcDbSpline
 70
8
 71
3
 72
8
 73
4
 74
0
 40
0
 40
0
 40
0
 40
0
 40
1
 40
1
 40
1
 40
1
 10
38.402477
 20
86.262845
 30
0.0
 10
38.402477
 20
84.492253
 30
0.0
 10
37.222788
 20
83.311153
 30
0.0
 10
35.450786
 20
83.311153
 30
0.0
  0
SPLINE
  5
221
100
AcDbEntity
  8
text
 62
1
100
AcDbSpline
 70
8
 71
3
 72
8
 73
4
 74
0
 40
0
 40
0
 40
0
 40
0
 40
1
 40
1
 40
1
 40
1
 10
35.450786
 20
83.311153
 30
0.0
 10
33.679841
 20
83.311153
 30
0.0
 10
32.498741
 20
84.492253
 30
0.0
 10
32.498741
 20
86.262845
 30
0.0
  0
LWPOLYLINE
  5
222
100
AcDbEntity
  8
text
 62
1
100
AcDbPolyline
 90
2
 70
0
 10
35.450786
 20
102.963698
 30
0.0
 10
35.450786
 20
105.325545
 30
0.0
  0
LWPOLYLINE
  5
223
100
AcDbEntity
  8
text
 62
1
100
AcDbPolyline
 90
2
 70
0
 10
34.271097
 20
86.262845
 30
0.0
 10
36.631533
 20
86.262845
 30
0.0
  0
SPLINE
  5
224
100
AcDbEntity
  8
text
 62
1
100
AcDbSpline
 70
8
 71
3
 72
8
 73
4
 74
0
 40
0
 40
0
 40
0
 40
0
 40
1
 40
1
 40
1
 40
1
 10
32.498741
 20
68.559045
 30
0.0
 10
32.498741
 20
70.329989
 30
0.0
 10
33.679841
 20
71.510737
 30
0.0
 10
35.450786
 20
71.510737
 30
0.0
  0
SPLINE
  5
225
100
AcDbEntity
  8
text
 62
1
100
AcDbSpline
 70
8
 71
3
 72
8
 73
4
 74
0
 40
0
 40
0
 40
0
 40
0
 40
1
 40
1
 40
1
 40
1
 10
35.450786
 20
71.510737
 30
0.0
 10
37.222788
 20
71.510737
 30
0.0
 10
38.402477
 20
70.329989
 30
0.0
 10
38.402477
 20
68.559045
 30
0.0
  0
SPLINE
  5
226
100
AcDbEntity
  8
text
 62
1
100
AcDbSpline
 70
8
 71
3
 72
8
 73
4
 74
0
 40
0
 40
0
 40
0
 40
0
 40
1
 40
1
 40
1
 40
1
 10
38.402477
 20
68.559045
 30
0.0
 10
38.402477
 20
66.788453
 30
0.0
 10
37.222788
 20
65.607353
 30
0.0
 10
35.450786
 20
65.607353
 30
0.0
  0
SPLINE
  5
227
100
AcDbEntity
  8
text
 62
1
100
AcDbSpline
 70
8
 71
3
 72
8
 73
4
 74
0
 40
0
 40
0
 40
0
 40
0
 40
1
 40
1
 40
1
 40
1
 10
35.450786
 20
65.607353
 30
0.0
 10
33.679841
 20
65.607353
 30
0.0
 10
32.498741
 20
66.788453
 30
0.0
 10
32.498741
 20
68.559045
 30
0.0
  0
LWPOLYLINE
  5
228
100
AcDbEntity
  8
text
 62
1
100
AcDbPolyline
 90
2
 70
0
 10
35.450786
 20
85.082098
 30
0.0
 10
35.450786
 20
87.443945
 30
0.0
  0
LWPOLYLINE
  5
229
100
AcDbEntity
  8
text
 62
1
100
AcDbPolyline
 90
2
 70
0
 10
34.271097
 20
68.559045
 30
0.0
 10
36.631533
 20
68.559045
 30
0.0
  0
SPLINE
  5
22a
100
AcDbEntity
  8
text
 62
1
100
AcDbSpline
 70
8
 71
3
 72
8
 73
4
 74
0
 40
0
 40
0
 40
0
 40
0
 40
1
 40
1
 40
1
 40
1
 10
32.498741
 20
50.779045
 30
0.0
 10
32.498741
 20
52.549989
 30
0.0
 10
33.679841
 20
53.730737
 30
0.0
 10
35.450786
 20
53.730737
 30
0.0
  0
SPLINE
  5
22b
100
AcDbEntity
  8
text
 62
1
100
AcDbSpline
 70
8
 71
3
 72
8
 73
4
 74
0
 40
0
 40
0
 40
0
 40
0
 40
1
 40
1
 40
1
 40
1
 10
35.450786
 20
53.730737
 30
0.0
 10
37.222788
 20
53.730737
 30
0.0
 10
38.402477
 20
52.549989
 30
0.0
 10
38.402477
 20
50.779045
 30
0.0
  0
SPLINE
  5
22c
100
AcDbEntity
  8
text
 62
1
100
AcDbSpline
 70
8
 71
3
 72
8
 73
4
 74
0
 40
0
 40
0
 40
0
 40
0
 40
1
 40
1
 40
1
 40
1
 10
38.402477
 20
50.779045
 30
0.0
 10
38.402477
 20
49.008453
 30
0.0
 10
37.222788
 20
47.827353
 30
0.0
 10
35.450786
 20
47.827353
 30
0.0
  0
SPLINE
  5
22d
100
AcDbEntity
  8
text
 62
1
100
AcDbSpline
 70
8
 71
3
 72
8
 73
4
 74
0
 40
0
 40
0
 40
0
 40
0
 40
1
 40
1
 40
1
 40
1
 10
35.450786
 20
47.827353
 30
0.0
 10
33.679841
 20
47.827353
 30
0.0
 10
32.498741
 20
49.008453
 30
0.0
 10
32.498741
 20
50.779045
 30
0.0
  0
LWPOLYLINE
  5
22e
100
AcDbEntity
  8
text
 62
1
100
AcDbPolyline
 90
2
 70
0
 10
35.450786
 20
67.378298
 30
0.0
 10
35.450786
 20
69.740145
 30
0.0
  0
LWPOLYLINE
  5
22f
100
AcDbEntity
  8
text
 62
1
100
AcDbPolyline
 90
2
 70
0
 10
34.271097
 20
50.779045
 30
0.0
 10
36.631533
 20
50.779045
 30
0.0
  0
LWPOLYLINE
  5
230
100
AcDbEntity
  8
text
 62
1
100
AcDbPolyline
 90
2
 70
0
 10
35.450786
 20
49.598298
 30
0.0
 10
35.450786
 20
51.960145
 30
0.0
  0
LWPOLYLINE
  5
231
100
AcDbEntity
  8
text
 62
1
100
AcDbPolyline
 90
6
 70
0
 10
12.014716
 20
102.886933
 30
0.0
 10
16.009488
 20
102.886933
 30
0.0
 10
16.009488
 20
105.881887
 30
0.0
 10
19.290909
 20
105.881887
 30
0.0
 10
19.290909
 20
102.885756
 30
0.0
 10
23.033008
 20
102.885756
 30
0.0
  0
SPLINE
  5
232
100
AcDbEntity
  8
text
 62
1
100
AcDbSpline
 70
8
 71
3
 72
8
 73
4
 74
0
 40
0
 40
0
 40
0
 40
0
 40
1
 40
1
 40
1
 40
1
 10
93.640173
 20
139.481229
 30
0.0
 10
93.640173
 20
139.348686
 30
0.0
 10
93.521982
 20
139.241238
 30
0.0
 10
93.376184
 20
139.241238
 30
0.0
  0
SPLINE
  5
233
100
AcDbEntity
  8
text
 62
1
100
AcDbSpline
 70
8
 71
3
 72
8
 73
4
 74
0
 40
0
 40
0
 40
0
 40
0
 40
1
 40
1
 40
1
 40
1
 10
93.376184
 20
139.241238
 30
0.0
 10
93.230387
 20
139.241238
 30
0.0
 10
93.112195
 20
139.348686
 30
0.0
 10
93.112195
 20
139.481229
 30
0.0
  0
SPLINE
  5
234
100
AcDbEntity
  8
text
 62
1
100
AcDbSpline
 70
8
 71
3
 72
8
 73
4
 74
0
 40
0
 40
0
 40
0
 40
0
 40
1
 40
1
 40
1
 40
1
 10
93.112195
 20
139.481229
 30
0.0
 10
93.112195
 20
139.613772
 30
0.0
 10
93.230387
 20
139.721219
 30
0.0
 10
93.376184
 20
139.721219
 30
0.0
  0
SPLINE
  5
235
100
AcDbEntity
  8
text
 62
1
100
AcDbSpline
 70
8
 71
3
 72
8
 73
4
 74
0
 40
0
 40
0
 40
0
 40
0
 40
1
 40
1
 40
1
 40
1
 10
93.376184
 20
139.721219
 30
0.0
 10
93.521982
 20
139.721219
 30
0.0
 10
93.640174
 20
139.613772
 30
0.0
 10
93.640173
 20
139.481229
 30
0.0
  0
LWPOLYLINE
  5
236
100
AcDbEntity
  8
text
 62
7
100
AcDbPolyline
 90
6
 70
0
 10
74.763275
 20
14.542033
 30
0.0
 10
59.286966
 20
14.542033
 30
0.0
 10
59.286966
 20
142.698799
 30
0.0
 10
102.139693
 20
142.698799
 30
0.0
 10
102.139693
 20
14.542033
 30
0.0
 10
59.286966
 20
14.542033
 30
0.0
  0
SPLINE
  5
237
100
AcDbEntity
  8
text
 62
1
100
AcDbSpline
 70
8
 71
3
 72
8
 73
4
 74
0
 40
0
 40
0
 40
0
 40
0
 40
1
 40
1
 40
1
 40
1
 10
68.192178
 20
18.165896
 30
0.0
 10
68.192178
 20
18.121341
 30
0.0
 10
68.169422
 20
18.078610
 30
0.0
 10
68.128915
 20
18.047105
 30
0.0
  0
SPLINE
  5
238
100
AcDbEntity
  8
text
 62
1
100
AcDbSpline
 70
8
 71
3
 72
8
 73
4
 74
0
 40
0
 40
0
 40
0
 40
0
 40
1
 40
1
 40
1
 40
1
 10
68.128915
 20
18.047105
 30
0.0
 10
68.088408
 20
18.015600
 30
0.0
 10
68.033469
 20
17.997901
 30
0.0
 10
67.976184
 20
17.997901
 30
0.0
  0
SPLINE
  5
239
100
AcDbEntity
  8
text
 62
1
100
AcDbSpline
 70
8
 71
3
 72
8
 73
4
 74
0
 40
0
 40
0
 40
0
 40
0
 40
1
 40
1
 40
1
 40
1
 10
67.976184
 20
17.997901
 30
0.0
 10
67.918900
 20
17.997901
 30
0.0
 10
67.863961
 20
18.015601
 30
0.0
 10
67.823455
 20
18.047106
 30
0.0
  0
SPLINE
  5
23a
100
AcDbEntity
  8
text
 62
1
100
AcDbSpline
 70
8
 71
3
 72
8
 73
4
 74
0
 40
0
 40
0
 40
0
 40
0
 40
1
 40
1
 40
1
 40
1
 10
67.823455
 20
18.047106
 30
0.0
 10
67.782949
 20
18.078611
 30
0.0
 10
67.760194
 20
18.121341
 30
0.0
 10
67.760194
 20
18.165896
 30
0.0
  0
SPLINE
  5
23b
100
AcDbEntity
  8
text
 62
1
100
AcDbSpline
 70
8
 71
3
 72
8
 73
4
 74
0
 40
0
 40
0
 40
0
 40
0
 40
1
 40
1
 40
1
 40
1
 10
67.760194
 20
18.165896
 30
0.0
 10
67.760194
 20
18.210450
 30
0.0
 10
67.782949
 20
18.253180
 30
0.0
 10
67.823455
 20
18.284686
 30
0.0
  0
SPLINE
  5
23c
100
AcDbEntity
  8
text
 62
1
100
AcDbSpline
 70
8
 71
3
 72
8
 73
4
 74
0
 40
0
 40
0
 40
0
 40
0
 40
1
 40
1
 40
1
 40
1
 10
67.823455
 20
18.284686
 30
0.0
 10
67.863961
 20
18.316191
 30
0.0
 10
67.918900
 20
18.333890
 30
0.0
 10
67.976184
 20
18.333891
 30
0.0
  0
SPLINE
  5
23d
100
AcDbEntity
  8
text
 62
1
100
AcDbSpline
 70
8
 71
3
 72
8
 73
4
 74
0
 40
0
 40
0
 40
0
 40
0
 40
1
 40
1
 40
1
 40
1
 10
67.976184
 20
18.333891
 30
0.0
 10
68.033469
 20
18.333891
 30
0.0
 10
68.088408
 20
18.316192
 30
0.0
 10
68.128915
 20
18.284687
 30
0.0
  0
SPLINE
  5
23e
100
AcDbEntity
  8
text
 62
1
100
AcDbSpline
 70
8
 71
3
 72
8
 73
4
 74
0
 40
0
 40
0
 40
0
 40
0
 40
1
 40
1
 40
1
 40
1
 10
68.128915
 20
18.284687
 30
0.0
 10
68.169422
 20
18.253181
 30
0.0
 10
68.192178
 20
18.210451
 30
0.0
 10
68.192178
 20
18.165896
 30
0.0
  0
LWPOLYLINE
  5
23f
100
AcDbEntity
  8
text
 62
1
100
AcDbPolyline
 90
2
 70
1
 10
93.640173
 20
139.481229
 30
0.0
 10
93.640173
 20
139.481229
 30
0.0
  0
SPLINE
  5
240
100
AcDbEntity
  8
text
 62
7
100
AcDbSpline
 70
8
 71
3
 72
8
 73
4
 74
0
 40
0
 40
0
 40
0
 40
0
 40
1
 40
1
 40
1
 40
1
 10
86.413340
 20
100.272848
 30
0.0
 10
86.413340
 20
100.215563
 30
0.0
 10
86.388055
 20
100.160625
 30
0.0
 10
86.343048
 20
100.120118
 30
0.0
  0
SPLINE
  5
241
100
AcDbEntity
  8
text
 62
7
100
AcDbSpline
 70
8
 71
3
 72
8
 73
4
 74
0
 40
0
 40
0
 40
0
 40
0
 40
1
 40
1
 40
1
 40
1
 10
86.343048
 20
100.120118
 30
0.0
 10
86.298041
 20
100.079612
 30
0.0
 10
86.236998
 20
100.056856
 30
0.0
 10
86.173348
 20
100.056856
 30
0.0
  0
SPLINE
  5
242
100
AcDbEntity
  8
text
 62
7
100
AcDbSpline
 70
8
 71
3
 72
8
 73
4
 74
0
 40
0
 40
0
 40
0
 40
0
 40
1
 40
1
 40
1
 40
1
 10
86.173348
 20
100.056856
 30
0.0
 10
86.109699
 20
100.056856
 30
0.0
 10
86.048656
 20
100.079612
 30
0.0
 10
86.003649
 20
100.120118
 30
0.0
  0
SPLINE
  5
243
100
AcDbEntity
  8
text
 62
7
100
AcDbSpline
 70
8
 71
3
 72
8
 73
4
 74
0
 40
0
 40
0
 40
0
 40
0
 40
1
 40
1
 40
1
 40
1
 10
86.003649
 20
100.120118
 30
0.0
 10
85.958642
 20
100.160625
 30
0.0
 10
85.933357
 20
100.215563
 30
0.0
 10
85.933357
 20
100.272848
 30
0.0
  0
SPLINE
  5
244
100
AcDbEntity
  8
text
 62
7
100
AcDbSpline
 70
8
 71
3
 72
8
 73
4
 74
0
 40
0
 40
0
 40
0
 40
0
 40
1
 40
1
 40
1
 40
1
 10
85.933357
 20
100.272848
 30
0.0
 10
85.933357
 20
100.330132
 30
0.0
 10
85.958642
 20
100.385071
 30
0.0
 10
86.003649
 20
100.425577
 30
0.0
  0
SPLINE
  5
245
100
AcDbEntity
  8
text
 62
7
100
AcDbSpline
 70
8
 71
3
 72
8
 73
4
 74
0
 40
0
 40
0
 40
0
 40
0
 40
1
 40
1
 40
1
 40
1
 10
86.003649
 20
100.425577
 30
0.0
 10
86.048656
 20
100.466083
 30
0.0
 10
86.109699
 20
100.488840
 30
0.0
 10
86.173348
 20
100.488839
 30
0.0
  0
SPLINE
  5
246
100
AcDbEntity
  8
text
 62
7
100
AcDbSpline
 70
8
 71
3
 72
8
 73
4
 74
0
 40
0
 40
0
 40
0
 40
0
 40
1
 40
1
 40
1
 40
1
 10
86.173348
 20
100.488839
 30
0.0
 10
86.236998
 20
100.488840
 30
0.0
 10
86.298041
 20
100.466083
 30
0.0
 10
86.343048
 20
100.425577
 30
0.0
  0
SPLINE
  5
247
100
AcDbEntity
  8
text
 62
7
100
AcDbSpline
 70
8
 71
3
 72
8
 73
4
 74
0
 40
0
 40
0
 40
0
 40
0
 40
1
 40
1
 40
1
 40
1
 10
86.343048
 20
100.425577
 30
0.0
 10
86.388055
 20
100.385071
 30
0.0
 10
86.413340
 20
100.330132
 30
0.0
 10
86.413340
 20
100.272848
 30
0.0
  0
LWPOLYLINE
  5
248
100
AcDbEntity
  8
text
 62
1
100
AcDbPolyline
 90
2
 70
1
 10
68.192178
 20
18.165896
 30
0.0
 10
68.192178
 20
18.165896
 30
0.0
  0
SPLINE
  5
249
100
AcDbEntity
  8
text
 62
1
100
AcDbSpline
 70
8
 71
3
 72
8
 73
4
 74
0
 40
0
 40
0
 40
0
 40
0
 40
1
 40
1
 40
1
 40
1
 10
75.396519
 20
121.961159
 30
0.0
 10
75.396519
 20
123.732104
 30
0.0
 10
76.577619
 20
124.912851
 30
0.0
 10
78.348563
 20
124.912851
 30
0.0
  0
SPLINE
  5
24a
100
AcDbEntity
  8
text
 62
1
100
AcDbSpline
 70
8
 71
3
 72
8
 73
4
 74
0
 40
0
 40
0
 40
0
 40
0
 40
1
 40
1
 40
1
 40
1
 10
78.348563
 20
124.912851
 30
0.0
 10
80.120566
 20
124.912851
 30
0.0
 10
81.300255
 20
123.732104
 30
0.0
 10
81.300255
 20
121.961159
 30
0.0
  0
SPLINE
  5
24b
100
AcDbEntity
  8
text
 62
1
100
AcDbSpline
 70
8
 71
3
 72
8
 73
4
 74
0
 40
0
 40
0
 40
0
 40
0
 40
1
 40
1
 40
1
 40
1
 10
81.300255
 20
121.961159
 30
0.0
 10
81.300255
 20
120.190568
 30
0.0
 10
80.120566
 20
119.009468
 30
0.0
 10
78.348563
 20
119.009468
 30
0.0
  0
SPLINE
  5
24c
100
AcDbEntity
  8
text
 62
1
100
AcDbSpline
 70
8
 71
3
 72
8
 73
4
 74
0
 40
0
 40
0
 40
0
 40
0
 40
1
 40
1
 40
1
 40
1
 10
78.348563
 20
119.009468
 30
0.0
 10
76.577619
 20
119.009468
 30
0.0
 10
75.396519
 20
120.190568
 30
0.0
 10
75.396519
 20
121.961159
 30
0.0
  0
LWPOLYLINE
  5
24d
100
AcDbEntity
  8
text
 62
7
100
AcDbPolyline
 90
2
 70
1
 10
86.413340
 20
100.272848
 30
0.0
 10
86.413340
 20
100.272848
 30
0.0
  0
LWPOLYLINE
  5
24e
100
AcDbEntity
  8
text
 62
1
100
AcDbPolyline
 90
2
 70
0
 10
77.168875
 20
121.961159
 30
0.0
 10
79.529311
 20
121.961159
 30
0.0
  0
SPLINE
  5
24f
100
AcDbEntity
  8
text
 62
1
100
AcDbSpline
 70
8
 71
3
 72
8
 73
4
 74
0
 40
0
 40
0
 40
0
 40
0
 40
1
 40
1
 40
1
 40
1
 10
75.447319
 20
32.922845
 30
0.0
 10
75.447319
 20
34.693789
 30
0.0
 10
76.628419
 20
35.874537
 30
0.0
 10
78.399363
 20
35.874537
 30
0.0
  0
SPLINE
  5
250
100
AcDbEntity
  8
text
 62
1
100
AcDbSpline
 70
8
 71
3
 72
8
 73
4
 74
0
 40
0
 40
0
 40
0
 40
0
 40
1
 40
1
 40
1
 40
1
 10
78.399363
 20
35.874537
 30
0.0
 10
80.171366
 20
35.874537
 30
0.0
 10
81.351055
 20
34.693789
 30
0.0
 10
81.351055
 20
32.922845
 30
0.0
  0
SPLINE
  5
251
100
AcDbEntity
  8
text
 62
1
100
AcDbSpline
 70
8
 71
3
 72
8
 73
4
 74
0
 40
0
 40
0
 40
0
 40
0
 40
1
 40
1
 40
1
 40
1
 10
81.351055
 20
32.922845
 30
0.0
 10
81.351055
 20
31.152253
 30
0.0
 10
80.171366
 20
29.971153
 30
0.0
 10
78.399363
 20
29.971153
 30
0.0
  0
SPLINE
  5
252
100
AcDbEntity
  8
text
 62
1
100
AcDbSpline
 70
8
 71
3
 72
8
 73
4
 74
0
 40
0
 40
0
 40
0
 40
0
 40
1
 40
1
 40
1
 40
1
 10
78.399363
 20
29.971153
 30
0.0
 10
76.628419
 20
29.971153
 30
0.0
 10
75.447319
 20
31.152253
 30
0.0
 10
75.447319
 20
32.922845
 30
0.0
  0
LWPOLYLINE
  5
253
100
AcDbEntity
  8
text
 62
1
100
AcDbPolyline
 90
2
 70
0
 10
78.348563
 20
120.780412
 30
0.0
 10
78.348563
 20
123.142259
 30
0.0
  0
LWPOLYLINE
  5
254
100
AcDbEntity
  8
text
 62
1
100
AcDbPolyline
 90
2
 70
0
 10
77.219675
 20
32.922845
 30
0.0
 10
79.580111
 20
32.922845
 30
0.0
  0
SPLINE
  5
255
100
AcDbEntity
  8
text
 62
1
100
AcDbSpline
 70
8
 71
3
 72
8
 73
4
 74
0
 40
0
 40
0
 40
0
 40
0
 40
1
 40
1
 40
1
 40
1
 10
83.298741
 20
104.144445
 30
0.0
 10
83.298741
 20
105.915389
 30
0.0
 10
84.479841
 20
107.096137
 30
0.0
 10
86.250786
 20
107.096137
 30
0.0
  0
SPLINE
  5
256
100
AcDbEntity
  8
text
 62
1
100
AcDbSpline
 70
8
 71
3
 72
8
 73
4
 74
0
 40
0
 40
0
 40
0
 40
0
 40
1
 40
1
 40
1
 40
1
 10
86.250786
 20
107.096137
 30
0.0
 10
88.022788
 20
107.096137
 30
0.0
 10
89.202477
 20
105.915389
 30
0.0
 10
89.202477
 20
104.144445
 30
0.0
  0
SPLINE
  5
257
100
AcDbEntity
  8
text
 62
1
100
AcDbSpline
 70
8
 71
3
 72
8
 73
4
 74
0
 40
0
 40
0
 40
0
 40
0
 40
1
 40
1
 40
1
 40
1
 10
89.202477
 20
104.144445
 30
0.0
 10
89.202477
 20
102.373853
 30
0.0
 10
88.022788
 20
101.192753
 30
0.0
 10
86.250786
 20
101.192753
 30
0.0
  0
SPLINE
  5
258
100
AcDbEntity
  8
text
 62
1
100
AcDbSpline
 70
8
 71
3
 72
8
 73
4
 74
0
 40
0
 40
0
 40
0
 40
0
 40
1
 40
1
 40
1
 40
1
 10
86.250786
 20
101.192753
 30
0.0
 10
84.479841
 20
101.192753
 30
0.0
 10
83.298741
 20
102.373853
 30
0.0
 10
83.298741
 20
104.144445
 30
0.0
  0
LWPOLYLINE
  5
259
100
AcDbEntity
  8
text
 62
1
100
AcDbPolyline
 90
2
 70
0
 10
78.399363
 20
31.742098
 30
0.0
 10
78.399363
 20
34.103945
 30
0.0
  0
LWPOLYLINE
  5
25a
100
AcDbEntity
  8
text
 62
1
100
AcDbPolyline
 90
2
 70
0
 10
85.071097
 20
104.144445
 30
0.0
 10
87.431533
 20
104.144445
 30
0.0
  0
SPLINE
  5
25b
100
AcDbEntity
  8
text
 62
1
100
AcDbSpline
 70
8
 71
3
 72
8
 73
4
 74
0
 40
0
 40
0
 40
0
 40
0
 40
1
 40
1
 40
1
 40
1
 10
83.298741
 20
86.262845
 30
0.0
 10
83.298741
 20
88.033789
 30
0.0
 10
84.479841
 20
89.214537
 30
0.0
 10
86.250786
 20
89.214537
 30
0.0
  0
SPLINE
  5
25c
100
AcDbEntity
  8
text
 62
1
100
AcDbSpline
 70
8
 71
3
 72
8
 73
4
 74
0
 40
0
 40
0
 40
0
 40
0
 40
1
 40
1
 40
1
 40
1
 10
86.250786
 20
89.214537
 30
0.0
 10
88.022788
 20
89.214537
 30
0.0
 10
89.202477
 20
88.033789
 30
0.0
 10
89.202477
 20
86.262845
 30
0.0
  0
SPLINE
  5
25d
100
AcDbEntity
  8
text
 62
1
100
AcDbSpline
 70
8
 71
3
 72
8
 73
4
 74
0
 40
0
 40
0
 40
0
 40
0
 40
1
 40
1
 40
1
 40
1
 10
89.202477
 20
86.262845
 30
0.0
 10
89.202477
 20
84.492253
 30
0.0
 10
88.022788
 20
83.311153
 30
0.0
 10
86.250786
 20
83.311153
 30
0.0
  0
SPLINE
  5
25e
100
AcDbEntity
  8
text
 62
1
100
AcDbSpline
 70
8
 71
3
 72
8
 73
4
 74
0
 40
0
 40
0
 40
0
 40
0
 40
1
 40
1
 40
1
 40
1
 10
86.250786
 20
83.311153
 30
0.0
 10
84.479841
 20
83.311153
 30
0.0
 10
83.298741
 20
84.492253
 30
0.0
 10
83.298741
 20
86.262845
 30
0.0
  0
LWPOLYLINE
  5
25f
100
AcDbEntity
  8
text
 62
1
100
AcDbPolyline
 90
2
 70
0
 10
86.250786
 20
102.963698
 30
0.0
 10
86.250786
 20
105.325545
 30
0.0
  0
LWPOLYLINE
  5
260
100
AcDbEntity
  8
text
 62
1
100
AcDbPolyline
 90
2
 70
0
 10
85.071097
 20
86.262845
 30
0.0
 10
87.431533
 20
86.262845
 30
0.0
  0
SPLINE
  5
261
100
AcDbEntity
  8
text
 62
1
100
AcDbSpline
 70
8
 71
3
 72
8
 73
4
 74
0
 40
0
 40
0
 40
0
 40
0
 40
1
 40
1
 40
1
 40
1
 10
83.298741
 20
68.559045
 30
0.0
 10
83.298741
 20
70.329989
 30
0.0
 10
84.479841
 20
71.510737
 30
0.0
 10
86.250786
 20
71.510737
 30
0.0
  0
SPLINE
  5
262
100
AcDbEntity
  8
text
 62
1
100
AcDbSpline
 70
8
 71
3
 72
8
 73
4
 74
0
 40
0
 40
0
 40
0
 40
0
 40
1
 40
1
 40
1
 40
1
 10
86.250786
 20
71.510737
 30
0.0
 10
88.022788
 20
71.510737
 30
0.0
 10
89.202477
 20
70.329989
 30
0.0
 10
89.202477
 20
68.559045
 30
0.0
  0
SPLINE
  5
263
100
AcDbEntity
  8
text
 62
1
100
AcDbSpline
 70
8
 71
3
 72
8
 73
4
 74
0
 40
0
 40
0
 40
0
 40
0
 40
1
 40
1
 40
1
 40
1
 10
89.202477
 20
68.559045
 30
0.0
 10
89.202477
 20
66.788453
 30
0.0
 10
88.022788
 20
65.607353
 30
0.0
 10
86.250786
 20
65.607353
 30
0.0
  0
SPLINE
  5
264
100
AcDbEntity
  8
text
 62
1
100
AcDbSpline
 70
8
 71
3
 72
8
 73
4
 74
0
 40
0
 40
0
 40
0
 40
0
 40
1
 40
1
 40
1
 40
1
 10
86.250786
 20
65.607353
 30
0.0
 10
84.479841
 20
65.607353
 30
0.0
 10
83.298741
 20
66.788453
 30
0.0
 10
83.298741
 20
68.559045
 30
0.0
  0
LWPOLYLINE
  5
265
100
AcDbEntity
  8
text
 62
1
100
AcDbPolyline
 90
2
 70
0
 10
86.250786
 20
85.082098
 30
0.0
 10
86.250786
 20
87.443945
 30
0.0
  0
LWPOLYLINE
  5
266
100
AcDbEntity
  8
text
 62
1
100
AcDbPolyline
 90
2
 70
0
 10
85.071097
 20
68.559045
 30
0.0
 10
87.431533
 20
68.559045
 30
0.0
  0
SPLINE
  5
267
100
AcDbEntity
  8
text
 62
1
100
AcDbSpline
 70
8
 71
3
 72
8
 73
4
 74
0
 40
0
 40
0
 40
0
 40
0
 40
1
 40
1
 40
1
 40
1
 10
83.298741
 20
50.779045
 30
0.0
 10
83.298741
 20
52.549989
 30
0.0
 10
84.479841
 20
53.730737
 30
0.0
 10
86.250786
 20
53.730737
 30
0.0
  0
SPLINE
  5
268
100
AcDbEntity
  8
text
 62
1
100
AcDbSpline
 70
8
 71
3
 72
8
 73
4
 74
0
 40
0
 40
0
 40
0
 40
0
 40
1
 40
1
 40
1
 40
1
 10
86.250786
 20
53.730737
 30
0.0
 10
88.022788
 20
53.730737
 30
0.0
 10
89.202477
 20
52.549989
 30
0.0
 10
89.202477
 20
50.779045
 30
0.0
  0
SPLINE
  5
269
100
AcDbEntity
  8
text
 62
1
100
AcDbSpline
 70
8
 71
3
 72
8
 73
4
 74
0
 40
0
 40
0
 40
0
 40
0
 40
1
 40
1
 40
1
 40
1
 10
89.202477
 20
50.779045
 30
0.0
 10
89.202477
 20
49.008453
 30
0.0
 10
88.022788
 20
47.827353
 30
0.0
 10
86.250786
 20
47.827353
 30
0.0
  0
SPLINE
  5
26a
100
AcDbEntity
  8
text
 62
1
100
AcDbSpline
 70
8
 71
3
 72
8
 73
4
 74
0
 40
0
 40
0
 40
0
 40
0
 40
1
 40
1
 40
1
 40
1
 10
86.250786
 20
47.827353
 30
0.0
 10
84.479841
 20
47.827353
 30
0.0
 10
83.298741
 20
49.008453
 30
0.0
 10
83.298741
 20
50.779045
 30
0.0
  0
LWPOLYLINE
  5
26b
100
AcDbEntity
  8
text
 62
1
100
AcDbPolyline
 90
2
 70
0
 10
86.250786
 20
67.378298
 30
0.0
 10
86.250786
 20
69.740145
 30
0.0
  0
LWPOLYLINE
  5
26c
100
AcDbEntity
  8
text
 62
1
100
AcDbPolyline
 90
2
 70
0
 10
85.071097
 20
50.779045
 30
0.0
 10
87.431533
 20
50.779045
 30
0.0
  0
LWPOLYLINE
  5
26d
100
AcDbEntity
  8
text
 62
1
100
AcDbPolyline
 90
2
 70
0
 10
86.250786
 20
49.598298
 30
0.0
 10
86.250786
 20
51.960145
 30
0.0
  0
LWPOLYLINE
  5
26e
100
AcDbEntity
  8
text
 62
1
100
AcDbPolyline
 90
6
 70
0
 10
62.814716
 20
102.886933
 30
0.0
 10
66.809488
 20
102.886933
 30
0.0
 10
66.809488
 20
105.881887
 30
0.0
 10
70.090909
 20
105.881887
 30
0.0
 10
70.090909
 20
102.885756
 30
0.0
 10
73.833008
 20
102.885756
 30
0.0
  0
SPLINE
  5
26f
100
AcDbEntity
  8
text
 62
1
100
AcDbSpline
 70
8
 71
3
 72
8
 73
4
 74
0
 40
0
 40
0
 40
0
 40
0
 40
1
 40
1
 40
1
 40
1
 10
144.440173
 20
139.481229
 30
0.0
 10
144.440173
 20
139.348686
 30
0.0
 10
144.321982
 20
139.241238
 30
0.0
 10
144.176184
 20
139.241238
 30
0.0
  0
SPLINE
  5
270
100
AcDbEntity
  8
text
 62
1
100
AcDbSpline
 70
8
 71
3
 72
8
 73
4
 74
0
 40
0
 40
0
 40
0
 40
0
 40
1
 40
1
 40
1
 40
1
 10
144.176184
 20
139.241238
 30
0.0
 10
144.030387
 20
139.241238
 30
0.0
 10
143.912195
 20
139.348686
 30
0.0
 10
143.912195
 20
139.481229
 30
0.0
  0
SPLINE
  5
271
100
AcDbEntity
  8
text
 62
1
100
AcDbSpline
 70
8
 71
3
 72
8
 73
4
 74
0
 40
0
 40
0
 40
0
 40
0
 40
1
 40
1
 40
1
 40
1
 10
143.912195
 20
139.481229
 30
0.0
 10
143.912195
 20
139.613772
 30
0.0
 10
144.030387
 20
139.721219
 30
0.0
 10
144.176184
 20
139.721219
 30
0.0
  0
SPLINE
  5
272
100
AcDbEntity
  8
text
 62
1
100
AcDbSpline
 70
8
 71
3
 72
8
 73
4
 74
0
 40
0
 40
0
 40
0
 40
0
 40
1
 40
1
 40
1
 40
1
 10
144.176184
 20
139.721219
 30
0.0
 10
144.321982
 20
139.721219
 30
0.0
 10
144.440174
 20
139.613772
 30
0.0
 10
144.440173
 20
139.481229
 30
0.0
  0
LWPOLYLINE
  5
273
100
AcDbEntity
  8
text
 62
7
100
AcDbPolyline
 90
6
 70
0
 10
125.563275
 20
14.542033
 30
0.0
 10
110.086966
 20
14.542033
 30
0.0
 10
110.086966
 20
142.698799
 30
0.0
 10
152.939693
 20
142.698799
 30
0.0
 10
152.939693
 20
14.542033
 30
0.0
 10
110.086966
 20
14.542033
 30
0.0
  0
SPLINE
  5
274
100
AcDbEntity
  8
text
 62
1
100
AcDbSpline
 70
8
 71
3
 72
8
 73
4
 74
0
 40
0
 40
0
 40
0
 40
0
 40
1
 40
1
 40
1
 40
1
 10
118.992178
 20
18.165896
 30
0.0
 10
118.992178
 20
18.121341
 30
0.0
 10
118.969422
 20
18.078610
 30
0.0
 10
118.928915
 20
18.047105
 30
0.0
  0
SPLINE
  5
275
100
AcDbEntity
  8
text
 62
1
100
AcDbSpline
 70
8
 71
3
 72
8
 73
4
 74
0
 40
0
 40
0
 40
0
 40
0
 40
1
 40
1
 40
1
 40
1
 10
118.928915
 20
18.047105
 30
0.0
 10
118.888408
 20
18.015600
 30
0.0
 10
118.833469
 20
17.997901
 30
0.0
 10
118.776184
 20
17.997901
 30
0.0
  0
SPLINE
  5
276
100
AcDbEntity
  8
text
 62
1
100
AcDbSpline
 70
8
 71
3
 72
8
 73
4
 74
0
 40
0
 40
0
 40
0
 40
0
 40
1
 40
1
 40
1
 40
1
 10
118.776184
 20
17.997901
 30
0.0
 10
118.718900
 20
17.997901
 30
0.0
 10
118.663961
 20
18.015601
 30
0.0
 10
118.623455
 20
18.047106
 30
0.0
  0
SPLINE
  5
277
100
AcDbEntity
  8
text
 62
1
100
AcDbSpline
 70
8
 71
3
 72
8
 73
4
 74
0
 40
0
 40
0
 40
0
 40
0
 40
1
 40
1
 40
1
 40
1
 10
118.623455
 20
18.047106
 30
0.0
 10
118.582949
 20
18.078611
 30
0.0
 10
118.560194
 20
18.121341
 30
0.0
 10
118.560194
 20
18.165896
 30
0.0
  0
SPLINE
  5
278
100
AcDbEntity
  8
text
 62
1
100
AcDbSpline
 70
8
 71
3
 72
8
 73
4
 74
0
 40
0
 40
0
 40
0
 40
0
 40
1
 40
1
 40
1
 40
1
 10
118.560194
 20
18.165896
 30
0.0
 10
118.560194
 20
18.210450
 30
0.0
 10
118.582949
 20
18.253180
 30
0.0
 10
118.623455
 20
18.284686
 30
0.0
  0
SPLINE
  5
279
100
AcDbEntity
  8
text
 62
1
100
AcDbSpline
 70
8
 71
3
 72
8
 73
4
 74
0
 40
0
 40
0
 40
0
 40
0
 40
1
 40
1
 40
1
 40
1
 10
118.623455
 20
18.284686
 30
0.0
 10
118.663961
 20
18.316191
 30
0.0
 10
118.718900
 20
18.333890
 30
0.0
 10
118.776184
 20
18.333891
 30
0.0
  0
SPLINE
  5
27a
100
AcDbEntity
  8
text
 62
1
100
AcDbSpline
 70
8
 71
3
 72
8
 73
4
 74
0
 40
0
 40
0
 40
0
 40
0
 40
1
 40
1
 40
1
 40
1
 10
118.776184
 20
18.333891
 30
0.0
 10
118.833469
 20
18.333891
 30
0.0
 10
118.888408
 20
18.316192
 30
0.0
 10
118.928915
 20
18.284687
 30
0.0
  0
SPLINE
  5
27b
100
AcDbEntity
  8
text
 62
1
100
AcDbSpline
 70
8
 71
3
 72
8
 73
4
 74
0
 40
0
 40
0
 40
0
 40
0
 40
1
 40
1
 40
1
 40
1
 10
118.928915
 20
18.284687
 30
0.0
 10
118.969422
 20
18.253181
 30
0.0
 10
118.992178
 20
18.210451
 30
0.0
 10
118.992178
 20
18.165896
 30
0.0
  0
LWPOLYLINE
  5
27c
100
AcDbEntity
  8
text
 62
1
100
AcDbPolyline
 90
2
 70
1
 10
144.440173
 20
139.481229
 30
0.0
 10
144.440173
 20
139.481229
 30
0.0
  0
SPLINE
  5
27d
100
AcDbEntity
  8
text
 62
7
100
AcDbSpline
 70
8
 71
3
 72
8
 73
4
 74
0
 40
0
 40
0
 40
0
 40
0
 40
1
 40
1
 40
1
 40
1
 10
137.213340
 20
100.272848
 30
0.0
 10
137.213340
 20
100.215563
 30
0.0
 10
137.188055
 20
100.160625
 30
0.0
 10
137.143048
 20
100.120118
 30
0.0
  0
SPLINE
  5
27e
100
AcDbEntity
  8
text
 62
7
100
AcDbSpline
 70
8
 71
3
 72
8
 73
4
 74
0
 40
0
 40
0
 40
0
 40
0
 40
1
 40
1
 40
1
 40
1
 10
137.143048
 20
100.120118
 30
0.0
 10
137.098041
 20
100.079612
 30
0.0
 10
137.036998
 20
100.056856
 30
0.0
 10
136.973348
 20
100.056856
 30
0.0
  0
SPLINE
  5
27f
100
AcDbEntity
  8
text
 62
7
100
AcDbSpline
 70
8
 71
3
 72
8
 73
4
 74
0
 40
0
 40
0
 40
0
 40
0
 40
1
 40
1
 40
1
 40
1
 10
136.973348
 20
100.056856
 30
0.0
 10
136.909699
 20
100.056856
 30
0.0
 10
136.848656
 20
100.079612
 30
0.0
 10
136.803649
 20
100.120118
 30
0.0
  0
SPLINE
  5
280
100
AcDbEntity
  8
text
 62
7
100
AcDbSpline
 70
8
 71
3
 72
8
 73
4
 74
0
 40
0
 40
0
 40
0
 40
0
 40
1
 40
1
 40
1
 40
1
 10
136.803649
 20
100.120118
 30
0.0
 10
136.758642
 20
100.160625
 30
0.0
 10
136.733357
 20
100.215563
 30
0.0
 10
136.733357
 20
100.272848
 30
0.0
  0
SPLINE
  5
281
100
AcDbEntity
  8
text
 62
7
100
AcDbSpline
 70
8
 71
3
 72
8
 73
4
 74
0
 40
0
 40
0
 40
0
 40
0
 40
1
 40
1
 40
1
 40
1
 10
136.733357
 20
100.272848
 30
0.0
 10
136.733357
 20
100.330132
 30
0.0
 10
136.758642
 20
100.385071
 30
0.0
 10
136.803649
 20
100.425577
 30
0.0
  0
SPLINE
  5
282
100
AcDbEntity
  8
text
 62
7
100
AcDbSpline
 70
8
 71
3
 72
8
 73
4
 74
0
 40
0
 40
0
 40
0
 40
0
 40
1
 40
1
 40
1
 40
1
 10
136.803649
 20
100.425577
 30
0.0
 10
136.848656
 20
100.466083
 30
0.0
 10
136.909699
 20
100.488840
 30
0.0
 10
136.973348
 20
100.488839
 30
0.0
  0
SPLINE
  5
283
100
AcDbEntity
  8
text
 62
7
100
AcDbSpline
 70
8
 71
3
 72
8
 73
4
 74
0
 40
0
 40
0
 40
0
 40
0
 40
1
 40
1
 40
1
 40
1
 10
136.973348
 20
100.488839
 30
0.0
 10
137.036998
 20
100.488840
 30
0.0
 10
137.098041
 20
100.466083
 30
0.0
 10
137.143048
 20
100.425577
 30
0.0
  0
SPLINE
  5
284
100
AcDbEntity
  8
text
 62
7
100
AcDbSpline
 70
8
 71
3
 72
8
 73
4
 74
0
 40
0
 40
0
 40
0
 40
0
 40
1
 40
1
 40
1
 40
1
 10
137.143048
 20
100.425577
 30
0.0
 10
137.188055
 20
100.385071
 30
0.0
 10
137.213340
 20
100.330132
 30
0.0
 10
137.213340
 20
100.272848
 30
0.0
  0
LWPOLYLINE
  5
285
100
AcDbEntity
  8
text
 62
1
100
AcDbPolyline
 90
2
 70
1
 10
118.992178
 20
18.165896
 30
0.0
 10
118.992178
 20
18.165896
 30
0.0
  0
SPLINE
  5
286
100
AcDbEntity
  8
text
 62
1
100
AcDbSpline
 70
8
 71
3
 72
8
 73
4
 74
0
 40
0
 40
0
 40
0
 40
0
 40
1
 40
1
 40
1
 40
1
 10
126.196519
 20
121.961159
 30
0.0
 10
126.196519
 20
123.732104
 30
0.0
 10
127.377619
 20
124.912851
 30
0.0
 10
129.148563
 20
124.912851
 30
0.0
  0
SPLINE
  5
287
100
AcDbEntity
  8
text
 62
1
100
AcDbSpline
 70
8
 71
3
 72
8
 73
4
 74
0
 40
0
 40
0
 40
0
 40
0
 40
1
 40
1
 40
1
 40
1
 10
129.148563
 20
124.912851
 30
0.0
 10
130.920566
 20
124.912851
 30
0.0
 10
132.100255
 20
123.732104
 30
0.0
 10
132.100255
 20
121.961159
 30
0.0
  0
SPLINE
  5
288
100
AcDbEntity
  8
text
 62
1
100
AcDbSpline
 70
8
 71
3
 72
8
 73
4
 74
0
 40
0
 40
0
 40
0
 40
0
 40
1
 40
1
 40
1
 40
1
 10
132.100255
 20
121.961159
 30
0.0
 10
132.100255
 20
120.190568
 30
0.0
 10
130.920566
 20
119.009468
 30
0.0
 10
129.148563
 20
119.009468
 30
0.0
  0
SPLINE
  5
289
100
AcDbEntity
  8
text
 62
1
100
AcDbSpline
 70
8
 71
3
 72
8
 73
4
 74
0
 40
0
 40
0
 40
0
 40
0
 40
1
 40
1
 40
1
 40
1
 10
129.148563
 20
119.009468
 30
0.0
 10
127.377619
 20
119.009468
 30
0.0
 10
126.196519
 20
120.190568
 30
0.0
 10
126.196519
 20
121.961159
 30
0.0
  0
LWPOLYLINE
  5
28a
100
AcDbEntity
  8
text
 62
7
100
AcDbPolyline
 90
2
 70
1
 10
137.213340
 20
100.272848
 30
0.0
 10
137.213340
 20
100.272848
 30
0.0
  0
LWPOLYLINE
  5
28b
100
AcDbEntity
  8
text
 62
1
100
AcDbPolyline
 90
2
 70
0
 10
127.968875
 20
121.961159
 30
0.0
 10
130.329311
 20
121.961159
 30
0.0
  0
SPLINE
  5
28c
100
AcDbEntity
  8
text
 62
1
100
AcDbSpline
 70
8
 71
3
 72
8
 73
4
 74
0
 40
0
 40
0
 40
0
 40
0
 40
1
 40
1
 40
1
 40
1
 10
126.247319
 20
32.922845
 30
0.0
 10
126.247319
 20
34.693789
 30
0.0
 10
127.428419
 20
35.874537
 30
0.0
 10
129.199363
 20
35.874537
 30
0.0
  0
SPLINE
  5
28d
100
AcDbEntity
  8
text
 62
1
100
AcDbSpline
 70
8
 71
3
 72
8
 73
4
 74
0
 40
0
 40
0
 40
0
 40
0
 40
1
 40
1
 40
1
 40
1
 10
129.199363
 20
35.874537
 30
0.0
 10
130.971366
 20
35.874537
 30
0.0
 10
132.151055
 20
34.693789
 30
0.0
 10
132.151055
 20
32.922845
 30
0.0
  0
SPLINE
  5
28e
100
AcDbEntity
  8
text
 62
1
100
AcDbSpline
 70
8
 71
3
 72
8
 73
4
 74
0
 40
0
 40
0
 40
0
 40
0
 40
1
 40
1
 40
1
 40
1
 10
132.151055
 20
32.922845
 30
0.0
 10
132.151055
 20
31.152253
 30
0.0
 10
130.971366
 20
29.971153
 30
0.0
 10
129.199363
 20
29.971153
 30
0.0
  0
SPLINE
  5
28f
100
AcDbEntity
  8
text
 62
1
100
AcDbSpline
 70
8
 71
3
 72
8
 73
4
 74
0
 40
0
 40
0
 40
0
 40
0
 40
1
 40
1
 40
1
 40
1
 10
129.199363
 20
29.971153
 30
0.0
 10
127.428419
 20
29.971153
 30
0.0
 10
126.247319
 20
31.152253
 30
0.0
 10
126.247319
 20
32.922845
 30
0.0
  0
LWPOLYLINE
  5
290
100
AcDbEntity
  8
text
 62
1
100
AcDbPolyline
 90
2
 70
0
 10
129.148563
 20
120.780412
 30
0.0
 10
129.148563
 20
123.142259
 30
0.0
  0
LWPOLYLINE
  5
291
100
AcDbEntity
  8
text
 62
1
100
AcDbPolyline
 90
2
 70
0
 10
128.019675
 20
32.922845
 30
0.0
 10
130.380111
 20
32.922845
 30
0.0
  0
SPLINE
  5
292
100
AcDbEntity
  8
text
 62
1
100
AcDbSpline
 70
8
 71
3
 72
8
 73
4
 74
0
 40
0
 40
0
 40
0
 40
0
 40
1
 40
1
 40
1
 40
1
 10
134.098741
 20
104.144445
 30
0.0
 10
134.098741
 20
105.915389
 30
0.0
 10
135.279841
 20
107.096137
 30
0.0
 10
137.050786
 20
107.096137
 30
0.0
  0
SPLINE
  5
293
100
AcDbEntity
  8
text
 62
1
100
AcDbSpline
 70
8
 71
3
 72
8
 73
4
 74
0
 40
0
 40
0
 40
0
 40
0
 40
1
 40
1
 40
1
 40
1
 10
137.050786
 20
107.096137
 30
0.0
 10
138.822788
 20
107.096137
 30
0.0
 10
140.002477
 20
105.915389
 30
0.0
 10
140.002477
 20
104.144445
 30
0.0
  0
SPLINE
  5
294
100
AcDbEntity
  8
text
 62
1
100
AcDbSpline
 70
8
 71
3
 72
8
 73
4
 74
0
 40
0
 40
0
 40
0
 40
0
 40
1
 40
1
 40
1
 40
1
 10
140.002477
 20
104.144445
 30
0.0
 10
140.002477
 20
102.373853
 30
0.0
 10
138.822788
 20
101.192753
 30
0.0
 10
137.050786
 20
101.192753
 30
0.0
  0
SPLINE
  5
295
100
AcDbEntity
  8
text
 62
1
100
AcDbSpline
 70
8
 71
3
 72
8
 73
4
 74
0
 40
0
 40
0
 40
0
 40
0
 40
1
 40
1
 40
1
 40
1
 10
137.050786
 20
101.192753
 30
0.0
 10
135.279841
 20
101.192753
 30
0.0
 10
134.098741
 20
102.373853
 30
0.0
 10
134.098741
 20
104.144445
 30
0.0
  0
LWPOLYLINE
  5
296
100
AcDbEntity
  8
text
 62
1
100
AcDbPolyline
 90
2
 70
0
 10
129.199363
 20
31.742098
 30
0.0
 10
129.199363
 20
34.103945
 30
0.0
  0
LWPOLYLINE
  5
297
100
AcDbEntity
  8
text
 62
1
100
AcDbPolyline
 90
2
 70
0
 10
135.871097
 20
104.144445
 30
0.0
 10
138.231533
 20
104.144445
 30
0.0
  0
SPLINE
  5
298
100
AcDbEntity
  8
text
 62
1
100
AcDbSpline
 70
8
 71
3
 72
8
 73
4
 74
0
 40
0
 40
0
 40
0
 40
0
 40
1
 40
1
 40
1
 40
1
 10
134.098741
 20
86.262845
 30
0.0
 10
134.098741
 20
88.033789
 30
0.0
 10
135.279841
 20
89.214537
 30
0.0
 10
137.050786
 20
89.214537
 30
0.0
  0
SPLINE
  5
299
100
AcDbEntity
  8
text
 62
1
100
AcDbSpline
 70
8
 71
3
 72
8
 73
4
 74
0
 40
0
 40
0
 40
0
 40
0
 40
1
 40
1
 40
1
 40
1
 10
137.050786
 20
89.214537
 30
0.0
 10
138.822788
 20
89.214537
 30
0.0
 10
140.002477
 20
88.033789
 30
0.0
 10
140.002477
 20
86.262845
 30
0.0
  0
SPLINE
  5
29a
100
AcDbEntity
  8
text
 62
1
100
AcDbSpline
 70
8
 71
3
 72
8
 73
4
 74
0
 40
0
 40
0
 40
0
 40
0
 40
1
 40
1
 40
1
 40
1
 10
140.002477
 20
86.262845
 30
0.0
 10
140.002477
 20
84.492253
 30
0.0
 10
138.822788
 20
83.311153
 30
0.0
 10
137.050786
 20
83.311153
 30
0.0
  0
SPLINE
  5
29b
100
AcDbEntity
  8
text
 62
1
100
AcDbSpline
 70
8
 71
3
 72
8
 73
4
 74
0
 40
0
 40
0
 40
0
 40
0
 40
1
 40
1
 40
1
 40
1
 10
137.050786
 20
83.311153
 30
0.0
 10
135.279841
 20
83.311153
 30
0.0
 10
134.098741
 20
84.492253
 30
0.0
 10
134.098741
 20
86.262845
 30
0.0
  0
LWPOLYLINE
  5
29c
100
AcDbEntity
  8
text
 62
1
100
AcDbPolyline
 90
2
 70
0
 10
137.050786
 20
102.963698
 30
0.0
 10
137.050786
 20
105.325545
 30
0.0
  0
LWPOLYLINE
  5
29d
100
AcDbEntity
  8
text
 62
1
100
AcDbPolyline
 90
2
 70
0
 10
135.871097
 20
86.262845
 30
0.0
 10
138.231533
 20
86.262845
 30
0.0
  0
SPLINE
  5
29e
100
AcDbEntity
  8
text
 62
1
100
AcDbSpline
 70
8
 71
3
 72
8
 73
4
 74
0
 40
0
 40
0
 40
0
 40
0
 40
1
 40
1
 40
1
 40
1
 10
134.098741
 20
68.559045
 30
0.0
 10
134.098741
 20
70.329989
 30
0.0
 10
135.279841
 20
71.510737
 30
0.0
 10
137.050786
 20
71.510737
 30
0.0
  0
SPLINE
  5
29f
100
AcDbEntity
  8
text
 62
1
100
AcDbSpline
 70
8
 71
3
 72
8
 73
4
 74
0
 40
0
 40
0
 40
0
 40
0
 40
1
 40
1
 40
1
 40
1
 10
137.050786
 20
71.510737
 30
0.0
 10
138.822788
 20
71.510737
 30
0.0
 10
140.002477
 20
70.329989
 30
0.0
 10
140.002477
 20
68.559045
 30
0.0
  0
SPLINE
  5
2a0
100
AcDbEntity
  8
text
 62
1
100
AcDbSpline
 70
8
 71
3
 72
8
 73
4
 74
0
 40
0
 40
0
 40
0
 40
0
 40
1
 40
1
 40
1
 40
1
 10
140.002477
 20
68.559045
 30
0.0
 10
140.002477
 20
66.788453
 30
0.0
 10
138.822788
 20
65.607353
 30
0.0
 10
137.050786
 20
65.607353
 30
0.0
  0
SPLINE
  5
2a1
100
AcDbEntity
  8
text
 62
1
100
AcDbSpline
 70
8
 71
3
 72
8
 73
4
 74
0
 40
0
 40
0
 40
0
 40
0
 40
1
 40
1
 40
1
 40
1
 10
137.050786
 20
65.607353
 30
0.0
 10
135.279841
 20
65.607353
 30
0.0
 10
134.098741
 20
66.788453
 30
0.0
 10
134.098741
 20
68.559045
 30
0.0
  0
LWPOLYLINE
  5
2a2
100
AcDbEntity
  8
text
 62
1
100
AcDbPolyline
 90
2
 70
0
 10
137.050786
 20
85.082098
 30
0.0
 10
137.050786
 20
87.443945
 30
0.0
  0
LWPOLYLINE
  5
2a3
100
AcDbEntity
  8
text
 62
1
100
AcDbPolyline
 90
2
 70
0
 10
135.871097
 20
68.559045
 30
0.0
 10
138.231533
 20
68.559045
 30
0.0
  0
SPLINE
  5
2a4
100
AcDbEntity
  8
text
 62
1
100
AcDbSpline
 70
8
 71
3
 72
8
 73
4
 74
0
 40
0
 40
0
 40
0
 40
0
 40
1
 40
1
 40
1
 40
1
 10
134.098741
 20
50.779045
 30
0.0
 10
134.098741
 20
52.549989
 30
0.0
 10
135.279841
 20
53.730737
 30
0.0
 10
137.050786
 20
53.730737
 30
0.0
  0
SPLINE
  5
2a5
100
AcDbEntity
  8
text
 62
1
100
AcDbSpline
 70
8
 71
3
 72
8
 73
4
 74
0
 40
0
 40
0
 40
0
 40
0
 40
1
 40
1
 40
1
 40
1
 10
137.050786
 20
53.730737
 30
0.0
 10
138.822788
 20
53.730737
 30
0.0
 10
140.002477
 20
52.549989
 30
0.0
 10
140.002477
 20
50.779045
 30
0.0
  0
SPLINE
  5
2a6
100
AcDbEntity
  8
text
 62
1
100
AcDbSpline
 70
8
 71
3
 72
8
 73
4
 74
0
 40
0
 40
0
 40
0
 40
0
 40
1
 40
1
 40
1
 40
1
 10
140.002477
 20
50.779045
 30
0.0
 10
140.002477
 20
49.008453
 30
0.0
 10
138.822788
 20
47.827353
 30
0.0
 10
137.050786
 20
47.827353
 30
0.0
  0
SPLINE
  5
2a7
100
AcDbEntity
  8
text
 62
1
100
AcDbSpline
 70
8
 71
3
 72
8
 73
4
 74
0
 40
0
 40
0
 40
0
 40
0
 40
1
 40
1
 40
1
 40
1
 10
137.050786
 20
47.827353
 30
0.0
 10
135.279841
 20
47.827353
 30
0.0
 10
134.098741
 20
49.008453
 30
0.0
 10
134.098741
 20
50.779045
 30
0.0
  0
LWPOLYLINE
  5
2a8
100
AcDbEntity
  8
text
 62
1
100
AcDbPolyline
 90
2
 70
0
 10
137.050786
 20
67.378298
 30
0.0
 10
137.050786
 20
69.740145
 30
0.0
  0
LWPOLYLINE
  5
2a9
100
AcDbEntity
  8
text
 62
1
100
AcDbPolyline
 90
2
 70
0
 10
135.871097
 20
50.779045
 30
0.0
 10
138.231533
 20
50.779045
 30
0.0
  0
LWPOLYLINE
  5
2aa
100
AcDbEntity
  8
text
 62
1
100
AcDbPolyline
 90
2
 70
0
 10
137.050786
 20
49.598298
 30
0.0
 10
137.050786
 20
51.960145
 30
0.0
  0
LWPOLYLINE
  5
2ab
100
AcDbEntity
  8
text
 62
1
100
AcDbPolyline
 90
6
 70
0
 10
113.614716
 20
102.886933
 30
0.0
 10
117.609488
 20
102.886933
 30
0.0
 10
117.609488
 20
105.881887
 30
0.0
 10
120.890909
 20
105.881887
 30
0.0
 10
120.890909
 20
102.885756
 30
0.0
 10
124.633008
 20
102.885756
 30
0.0
  0
SPLINE
  5
2ac
100
AcDbEntity
  8
text
 62
1
100
AcDbSpline
 70
8
 71
3
 72
8
 73
4
 74
0
 40
0
 40
0
 40
0
 40
0
 40
1
 40
1
 40
1
 40
1
 10
195.240173
 20
139.481229
 30
0.0
 10
195.240173
 20
139.348686
 30
0.0
 10
195.121982
 20
139.241238
 30
0.0
 10
194.976184
 20
139.241238
 30
0.0
  0
SPLINE
  5
2ad
100
AcDbEntity
  8
text
 62
1
100
AcDbSpline
 70
8
 71
3
 72
8
 73
4
 74
0
 40
0
 40
0
 40
0
 40
0
 40
1
 40
1
 40
1
 40
1
 10
194.976184
 20
139.241238
 30
0.0
 10
194.830387
 20
139.241238
 30
0.0
 10
194.712195
 20
139.348686
 30
0.0
 10
194.712195
 20
139.481229
 30
0.0
  0
SPLINE
  5
2ae
100
AcDbEntity
  8
text
 62
1
100
AcDbSpline
 70
8
 71
3
 72
8
 73
4
 74
0
 40
0
 40
0
 40
0
 40
0
 40
1
 40
1
 40
1
 40
1
 10
194.712195
 20
139.481229
 30
0.0
 10
194.712195
 20
139.613772
 30
0.0
 10
194.830387
 20
139.721219
 30
0.0
 10
194.976184
 20
139.721219
 30
0.0
  0
SPLINE
  5
2af
100
AcDbEntity
  8
text
 62
1
100
AcDbSpline
 70
8
 71
3
 72
8
 73
4
 74
0
 40
0
 40
0
 40
0
 40
0
 40
1
 40
1
 40
1
 40
1
 10
194.976184
 20
139.721219
 30
0.0
 10
195.121982
 20
139.721219
 30
0.0
 10
195.240174
 20
139.613772
 30
0.0
 10
195.240173
 20
139.481229
 30
0.0
  0
LWPOLYLINE
  5
2b0
100
AcDbEntity
  8
text
 62
7
100
AcDbPolyline
 90
6
 70
0
 10
176.363275
 20
14.542033
 30
0.0
 10
160.886966
 20
14.542033
 30
0.0
 10
160.886966
 20
142.698799
 30
0.0
 10
203.739693
 20
142.698799
 30
0.0
 10
203.739693
 20
14.542033
 30
0.0
 10
160.886966
 20
14.542033
 30
0.0
  0
SPLINE
  5
2b1
100
AcDbEntity
  8
text
 62
1
100
AcDbSpline
 70
8
 71
3
 72
8
 73
4
 74
0
 40
0
 40
0
 40
0
 40
0
 40
1
 40
1
 40
1
 40
1
 10
169.792178
 20
18.165896
 30
0.0
 10
169.792178
 20
18.121341
 30
0.0
 10
169.769422
 20
18.078610
 30
0.0
 10
169.728915
 20
18.047105
 30
0.0
  0
SPLINE
  5
2b2
100
AcDbEntity
  8
text
 62
1
100
AcDbSpline
 70
8
 71
3
 72
8
 73
4
 74
0
 40
0
 40
0
 40
0
 40
0
 40
1
 40
1
 40
1
 40
1
 10
169.728915
 20
18.047105
 30
0.0
 10
169.688408
 20
18.015600
 30
0.0
 10
169.633469
 20
17.997901
 30
0.0
 10
169.576184
 20
17.997901
 30
0.0
  0
SPLINE
  5
2b3
100
AcDbEntity
  8
text
 62
1
100
AcDbSpline
 70
8
 71
3
 72
8
 73
4
 74
0
 40
0
 40
0
 40
0
 40
0
 40
1
 40
1
 40
1
 40
1
 10
169.576184
 20
17.997901
 30
0.0
 10
169.518900
 20
17.997901
 30
0.0
 10
169.463961
 20
18.015601
 30
0.0
 10
169.423455
 20
18.047106
 30
0.0
  0
SPLINE
  5
2b4
100
AcDbEntity
  8
text
 62
1
100
AcDbSpline
 70
8
 71
3
 72
8
 73
4
 74
0
 40
0
 40
0
 40
0
 40
0
 40
1
 40
1
 40
1
 40
1
 10
169.423455
 20
18.047106
 30
0.0
 10
169.382949
 20
18.078611
 30
0.0
 10
169.360194
 20
18.121341
 30
0.0
 10
169.360194
 20
18.165896
 30
0.0
  0
SPLINE
  5
2b5
100
AcDbEntity
  8
text
 62
1
100
AcDbSpline
 70
8
 71
3
 72
8
 73
4
 74
0
 40
0
 40
0
 40
0
 40
0
 40
1
 40
1
 40
1
 40
1
 10
169.360194
 20
18.165896
 30
0.0
 10
169.360194
 20
18.210450
 30
0.0
 10
169.382949
 20
18.253180
 30
0.0
 10
169.423455
 20
18.284686
 30
0.0
  0
SPLINE
  5
2b6
100
AcDbEntity
  8
text
 62
1
100
AcDbSpline
 70
8
 71
3
 72
8
 73
4
 74
0
 40
0
 40
0
 40
0
 40
0
 40
1
 40
1
 40
1
 40
1
 10
169.423455
 20
18.284686
 30
0.0
 10
169.463961
 20
18.316191
 30
0.0
 10
169.518900
 20
18.333890
 30
0.0
 10
169.576184
 20
18.333891
 30
0.0
  0
SPLINE
  5
2b7
100
AcDbEntity
  8
text
 62
1
100
AcDbSpline
 70
8
 71
3
 72
8
 73
4
 74
0
 40
0
 40
0
 40
0
 40
0
 40
1
 40
1
 40
1
 40
1
 10
169.576184
 20
18.333891
 30
0.0
 10
169.633469
 20
18.333891
 30
0.0
 10
169.688408
 20
18.316192
 30
0.0
 10
169.728915
 20
18.284687
 30
0.0
  0
SPLINE
  5
2b8
100
AcDbEntity
  8
text
 62
1
100
AcDbSpline
 70
8
 71
3
 72
8
 73
4
 74
0
 40
0
 40
0
 40
0
 40
0
 40
1
 40
1
 40
1
 40
1
 10
169.728915
 20
18.284687
 30
0.0
 10
169.769422
 20
18.253181
 30
0.0
 10
169.792178
 20
18.210451
 30
0.0
 10
169.792178
 20
18.165896
 30
0.0
  0
LWPOLYLINE
  5
2b9
100
AcDbEntity
  8
text
 62
1
100
AcDbPolyline
 90
2
 70
1
 10
195.240173
 20
139.481229
 30
0.0
 10
195.240173
 20
139.481229
 30
0.0
  0
SPLINE
  5
2ba
100
AcDbEntity
  8
text
 62
7
100
AcDbSpline
 70
8
 71
3
 72
8
 73
4
 74
0
 40
0
 40
0
 40
0
 40
0
 40
1
 40
1
 40
1
 40
1
 10
188.013340
 20
100.272848
 30
0.0
 10
188.013340
 20
100.215563
 30
0.0
 10
187.988055
 20
100.160625
 30
0.0
 10
187.943048
 20
100.120118
 30
0.0
  0
SPLINE
  5
2bb
100
AcDbEntity
  8
text
 62
7
100
AcDbSpline
 70
8
 71
3
 72
8
 73
4
 74
0
 40
0
 40
0
 40
0
 40
0
 40
1
 40
1
 40
1
 40
1
 10
187.943048
 20
100.120118
 30
0.0
 10
187.898041
 20
100.079612
 30
0.0
 10
187.836998
 20
100.056856
 30
0.0
 10
187.773348
 20
100.056856
 30
0.0
  0
SPLINE
  5
2bc
100
AcDbEntity
  8
text
 62
7
100
AcDbSpline
 70
8
 71
3
 72
8
 73
4
 74
0
 40
0
 40
0
 40
0
 40
0
 40
1
 40
1
 40
1
 40
1
 10
187.773348
 20
100.056856
 30
0.0
 10
187.709699
 20
100.056856
 30
0.0
 10
187.648656
 20
100.079612
 30
0.0
 10
187.603649
 20
100.120118
 30
0.0
  0
SPLINE
  5
2bd
100
AcDbEntity
  8
text
 62
7
100
AcDbSpline
 70
8
 71
3
 72
8
 73
4
 74
0
 40
0
 40
0
 40
0
 40
0
 40
1
 40
1
 40
1
 40
1
 10
187.603649
 20
100.120118
 30
0.0
 10
187.558642
 20
100.160625
 30
0.0
 10
187.533357
 20
100.215563
 30
0.0
 10
187.533357
 20
100.272848
 30
0.0
  0
SPLINE
  5
2be
100
AcDbEntity
  8
text
 62
7
100
AcDbSpline
 70
8
 71
3
 72
8
 73
4
 74
0
 40
0
 40
0
 40
0
 40
0
 40
1
 40
1
 40
1
 40
1
 10
187.533357
 20
100.272848
 30
0.0
 10
187.533357
 20
100.330132
 30
0.0
 10
187.558642
 20
100.385071
 30
0.0
 10
187.603649
 20
100.425577
 30
0.0
  0
SPLINE
  5
2bf
100
AcDbEntity
  8
text
 62
7
100
AcDbSpline
 70
8
 71
3
 72
8
 73
4
 74
0
 40
0
 40
0
 40
0
 40
0
 40
1
 40
1
 40
1
 40
1
 10
187.603649
 20
100.425577
 30
0.0
 10
187.648656
 20
100.466083
 30
0.0
 10
187.709699
 20
100.488840
 30
0.0
 10
187.773348
 20
100.488839
 30
0.0
  0
SPLINE
  5
2c0
100
AcDbEntity
  8
text
 62
7
100
AcDbSpline
 70
8
 71
3
 72
8
 73
4
 74
0
 40
0
 40
0
 40
0
 40
0
 40
1
 40
1
 40
1
 40
1
 10
187.773348
 20
100.488839
 30
0.0
 10
187.836998
 20
100.488840
 30
0.0
 10
187.898041
 20
100.466083
 30
0.0
 10
187.943048
 20
100.425577
 30
0.0
  0
SPLINE
  5
2c1
100
AcDbEntity
  8
text
 62
7
100
AcDbSpline
 70
8
 71
3
 72
8
 73
4
 74
0
 40
0
 40
0
 40
0
 40
0
 40
1
 40
1
 40
1
 40
1
 10
187.943048
 20
100.425577
 30
0.0
 10
187.988055
 20
100.385071
 30
0.0
 10
188.013340
 20
100.330132
 30
0.0
 10
188.013340
 20
100.272848
 30
0.0
  0
LWPOLYLINE
  5
2c2
100
AcDbEntity
  8
text
 62
1
100
AcDbPolyline
 90
2
 70
1
 10
169.792178
 20
18.165896
 30
0.0
 10
169.792178
 20
18.165896
 30
0.0
  0
SPLINE
  5
2c3
100
AcDbEntity
  8
text
 62
1
100
AcDbSpline
 70
8
 71
3
 72
8
 73
4
 74
0
 40
0
 40
0
 40
0
 40
0
 40
1
 40
1
 40
1
 40
1
 10
176.996519
 20
121.961159
 30
0.0
 10
176.996519
 20
123.732104
 30
0.0
 10
178.177619
 20
124.912851
 30
0.0
 10
179.948563
 20
124.912851
 30
0.0
  0
SPLINE
  5
2c4
100
AcDbEntity
  8
text
 62
1
100
AcDbSpline
 70
8
 71
3
 72
8
 73
4
 74
0
 40
0
 40
0
 40
0
 40
0
 40
1
 40
1
 40
1
 40
1
 10
179.948563
 20
124.912851
 30
0.0
 10
181.720566
 20
124.912851
 30
0.0
 10
182.900255
 20
123.732104
 30
0.0
 10
182.900255
 20
121.961159
 30
0.0
  0
SPLINE
  5
2c5
100
AcDbEntity
  8
text
 62
1
100
AcDbSpline
 70
8
 71
3
 72
8
 73
4
 74
0
 40
0
 40
0
 40
0
 40
0
 40
1
 40
1
 40
1
 40
1
 10
182.900255
 20
121.961159
 30
0.0
 10
182.900255
 20
120.190568
 30
0.0
 10
181.720566
 20
119.009468
 30
0.0
 10
179.948563
 20
119.009468
 30
0.0
  0
SPLINE
  5
2c6
100
AcDbEntity
  8
text
 62
1
100
AcDbSpline
 70
8
 71
3
 72
8
 73
4
 74
0
 40
0
 40
0
 40
0
 40
0
 40
1
 40
1
 40
1
 40
1
 10
179.948563
 20
119.009468
 30
0.0
 10
178.177619
 20
119.009468
 30
0.0
 10
176.996519
 20
120.190568
 30
0.0
 10
176.996519
 20
121.961159
 30
0.0
  0
LWPOLYLINE
  5
2c7
100
AcDbEntity
  8
text
 62
7
100
AcDbPolyline
 90
2
 70
1
 10
188.013340
 20
100.272848
 30
0.0
 10
188.013340
 20
100.272848
 30
0.0
  0
LWPOLYLINE
  5
2c8
100
AcDbEntity
  8
text
 62
1
100
AcDbPolyline
 90
2
 70
0
 10
178.768875
 20
121.961159
 30
0.0
 10
181.129311
 20
121.961159
 30
0.0
  0
SPLINE
  5
2c9
100
AcDbEntity
  8
text
 62
1
100
AcDbSpline
 70
8
 71
3
 72
8
 73
4
 74
0
 40
0
 40
0
 40
0
 40
0
 40
1
 40
1
 40
1
 40
1
 10
177.047319
 20
32.922845
 30
0.0
 10
177.047319
 20
34.693789
 30
0.0
 10
178.228419
 20
35.874537
 30
0.0
 10
179.999363
 20
35.874537
 30
0.0
  0
SPLINE
  5
2ca
100
AcDbEntity
  8
text
 62
1
100
AcDbSpline
 70
8
 71
3
 72
8
 73
4
 74
0
 40
0
 40
0
 40
0
 40
0
 40
1
 40
1
 40
1
 40
1
 10
179.999363
 20
35.874537
 30
0.0
 10
181.771366
 20
35.874537
 30
0.0
 10
182.951055
 20
34.693789
 30
0.0
 10
182.951055
 20
32.922845
 30
0.0
  0
SPLINE
  5
2cb
100
AcDbEntity
  8
text
 62
1
100
AcDbSpline
 70
8
 71
3
 72
8
 73
4
 74
0
 40
0
 40
0
 40
0
 40
0
 40
1
 40
1
 40
1
 40
1
 10
182.951055
 20
32.922845
 30
0.0
 10
182.951055
 20
31.152253
 30
0.0
 10
181.771366
 20
29.971153
 30
0.0
 10
179.999363
 20
29.971153
 30
0.0
  0
SPLINE
  5
2cc
100
AcDbEntity
  8
text
 62
1
100
AcDbSpline
 70
8
 71
3
 72
8
 73
4
 74
0
 40
0
 40
0
 40
0
 40
0
 40
1
 40
1
 40
1
 40
1
 10
179.999363
 20
29.971153
 30
0.0
 10
178.228419
 20
29.971153
 30
0.0
 10
177.047319
 20
31.152253
 30
0.0
 10
177.047319
 20
32.922845
 30
0.0
  0
LWPOLYLINE
  5
2cd
100
AcDbEntity
  8
text
 62
1
100
AcDbPolyline
 90
2
 70
0
 10
179.948563
 20
120.780412
 30
0.0
 10
179.948563
 20
123.142259
 30
0.0
  0
LWPOLYLINE
  5
2ce
100
AcDbEntity
  8
text
 62
1
100
AcDbPolyline
 90
2
 70
0
 10
178.819675
 20
32.922845
 30
0.0
 10
181.180111
 20
32.922845
 30
0.0
  0
SPLINE
  5
2cf
100
AcDbEntity
  8
text
 62
1
100
AcDbSpline
 70
8
 71
3
 72
8
 73
4
 74
0
 40
0
 40
0
 40
0
 40
0
 40
1
 40
1
 40
1
 40
1
 10
184.898741
 20
104.144445
 30
0.0
 10
184.898741
 20
105.915389
 30
0.0
 10
186.079841
 20
107.096137
 30
0.0
 10
187.850786
 20
107.096137
 30
0.0
  0
SPLINE
  5
2d0
100
AcDbEntity
  8
text
 62
1
100
AcDbSpline
 70
8
 71
3
 72
8
 73
4
 74
0
 40
0
 40
0
 40
0
 40
0
 40
1
 40
1
 40
1
 40
1
 10
187.850786
 20
107.096137
 30
0.0
 10
189.622788
 20
107.096137
 30
0.0
 10
190.802477
 20
105.915389
 30
0.0
 10
190.802477
 20
104.144445
 30
0.0
  0
SPLINE
  5
2d1
100
AcDbEntity
  8
text
 62
1
100
AcDbSpline
 70
8
 71
3
 72
8
 73
4
 74
0
 40
0
 40
0
 40
0
 40
0
 40
1
 40
1
 40
1
 40
1
 10
190.802477
 20
104.144445
 30
0.0
 10
190.802477
 20
102.373853
 30
0.0
 10
189.622788
 20
101.192753
 30
0.0
 10
187.850786
 20
101.192753
 30
0.0
  0
SPLINE
  5
2d2
100
AcDbEntity
  8
text
 62
1
100
AcDbSpline
 70
8
 71
3
 72
8
 73
4
 74
0
 40
0
 40
0
 40
0
 40
0
 40
1
 40
1
 40
1
 40
1
 10
187.850786
 20
101.192753
 30
0.0
 10
186.079841
 20
101.192753
 30
0.0
 10
184.898741
 20
102.373853
 30
0.0
 10
184.898741
 20
104.144445
 30
0.0
  0
LWPOLYLINE
  5
2d3
100
AcDbEntity
  8
text
 62
1
100
AcDbPolyline
 90
2
 70
0
 10
179.999363
 20
31.742098
 30
0.0
 10
179.999363
 20
34.103945
 30
0.0
  0
LWPOLYLINE
  5
2d4
100
AcDbEntity
  8
text
 62
1
100
AcDbPolyline
 90
2
 70
0
 10
186.671097
 20
104.144445
 30
0.0
 10
189.031533
 20
104.144445
 30
0.0
  0
SPLINE
  5
2d5
100
AcDbEntity
  8
text
 62
1
100
AcDbSpline
 70
8
 71
3
 72
8
 73
4
 74
0
 40
0
 40
0
 40
0
 40
0
 40
1
 40
1
 40
1
 40
1
 10
184.898741
 20
86.262845
 30
0.0
 10
184.898741
 20
88.033789
 30
0.0
 10
186.079841
 20
89.214537
 30
0.0
 10
187.850786
 20
89.214537
 30
0.0
  0
SPLINE
  5
2d6
100
AcDbEntity
  8
text
 62
1
100
AcDbSpline
 70
8
 71
3
 72
8
 73
4
 74
0
 40
0
 40
0
 40
0
 40
0
 40
1
 40
1
 40
1
 40
1
 10
187.850786
 20
89.214537
 30
0.0
 10
189.622788
 20
89.214537
 30
0.0
 10
190.802477
 20
88.033789
 30
0.0
 10
190.802477
 20
86.262845
 30
0.0
  0
SPLINE
  5
2d7
100
AcDbEntity
  8
text
 62
1
100
AcDbSpline
 70
8
 71
3
 72
8
 73
4
 74
0
 40
0
 40
0
 40
0
 40
0
 40
1
 40
1
 40
1
 40
1
 10
190.802477
 20
86.262845
 30
0.0
 10
190.802477
 20
84.492253
 30
0.0
 10
189.622788
 20
83.311153
 30
0.0
 10
187.850786
 20
83.311153
 30
0.0
  0
SPLINE
  5
2d8
100
AcDbEntity
  8
text
 62
1
100
AcDbSpline
 70
8
 71
3
 72
8
 73
4
 74
0
 40
0
 40
0
 40
0
 40
0
 40
1
 40
1
 40
1
 40
1
 10
187.850786
 20
83.311153
 30
0.0
 10
186.079841
 20
83.311153
 30
0.0
 10
184.898741
 20
84.492253
 30
0.0
 10
184.898741
 20
86.262845
 30
0.0
  0
LWPOLYLINE
  5
2d9
100
AcDbEntity
  8
text
 62
1
100
AcDbPolyline
 90
2
 70
0
 10
187.850786
 20
102.963698
 30
0.0
 10
187.850786
 20
105.325545
 30
0.0
  0
LWPOLYLINE
  5
2da
100
AcDbEntity
  8
text
 62
1
100
AcDbPolyline
 90
2
 70
0
 10
186.671097
 20
86.262845
 30
0.0
 10
189.031533
 20
86.262845
 30
0.0
  0
SPLINE
  5
2db
100
AcDbEntity
  8
text
 62
1
100
AcDbSpline
 70
8
 71
3
 72
8
 73
4
 74
0
 40
0
 40
0
 40
0
 40
0
 40
1
 40
1
 40
1
 40
1
 10
184.898741
 20
68.559045
 30
0.0
 10
184.898741
 20
70.329989
 30
0.0
 10
186.079841
 20
71.510737
 30
0.0
 10
187.850786
 20
71.510737
 30
0.0
  0
SPLINE
  5
2dc
100
AcDbEntity
  8
text
 62
1
100
AcDbSpline
 70
8
 71
3
 72
8
 73
4
 74
0
 40
0
 40
0
 40
0
 40
0
 40
1
 40
1
 40
1
 40
1
 10
187.850786
 20
71.510737
 30
0.0
 10
189.622788
 20
71.510737
 30
0.0
 10
190.802477
 20
70.329989
 30
0.0
 10
190.802477
 20
68.559045
 30
0.0
  0
SPLINE
  5
2dd
100
AcDbEntity
  8
text
 62
1
100
AcDbSpline
 70
8
 71
3
 72
8
 73
4
 74
0
 40
0
 40
0
 40
0
 40
0
 40
1
 40
1
 40
1
 40
1
 10
190.802477
 20
68.559045
 30
0.0
 10
190.802477
 20
66.788453
 30
0.0
 10
189.622788
 20
65.607353
 30
0.0
 10
187.850786
 20
65.607353
 30
0.0
  0
SPLINE
  5
2de
100
AcDbEntity
  8
text
 62
1
100
AcDbSpline
 70
8
 71
3
 72
8
 73
4
 74
0
 40
0
 40
0
 40
0
 40
0
 40
1
 40
1
 40
1
 40
1
 10
187.850786
 20
65.607353
 30
0.0
 10
186.079841
 20
65.607353
 30
0.0
 10
184.898741
 20
66.788453
 30
0.0
 10
184.898741
 20
68.559045
 30
0.0
  0
LWPOLYLINE
  5
2df
100
AcDbEntity
  8
text
 62
1
100
AcDbPolyline
 90
2
 70
0
 10
187.850786
 20
85.082098
 30
0.0
 10
187.850786
 20
87.443945
 30
0.0
  0
LWPOLYLINE
  5
2e0
100
AcDbEntity
  8
text
 62
1
100
AcDbPolyline
 90
2
 70
0
 10
186.671097
 20
68.559045
 30
0.0
 10
189.031533
 20
68.559045
 30
0.0
  0
SPLINE
  5
2e1
100
AcDbEntity
  8
text
 62
1
100
AcDbSpline
 70
8
 71
3
 72
8
 73
4
 74
0
 40
0
 40
0
 40
0
 40
0
 40
1
 40
1
 40
1
 40
1
 10
184.898741
 20
50.779045
 30
0.0
 10
184.898741
 20
52.549989
 30
0.0
 10
186.079841
 20
53.730737
 30
0.0
 10
187.850786
 20
53.730737
 30
0.0
  0
SPLINE
  5
2e2
100
AcDbEntity
  8
text
 62
1
100
AcDbSpline
 70
8
 71
3
 72
8
 73
4
 74
0
 40
0
 40
0
 40
0
 40
0
 40
1
 40
1
 40
1
 40
1
 10
187.850786
 20
53.730737
 30
0.0
 10
189.622788
 20
53.730737
 30
0.0
 10
190.802477
 20
52.549989
 30
0.0
 10
190.802477
 20
50.779045
 30
0.0
  0
SPLINE
  5
2e3
100
AcDbEntity
  8
text
 62
1
100
AcDbSpline
 70
8
 71
3
 72
8
 73
4
 74
0
 40
0
 40
0
 40
0
 40
0
 40
1
 40
1
 40
1
 40
1
 10
190.802477
 20
50.779045
 30
0.0
 10
190.802477
 20
49.008453
 30
0.0
 10
189.622788
 20
47.827353
 30
0.0
 10
187.850786
 20
47.827353
 30
0.0
  0
SPLINE
  5
2e4
100
AcDbEntity
  8
text
 62
1
100
AcDbSpline
 70
8
 71
3
 72
8
 73
4
 74
0
 40
0
 40
0
 40
0
 40
0
 40
1
 40
1
 40
1
 40
1
 10
187.850786
 20
47.827353
 30
0.0
 10
186.079841
 20
47.827353
 30
0.0
 10
184.898741
 20
49.008453
 30
0.0
 10
184.898741
 20
50.779045
 30
0.0
  0
LWPOLYLINE
  5
2e5
100
AcDbEntity
  8
text
 62
1
100
AcDbPolyline
 90
2
 70
0
 10
187.850786
 20
67.378298
 30
0.0
 10
187.850786
 20
69.740145
 30
0.0
  0
LWPOLYLINE
  5
2e6
100
AcDbEntity
  8
text
 62
1
100
AcDbPolyline
 90
2
 70
0
 10
186.671097
 20
50.779045
 30
0.0
 10
189.031533
 20
50.779045
 30
0.0
  0
LWPOLYLINE
  5
2e7
100
AcDbEntity
  8
text
 62
1
100
AcDbPolyline
 90
2
 70
0
 10
187.850786
 20
49.598298
 30
0.0
 10
187.850786
 20
51.960145
 30
0.0
  0
LWPOLYLINE
  5
2e8
100
AcDbEntity
  8
text
 62
1
100
AcDbPolyline
 90
6
 70
0
 10
164.414716
 20
102.886933
 30
0.0
 10
168.409488
 20
102.886933
 30
0.0
 10
168.409488
 20
105.881887
 30
0.0
 10
171.690909
 20
105.881887
 30
0.0
 10
171.690909
 20
102.885756
 30
0.0
 10
175.433008
 20
102.885756
 30
0.0
  0
ENDSEC
  0
SECTION
  2
OBJECTS
  0
DICTIONARY
  5
C
330
0
100
AcDbDictionary
  3
ACAD_GROUP
350
D
  3
ACAD_MLINESTYLE
350
17
  0
DICTIONARY
  5
D
330
C
100
AcDbDictionary
  0
DICTIONARY
  5
1A
330
C
100
AcDbDictionary
  0
DICTIONARY
  5
17
330
C
100
AcDbDictionary
  3
STANDARD
350
18
  0
DICTIONARY
  5
19
330
C
100
AcDbDictionary
  0
ENDSEC
  0
EOF
