  0
SECTION
  2
HEADER
  9
$ACADVER
  1
AC1014
  9
$HANDSEED
  5
FFFF
  9
$MEASUREMENT
 70
     1
  0
ENDSEC
  0
SECTION
  2
TABLES
  0
TABLE
  2
VPORT
  5
8
330
0
100
AcDbSymbolTable
 70
     4
  0
VPORT
  5
2E
330
8
100
AcDbSymbolTableRecord
100
AcDbViewportTableRecord
  2
*ACTIVE
 70
     0
 10
0.0
 20
0.0
 11
1.0
 21
1.0
 12
210.0
 22
148.5
 13
0.0
 23
0.0
 14
10.0
 24
10.0
 15
10.0
 25
10.0
 16
0.0
 26
0.0
 36
1.0
 17
0.0
 27
0.0
 37
0.0
 40
341.0
 41
1.24
 42
50.0
 43
0.0
 44
0.0
 50
0.0
 51
0.0
 71
     0
 72
   100
 73
     1
 74
     3
 75
     0
 76
     0
 77
     0
 78
     0
  0
ENDTAB
  0
TABLE
  2
LTYPE
  5
5
330
0
100
AcDbSymbolTable
 70
     1
  0
LTYPE
  5
14
330
5
100
AcDbSymbolTableRecord
100
AcDbLinetypeTableRecord
  2
BYBLOCK
 70
     0
  3

 72
    65
 73
     0
 40
0.0
  0
LTYPE
  5
15
330
5
100
AcDbSymbolTableRecord
100
AcDbLinetypeTableRecord
  2
BYLAYER
 70
     0
  3

 72
    65
 73
     0
 40
0.0
  0
LTYPE
  5
16
330
5
100
AcDbSymbolTableRecord
100
AcDbLinetypeTableRecord
  2
CONTINUOUS
 70
     0
  3
Solid line
 72
    65
 73
     0
 40
0.0
  0
ENDTAB
  0
TABLE
  2
LAYER
  5
2
100
AcDbSymbolTable
 70
5
  0
LAYER
  5
50
100
AcDbSymbolTableRecord
100
AcDbLayerTableRecord
  2
0
 70
0
  6
CONTINUOUS
  0
LAYER
  5
51
100
AcDbSymbolTableRecord
100
AcDbLayerTableRecord
  2
mfos_vco_VI_panel_2
 70
0
  6
CONTINUOUS
  0
LAYER
  5
52
100
AcDbSymbolTableRecord
100
AcDbLayerTableRecord
  2
holes
 70
0
  6
CONTINUOUS
  0
LAYER
  5
53
100
AcDbSymbolTableRecord
100
AcDbLayerTableRecord
  2
text
 70
0
  6
CONTINUOUS
  0
LAYER
  5
54
100
AcDbSymbolTableRecord
100
AcDbLayerTableRecord
  2
overlay#1
 70
0
  6
CONTINUOUS
  0
ENDTAB
  0
TABLE
  2
STYLE
  5
3
330
0
100
AcDbSymbolTable
 70
     1
  0
STYLE
  5
11
330
3
100
AcDbSymbolTableRecord
100
AcDbTextStyleTableRecord
  2
STANDARD
 70
     0
 40
0.0
 41
1.0
 50
0.0
 71
     0
 42
2.5
  3
txt
  4

  0
ENDTAB
  0
TABLE
  2
VIEW
  5
6
330
0
100
AcDbSymbolTable
 70
     0
  0
ENDTAB
  0
TABLE
  2
UCS
  5
7
330
0
100
AcDbSymbolTable
 70
     0
  0
ENDTAB
  0
TABLE
  2
APPID
  5
9
330
0
100
AcDbSymbolTable
 70
     2
  0
APPID
  5
12
330
9
100
AcDbSymbolTableRecord
100
AcDbRegAppTableRecord
  2
ACAD
 70
     0
  0
ENDTAB
  0
TABLE
  2
DIMSTYLE
  5
A
330
0
100
AcDbSymbolTable
 70
     1
  0
DIMSTYLE
105
27
330
A
100
AcDbSymbolTableRecord
100
AcDbDimStyleTableRecord
  2
ISO-25
 70
     0
  3

  4

  5

  6

  7

 40
1.0
 41
2.5
 42
0.625
 43
3.75
 44
1.25
 45
0.0
 46
0.0
 47
0.0
 48
0.0
140
2.5
141
2.5
142
0.0
143
0.03937007874016
144
1.0
145
0.0
146
1.0
147
0.625
 71
     0
 72
     0
 73
     0
 74
     0
 75
     0
 76
     0
 77
     1
 78
     8
170
     0
171
     3
172
     1
173
     0
174
     0
175
     0
176
     0
177
     0
178
     0
270
     2
271
     2
272
     2
273
     2
274
     3
340
11
275
     0
280
     0
281
     0
282
     0
283
     0
284
     8
285
     0
286
     0
287
     3
288
     0
  0
ENDTAB
  0
TABLE
  2
BLOCK_RECORD
  5
1
330
0
100
AcDbSymbolTable
 70
     1
  0
BLOCK_RECORD
  5
1F
330
1
100
AcDbSymbolTableRecord
100
AcDbBlockTableRecord
  2
*MODEL_SPACE
  0
BLOCK_RECORD
  5
1B
330
1
100
AcDbSymbolTableRecord
100
AcDbBlockTableRecord
  2
*PAPER_SPACE
  0
ENDTAB
  0
ENDSEC
  0
SECTION
  2
BLOCKS
  0
BLOCK
  5
20
330
1F
100
AcDbEntity
  8
0
100
AcDbBlockBegin
  2
*MODEL_SPACE
 70
     0
 10
0.0
 20
0.0
 30
0.0
  3
*MODEL_SPACE
  1

  0
ENDBLK
  5
21
330
1F
100
AcDbEntity
  8
0
100
AcDbBlockEnd
  0
BLOCK
  5
1C
330
1B
100
AcDbEntity
 67
     1
  8
0
100
AcDbBlockBegin
  2
*PAPER_SPACE
  1

  0
ENDBLK
  5
1D
330
1B
100
AcDbEntity
 67
     1
  8
0
100
AcDbBlockEnd
  0
ENDSEC
  0
SECTION
  2
ENTITIES
  0
LWPOLYLINE
  5
100
100
AcDbEntity
  8
text
 62
1
100
AcDbPolyline
 90
5
 70
1
 10
12.470749
 20
780.450632
 30
0.0
 10
588.496141
 20
780.450632
 30
0.0
 10
588.496141
 20
23.053952
 30
0.0
 10
12.470749
 20
23.053952
 30
0.0
 10
12.470749
 20
780.450632
 30
0.0
  0
SPLINE
  5
101
100
AcDbEntity
  8
text
 62
1
100
AcDbSpline
 70
8
 71
3
 72
8
 73
4
 74
0
 40
0
 40
0
 40
0
 40
0
 40
1
 40
1
 40
1
 40
1
 10
121.436712
 20
769.779861
 30
0.0
 10
121.437276
 20
769.536477
 30
0.0
 10
121.294771
 20
769.311361
 30
0.0
 10
121.063010
 20
769.189521
 30
0.0
  0
SPLINE
  5
102
100
AcDbEntity
  8
text
 62
1
100
AcDbSpline
 70
8
 71
3
 72
8
 73
4
 74
0
 40
0
 40
0
 40
0
 40
0
 40
1
 40
1
 40
1
 40
1
 10
121.063010
 20
769.189521
 30
0.0
 10
120.831248
 20
769.067681
 30
0.0
 10
120.545544
 20
769.067681
 30
0.0
 10
120.313783
 20
769.189521
 30
0.0
  0
SPLINE
  5
103
100
AcDbEntity
  8
text
 62
1
100
AcDbSpline
 70
8
 71
3
 72
8
 73
4
 74
0
 40
0
 40
0
 40
0
 40
0
 40
1
 40
1
 40
1
 40
1
 10
120.313783
 20
769.189521
 30
0.0
 10
120.082022
 20
769.311361
 30
0.0
 10
119.939517
 20
769.536477
 30
0.0
 10
119.940080
 20
769.779861
 30
0.0
  0
SPLINE
  5
104
100
AcDbEntity
  8
text
 62
1
100
AcDbSpline
 70
8
 71
3
 72
8
 73
4
 74
0
 40
0
 40
0
 40
0
 40
0
 40
1
 40
1
 40
1
 40
1
 10
119.940080
 20
769.779861
 30
0.0
 10
119.939517
 20
770.023245
 30
0.0
 10
120.082022
 20
770.248361
 30
0.0
 10
120.313783
 20
770.370201
 30
0.0
  0
SPLINE
  5
105
100
AcDbEntity
  8
text
 62
1
100
AcDbSpline
 70
8
 71
3
 72
8
 73
4
 74
0
 40
0
 40
0
 40
0
 40
0
 40
1
 40
1
 40
1
 40
1
 10
120.313783
 20
770.370201
 30
0.0
 10
120.545544
 20
770.492041
 30
0.0
 10
120.831248
 20
770.492041
 30
0.0
 10
121.063010
 20
770.370201
 30
0.0
  0
SPLINE
  5
106
100
AcDbEntity
  8
text
 62
1
100
AcDbSpline
 70
8
 71
3
 72
8
 73
4
 74
0
 40
0
 40
0
 40
0
 40
0
 40
1
 40
1
 40
1
 40
1
 10
121.063010
 20
770.370201
 30
0.0
 10
121.294771
 20
770.248361
 30
0.0
 10
121.437276
 20
770.023245
 30
0.0
 10
121.436712
 20
769.779861
 30
0.0
  0
LWPOLYLINE
  5
107
100
AcDbEntity
  8
text
 62
7
100
AcDbPolyline
 90
6
 70
0
 10
67.927395
 20
415.621512
 30
0.0
 10
24.057542
 20
415.621512
 30
0.0
 10
24.057542
 20
778.900531
 30
0.0
 10
145.529838
 20
778.900531
 30
0.0
 10
145.529838
 20
415.621512
 30
0.0
 10
24.057542
 20
415.621512
 30
0.0
  0
SPLINE
  5
108
100
AcDbEntity
  8
text
 62
1
100
AcDbSpline
 70
8
 71
3
 72
8
 73
4
 74
0
 40
0
 40
0
 40
0
 40
0
 40
1
 40
1
 40
1
 40
1
 10
49.300661
 20
425.893878
 30
0.0
 10
49.300661
 20
425.723747
 30
0.0
 10
49.183965
 20
425.566540
 30
0.0
 10
48.994531
 20
425.481475
 30
0.0
  0
SPLINE
  5
109
100
AcDbEntity
  8
text
 62
1
100
AcDbSpline
 70
8
 71
3
 72
8
 73
4
 74
0
 40
0
 40
0
 40
0
 40
0
 40
1
 40
1
 40
1
 40
1
 10
48.994531
 20
425.481475
 30
0.0
 10
48.805097
 20
425.396409
 30
0.0
 10
48.571705
 20
425.396409
 30
0.0
 10
48.382271
 20
425.481475
 30
0.0
  0
SPLINE
  5
10a
100
AcDbEntity
  8
text
 62
1
100
AcDbSpline
 70
8
 71
3
 72
8
 73
4
 74
0
 40
0
 40
0
 40
0
 40
0
 40
1
 40
1
 40
1
 40
1
 10
48.382271
 20
425.481475
 30
0.0
 10
48.192837
 20
425.566540
 30
0.0
 10
48.076141
 20
425.723747
 30
0.0
 10
48.076142
 20
425.893878
 30
0.0
  0
SPLINE
  5
10b
100
AcDbEntity
  8
text
 62
1
100
AcDbSpline
 70
8
 71
3
 72
8
 73
4
 74
0
 40
0
 40
0
 40
0
 40
0
 40
1
 40
1
 40
1
 40
1
 10
48.076142
 20
425.893878
 30
0.0
 10
48.076142
 20
426.064009
 30
0.0
 10
48.192838
 20
426.221216
 30
0.0
 10
48.382272
 20
426.306281
 30
0.0
  0
SPLINE
  5
10c
100
AcDbEntity
  8
text
 62
1
100
AcDbSpline
 70
8
 71
3
 72
8
 73
4
 74
0
 40
0
 40
0
 40
0
 40
0
 40
1
 40
1
 40
1
 40
1
 10
48.382272
 20
426.306281
 30
0.0
 10
48.571705
 20
426.391346
 30
0.0
 10
48.805098
 20
426.391346
 30
0.0
 10
48.994531
 20
426.306281
 30
0.0
  0
SPLINE
  5
10d
100
AcDbEntity
  8
text
 62
1
100
AcDbSpline
 70
8
 71
3
 72
8
 73
4
 74
0
 40
0
 40
0
 40
0
 40
0
 40
1
 40
1
 40
1
 40
1
 10
48.994531
 20
426.306281
 30
0.0
 10
49.183965
 20
426.221216
 30
0.0
 10
49.300661
 20
426.064009
 30
0.0
 10
49.300661
 20
425.893878
 30
0.0
  0
LWPOLYLINE
  5
10e
100
AcDbEntity
  8
text
 62
1
100
AcDbPolyline
 90
2
 70
1
 10
121.436712
 20
769.779861
 30
0.0
 10
121.436712
 20
769.779861
 30
0.0
  0
SPLINE
  5
10f
100
AcDbEntity
  8
text
 62
7
100
AcDbSpline
 70
8
 71
3
 72
8
 73
4
 74
0
 40
0
 40
0
 40
0
 40
0
 40
1
 40
1
 40
1
 40
1
 10
100.951197
 20
658.637994
 30
0.0
 10
100.951197
 20
658.419254
 30
0.0
 10
100.821535
 20
658.217131
 30
0.0
 10
100.611053
 20
658.107761
 30
0.0
  0
SPLINE
  5
110
100
AcDbEntity
  8
text
 62
7
100
AcDbSpline
 70
8
 71
3
 72
8
 73
4
 74
0
 40
0
 40
0
 40
0
 40
0
 40
1
 40
1
 40
1
 40
1
 10
100.611053
 20
658.107761
 30
0.0
 10
100.400571
 20
657.998391
 30
0.0
 10
100.141246
 20
657.998391
 30
0.0
 10
99.930764
 20
658.107761
 30
0.0
  0
SPLINE
  5
111
100
AcDbEntity
  8
text
 62
7
100
AcDbSpline
 70
8
 71
3
 72
8
 73
4
 74
0
 40
0
 40
0
 40
0
 40
0
 40
1
 40
1
 40
1
 40
1
 10
99.930764
 20
658.107761
 30
0.0
 10
99.720282
 20
658.217131
 30
0.0
 10
99.590620
 20
658.419254
 30
0.0
 10
99.590621
 20
658.637994
 30
0.0
  0
SPLINE
  5
112
100
AcDbEntity
  8
text
 62
7
100
AcDbSpline
 70
8
 71
3
 72
8
 73
4
 74
0
 40
0
 40
0
 40
0
 40
0
 40
1
 40
1
 40
1
 40
1
 10
99.590621
 20
658.637994
 30
0.0
 10
99.590621
 20
658.856733
 30
0.0
 10
99.720283
 20
659.058856
 30
0.0
 10
99.930765
 20
659.168226
 30
0.0
  0
SPLINE
  5
113
100
AcDbEntity
  8
text
 62
7
100
AcDbSpline
 70
8
 71
3
 72
8
 73
4
 74
0
 40
0
 40
0
 40
0
 40
0
 40
1
 40
1
 40
1
 40
1
 10
99.930765
 20
659.168226
 30
0.0
 10
100.141247
 20
659.277596
 30
0.0
 10
100.400572
 20
659.277596
 30
0.0
 10
100.611054
 20
659.168226
 30
0.0
  0
SPLINE
  5
114
100
AcDbEntity
  8
text
 62
7
100
AcDbSpline
 70
8
 71
3
 72
8
 73
4
 74
0
 40
0
 40
0
 40
0
 40
0
 40
1
 40
1
 40
1
 40
1
 10
100.611054
 20
659.168226
 30
0.0
 10
100.821536
 20
659.058856
 30
0.0
 10
100.951198
 20
658.856733
 30
0.0
 10
100.951198
 20
658.637994
 30
0.0
  0
LWPOLYLINE
  5
115
100
AcDbEntity
  8
text
 62
1
100
AcDbPolyline
 90
2
 70
1
 10
49.300661
 20
425.893878
 30
0.0
 10
49.300662
 20
425.893878
 30
0.0
  0
SPLINE
  5
116
100
AcDbEntity
  8
text
 62
1
100
AcDbSpline
 70
8
 71
3
 72
8
 73
4
 74
0
 40
0
 40
0
 40
0
 40
0
 40
1
 40
1
 40
1
 40
1
 10
69.722416
 20
720.116672
 30
0.0
 10
69.722416
 20
725.136672
 30
0.0
 10
73.070416
 20
728.483672
 30
0.0
 10
78.090416
 20
728.483672
 30
0.0
  0
SPLINE
  5
117
100
AcDbEntity
  8
text
 62
1
100
AcDbSpline
 70
8
 71
3
 72
8
 73
4
 74
0
 40
0
 40
0
 40
0
 40
0
 40
1
 40
1
 40
1
 40
1
 10
78.090416
 20
728.483672
 30
0.0
 10
83.113416
 20
728.483672
 30
0.0
 10
86.457416
 20
725.136672
 30
0.0
 10
86.457416
 20
720.116672
 30
0.0
  0
SPLINE
  5
118
100
AcDbEntity
  8
text
 62
1
100
AcDbSpline
 70
8
 71
3
 72
8
 73
4
 74
0
 40
0
 40
0
 40
0
 40
0
 40
1
 40
1
 40
1
 40
1
 10
86.457416
 20
720.116672
 30
0.0
 10
86.457416
 20
715.097672
 30
0.0
 10
83.113416
 20
711.749672
 30
0.0
 10
78.090416
 20
711.749672
 30
0.0
  0
SPLINE
  5
119
100
AcDbEntity
  8
text
 62
1
100
AcDbSpline
 70
8
 71
3
 72
8
 73
4
 74
0
 40
0
 40
0
 40
0
 40
0
 40
1
 40
1
 40
1
 40
1
 10
78.090416
 20
711.749672
 30
0.0
 10
73.070416
 20
711.749672
 30
0.0
 10
69.722416
 20
715.097672
 30
0.0
 10
69.722416
 20
720.116672
 30
0.0
  0
LWPOLYLINE
  5
11a
100
AcDbEntity
  8
text
 62
7
100
AcDbPolyline
 90
2
 70
1
 10
100.951198
 20
658.637994
 30
0.0
 10
100.951199
 20
658.637994
 30
0.0
  0
LWPOLYLINE
  5
11b
100
AcDbEntity
  8
text
 62
1
100
AcDbPolyline
 90
2
 70
0
 10
74.746416
 20
720.116672
 30
0.0
 10
81.437416
 20
720.116672
 30
0.0
  0
SPLINE
  5
11c
100
AcDbEntity
  8
text
 62
1
100
AcDbSpline
 70
8
 71
3
 72
8
 73
4
 74
0
 40
0
 40
0
 40
0
 40
0
 40
1
 40
1
 40
1
 40
1
 10
69.866416
 20
467.724600
 30
0.0
 10
69.866416
 20
472.744600
 30
0.0
 10
73.214416
 20
476.091600
 30
0.0
 10
78.234416
 20
476.091600
 30
0.0
  0
SPLINE
  5
11d
100
AcDbEntity
  8
text
 62
1
100
AcDbSpline
 70
8
 71
3
 72
8
 73
4
 74
0
 40
0
 40
0
 40
0
 40
0
 40
1
 40
1
 40
1
 40
1
 10
78.234416
 20
476.091600
 30
0.0
 10
83.257416
 20
476.091600
 30
0.0
 10
86.601416
 20
472.744600
 30
0.0
 10
86.601416
 20
467.724600
 30
0.0
  0
SPLINE
  5
11e
100
AcDbEntity
  8
text
 62
1
100
AcDbSpline
 70
8
 71
3
 72
8
 73
4
 74
0
 40
0
 40
0
 40
0
 40
0
 40
1
 40
1
 40
1
 40
1
 10
86.601416
 20
467.724600
 30
0.0
 10
86.601416
 20
462.705600
 30
0.0
 10
83.257416
 20
459.357600
 30
0.0
 10
78.234416
 20
459.357600
 30
0.0
  0
SPLINE
  5
11f
100
AcDbEntity
  8
text
 62
1
100
AcDbSpline
 70
8
 71
3
 72
8
 73
4
 74
0
 40
0
 40
0
 40
0
 40
0
 40
1
 40
1
 40
1
 40
1
 10
78.234416
 20
459.357600
 30
0.0
 10
73.214416
 20
459.357600
 30
0.0
 10
69.866416
 20
462.705600
 30
0.0
 10
69.866416
 20
467.724600
 30
0.0
  0
LWPOLYLINE
  5
120
100
AcDbEntity
  8
text
 62
1
100
AcDbPolyline
 90
2
 70
0
 10
78.090416
 20
716.769672
 30
0.0
 10
78.090416
 20
723.464672
 30
0.0
  0
LWPOLYLINE
  5
121
100
AcDbEntity
  8
text
 62
1
100
AcDbPolyline
 90
2
 70
0
 10
74.890416
 20
467.724600
 30
0.0
 10
81.581416
 20
467.724600
 30
0.0
  0
SPLINE
  5
122
100
AcDbEntity
  8
text
 62
1
100
AcDbSpline
 70
8
 71
3
 72
8
 73
4
 74
0
 40
0
 40
0
 40
0
 40
0
 40
1
 40
1
 40
1
 40
1
 10
92.122416
 20
669.612600
 30
0.0
 10
92.122416
 20
674.632600
 30
0.0
 10
95.470416
 20
677.979600
 30
0.0
 10
100.490416
 20
677.979600
 30
0.0
  0
SPLINE
  5
123
100
AcDbEntity
  8
text
 62
1
100
AcDbSpline
 70
8
 71
3
 72
8
 73
4
 74
0
 40
0
 40
0
 40
0
 40
0
 40
1
 40
1
 40
1
 40
1
 10
100.490416
 20
677.979600
 30
0.0
 10
105.513416
 20
677.979600
 30
0.0
 10
108.857416
 20
674.632600
 30
0.0
 10
108.857416
 20
669.612600
 30
0.0
  0
SPLINE
  5
124
100
AcDbEntity
  8
text
 62
1
100
AcDbSpline
 70
8
 71
3
 72
8
 73
4
 74
0
 40
0
 40
0
 40
0
 40
0
 40
1
 40
1
 40
1
 40
1
 10
108.857416
 20
669.612600
 30
0.0
 10
108.857416
 20
664.593600
 30
0.0
 10
105.513416
 20
661.245600
 30
0.0
 10
100.490416
 20
661.245600
 30
0.0
  0
SPLINE
  5
125
100
AcDbEntity
  8
text
 62
1
100
AcDbSpline
 70
8
 71
3
 72
8
 73
4
 74
0
 40
0
 40
0
 40
0
 40
0
 40
1
 40
1
 40
1
 40
1
 10
100.490416
 20
661.245600
 30
0.0
 10
95.470416
 20
661.245600
 30
0.0
 10
92.122416
 20
664.593600
 30
0.0
 10
92.122416
 20
669.612600
 30
0.0
  0
LWPOLYLINE
  5
126
100
AcDbEntity
  8
text
 62
1
100
AcDbPolyline
 90
2
 70
0
 10
78.234416
 20
464.377600
 30
0.0
 10
78.234416
 20
471.072600
 30
0.0
  0
LWPOLYLINE
  5
127
100
AcDbEntity
  8
text
 62
1
100
AcDbPolyline
 90
2
 70
0
 10
97.146416
 20
669.612600
 30
0.0
 10
103.837416
 20
669.612600
 30
0.0
  0
SPLINE
  5
128
100
AcDbEntity
  8
text
 62
1
100
AcDbSpline
 70
8
 71
3
 72
8
 73
4
 74
0
 40
0
 40
0
 40
0
 40
0
 40
1
 40
1
 40
1
 40
1
 10
92.122416
 20
618.924600
 30
0.0
 10
92.122416
 20
623.944600
 30
0.0
 10
95.470416
 20
627.291600
 30
0.0
 10
100.490416
 20
627.291600
 30
0.0
  0
SPLINE
  5
129
100
AcDbEntity
  8
text
 62
1
100
AcDbSpline
 70
8
 71
3
 72
8
 73
4
 74
0
 40
0
 40
0
 40
0
 40
0
 40
1
 40
1
 40
1
 40
1
 10
100.490416
 20
627.291600
 30
0.0
 10
105.513416
 20
627.291600
 30
0.0
 10
108.857416
 20
623.944600
 30
0.0
 10
108.857416
 20
618.924600
 30
0.0
  0
SPLINE
  5
12a
100
AcDbEntity
  8
text
 62
1
100
AcDbSpline
 70
8
 71
3
 72
8
 73
4
 74
0
 40
0
 40
0
 40
0
 40
0
 40
1
 40
1
 40
1
 40
1
 10
108.857416
 20
618.924600
 30
0.0
 10
108.857416
 20
613.905600
 30
0.0
 10
105.513416
 20
610.557600
 30
0.0
 10
100.490416
 20
610.557600
 30
0.0
  0
SPLINE
  5
12b
100
AcDbEntity
  8
text
 62
1
100
AcDbSpline
 70
8
 71
3
 72
8
 73
4
 74
0
 40
0
 40
0
 40
0
 40
0
 40
1
 40
1
 40
1
 40
1
 10
100.490416
 20
610.557600
 30
0.0
 10
95.470416
 20
610.557600
 30
0.0
 10
92.122416
 20
613.905600
 30
0.0
 10
92.122416
 20
618.924600
 30
0.0
  0
LWPOLYLINE
  5
12c
100
AcDbEntity
  8
text
 62
1
100
AcDbPolyline
 90
2
 70
0
 10
100.490416
 20
666.265600
 30
0.0
 10
100.490416
 20
672.960600
 30
0.0
  0
LWPOLYLINE
  5
12d
100
AcDbEntity
  8
text
 62
1
100
AcDbPolyline
 90
2
 70
0
 10
97.146416
 20
618.924600
 30
0.0
 10
103.837416
 20
618.924600
 30
0.0
  0
SPLINE
  5
12e
100
AcDbEntity
  8
text
 62
1
100
AcDbSpline
 70
8
 71
3
 72
8
 73
4
 74
0
 40
0
 40
0
 40
0
 40
0
 40
1
 40
1
 40
1
 40
1
 10
92.122416
 20
568.740600
 30
0.0
 10
92.122416
 20
573.760600
 30
0.0
 10
95.470416
 20
577.107600
 30
0.0
 10
100.490416
 20
577.107600
 30
0.0
  0
SPLINE
  5
12f
100
AcDbEntity
  8
text
 62
1
100
AcDbSpline
 70
8
 71
3
 72
8
 73
4
 74
0
 40
0
 40
0
 40
0
 40
0
 40
1
 40
1
 40
1
 40
1
 10
100.490416
 20
577.107600
 30
0.0
 10
105.513416
 20
577.107600
 30
0.0
 10
108.857416
 20
573.760600
 30
0.0
 10
108.857416
 20
568.740600
 30
0.0
  0
SPLINE
  5
130
100
AcDbEntity
  8
text
 62
1
100
AcDbSpline
 70
8
 71
3
 72
8
 73
4
 74
0
 40
0
 40
0
 40
0
 40
0
 40
1
 40
1
 40
1
 40
1
 10
108.857416
 20
568.740600
 30
0.0
 10
108.857416
 20
563.721600
 30
0.0
 10
105.513416
 20
560.373600
 30
0.0
 10
100.490416
 20
560.373600
 30
0.0
  0
SPLINE
  5
131
100
AcDbEntity
  8
text
 62
1
100
AcDbSpline
 70
8
 71
3
 72
8
 73
4
 74
0
 40
0
 40
0
 40
0
 40
0
 40
1
 40
1
 40
1
 40
1
 10
100.490416
 20
560.373600
 30
0.0
 10
95.470416
 20
560.373600
 30
0.0
 10
92.122416
 20
563.721600
 30
0.0
 10
92.122416
 20
568.740600
 30
0.0
  0
LWPOLYLINE
  5
132
100
AcDbEntity
  8
text
 62
1
100
AcDbPolyline
 90
2
 70
0
 10
100.490416
 20
615.577600
 30
0.0
 10
100.490416
 20
622.272600
 30
0.0
  0
LWPOLYLINE
  5
133
100
AcDbEntity
  8
text
 62
1
100
AcDbPolyline
 90
2
 70
0
 10
97.146416
 20
568.740600
 30
0.0
 10
103.837416
 20
568.740600
 30
0.0
  0
SPLINE
  5
134
100
AcDbEntity
  8
text
 62
1
100
AcDbSpline
 70
8
 71
3
 72
8
 73
4
 74
0
 40
0
 40
0
 40
0
 40
0
 40
1
 40
1
 40
1
 40
1
 10
92.122416
 20
518.340600
 30
0.0
 10
92.122416
 20
523.360600
 30
0.0
 10
95.470416
 20
526.707600
 30
0.0
 10
100.490416
 20
526.707600
 30
0.0
  0
SPLINE
  5
135
100
AcDbEntity
  8
text
 62
1
100
AcDbSpline
 70
8
 71
3
 72
8
 73
4
 74
0
 40
0
 40
0
 40
0
 40
0
 40
1
 40
1
 40
1
 40
1
 10
100.490416
 20
526.707600
 30
0.0
 10
105.513416
 20
526.707600
 30
0.0
 10
108.857416
 20
523.360600
 30
0.0
 10
108.857416
 20
518.340600
 30
0.0
  0
SPLINE
  5
136
100
AcDbEntity
  8
text
 62
1
100
AcDbSpline
 70
8
 71
3
 72
8
 73
4
 74
0
 40
0
 40
0
 40
0
 40
0
 40
1
 40
1
 40
1
 40
1
 10
108.857416
 20
518.340600
 30
0.0
 10
108.857416
 20
513.321600
 30
0.0
 10
105.513416
 20
509.973600
 30
0.0
 10
100.490416
 20
509.973600
 30
0.0
  0
SPLINE
  5
137
100
AcDbEntity
  8
text
 62
1
100
AcDbSpline
 70
8
 71
3
 72
8
 73
4
 74
0
 40
0
 40
0
 40
0
 40
0
 40
1
 40
1
 40
1
 40
1
 10
100.490416
 20
509.973600
 30
0.0
 10
95.470416
 20
509.973600
 30
0.0
 10
92.122416
 20
513.321600
 30
0.0
 10
92.122416
 20
518.340600
 30
0.0
  0
LWPOLYLINE
  5
138
100
AcDbEntity
  8
text
 62
1
100
AcDbPolyline
 90
2
 70
0
 10
100.490416
 20
565.393600
 30
0.0
 10
100.490416
 20
572.088600
 30
0.0
  0
LWPOLYLINE
  5
139
100
AcDbEntity
  8
text
 62
1
100
AcDbPolyline
 90
2
 70
0
 10
97.146416
 20
518.340600
 30
0.0
 10
103.837416
 20
518.340600
 30
0.0
  0
LWPOLYLINE
  5
13a
100
AcDbEntity
  8
text
 62
1
100
AcDbPolyline
 90
2
 70
0
 10
100.490416
 20
514.993600
 30
0.0
 10
100.490416
 20
521.688600
 30
0.0
  0
LWPOLYLINE
  5
13b
100
AcDbEntity
  8
text
 62
1
100
AcDbPolyline
 90
6
 70
0
 10
34.057462
 20
666.048000
 30
0.0
 10
45.381227
 20
666.048000
 30
0.0
 10
45.381227
 20
674.537632
 30
0.0
 10
54.682891
 20
674.537632
 30
0.0
 10
54.682891
 20
666.044664
 30
0.0
 10
65.290416
 20
666.044664
 30
0.0
  0
SPLINE
  5
13c
100
AcDbEntity
  8
text
 62
1
100
AcDbSpline
 70
8
 71
3
 72
8
 73
4
 74
0
 40
0
 40
0
 40
0
 40
0
 40
1
 40
1
 40
1
 40
1
 10
265.436712
 20
769.779861
 30
0.0
 10
265.436712
 20
769.404148
 30
0.0
 10
265.101682
 20
769.099572
 30
0.0
 10
264.688396
 20
769.099572
 30
0.0
  0
SPLINE
  5
13d
100
AcDbEntity
  8
text
 62
1
100
AcDbSpline
 70
8
 71
3
 72
8
 73
4
 74
0
 40
0
 40
0
 40
0
 40
0
 40
1
 40
1
 40
1
 40
1
 10
264.688396
 20
769.099572
 30
0.0
 10
264.275111
 20
769.099572
 30
0.0
 10
263.940080
 20
769.404148
 30
0.0
 10
263.940080
 20
769.779861
 30
0.0
  0
SPLINE
  5
13e
100
AcDbEntity
  8
text
 62
1
100
AcDbSpline
 70
8
 71
3
 72
8
 73
4
 74
0
 40
0
 40
0
 40
0
 40
0
 40
1
 40
1
 40
1
 40
1
 10
263.940080
 20
769.779861
 30
0.0
 10
263.940080
 20
770.155574
 30
0.0
 10
264.275111
 20
770.460150
 30
0.0
 10
264.688396
 20
770.460150
 30
0.0
  0
SPLINE
  5
13f
100
AcDbEntity
  8
text
 62
1
100
AcDbSpline
 70
8
 71
3
 72
8
 73
4
 74
0
 40
0
 40
0
 40
0
 40
0
 40
1
 40
1
 40
1
 40
1
 10
264.688396
 20
770.460150
 30
0.0
 10
265.101682
 20
770.460150
 30
0.0
 10
265.436712
 20
770.155574
 30
0.0
 10
265.436712
 20
769.779861
 30
0.0
  0
LWPOLYLINE
  5
140
100
AcDbEntity
  8
text
 62
7
100
AcDbPolyline
 90
6
 70
0
 10
211.927395
 20
415.621512
 30
0.0
 10
168.057542
 20
415.621512
 30
0.0
 10
168.057542
 20
778.900531
 30
0.0
 10
289.529838
 20
778.900531
 30
0.0
 10
289.529838
 20
415.621512
 30
0.0
 10
168.057542
 20
415.621512
 30
0.0
  0
SPLINE
  5
141
100
AcDbEntity
  8
text
 62
1
100
AcDbSpline
 70
8
 71
3
 72
8
 73
4
 74
0
 40
0
 40
0
 40
0
 40
0
 40
1
 40
1
 40
1
 40
1
 10
193.300662
 20
425.893878
 30
0.0
 10
193.300662
 20
425.630883
 30
0.0
 10
193.026536
 20
425.417672
 30
0.0
 10
192.688396
 20
425.417672
 30
0.0
  0
SPLINE
  5
142
100
AcDbEntity
  8
text
 62
1
100
AcDbSpline
 70
8
 71
3
 72
8
 73
4
 74
0
 40
0
 40
0
 40
0
 40
0
 40
1
 40
1
 40
1
 40
1
 10
192.688396
 20
425.417672
 30
0.0
 10
192.350256
 20
425.417672
 30
0.0
 10
192.076140
 20
425.630883
 30
0.0
 10
192.076140
 20
425.893878
 30
0.0
  0
SPLINE
  5
143
100
AcDbEntity
  8
text
 62
1
100
AcDbSpline
 70
8
 71
3
 72
8
 73
4
 74
0
 40
0
 40
0
 40
0
 40
0
 40
1
 40
1
 40
1
 40
1
 10
192.076140
 20
425.893878
 30
0.0
 10
192.076140
 20
426.156873
 30
0.0
 10
192.350256
 20
426.370083
 30
0.0
 10
192.688396
 20
426.370083
 30
0.0
  0
SPLINE
  5
144
100
AcDbEntity
  8
text
 62
1
100
AcDbSpline
 70
8
 71
3
 72
8
 73
4
 74
0
 40
0
 40
0
 40
0
 40
0
 40
1
 40
1
 40
1
 40
1
 10
192.688396
 20
426.370083
 30
0.0
 10
193.026536
 20
426.370083
 30
0.0
 10
193.300662
 20
426.156873
 30
0.0
 10
193.300662
 20
425.893878
 30
0.0
  0
LWPOLYLINE
  5
145
100
AcDbEntity
  8
text
 62
1
100
AcDbPolyline
 90
2
 70
1
 10
265.436712
 20
769.779861
 30
0.0
 10
265.436712
 20
769.779861
 30
0.0
  0
SPLINE
  5
146
100
AcDbEntity
  8
text
 62
7
100
AcDbSpline
 70
8
 71
3
 72
8
 73
4
 74
0
 40
0
 40
0
 40
0
 40
0
 40
1
 40
1
 40
1
 40
1
 10
244.951199
 20
658.637994
 30
0.0
 10
244.951199
 20
658.299852
 30
0.0
 10
244.646626
 20
658.025734
 30
0.0
 10
244.270908
 20
658.025734
 30
0.0
  0
SPLINE
  5
147
100
AcDbEntity
  8
text
 62
7
100
AcDbSpline
 70
8
 71
3
 72
8
 73
4
 74
0
 40
0
 40
0
 40
0
 40
0
 40
1
 40
1
 40
1
 40
1
 10
244.270908
 20
658.025734
 30
0.0
 10
243.895200
 20
658.025734
 30
0.0
 10
243.590618
 20
658.299852
 30
0.0
 10
243.590618
 20
658.637994
 30
0.0
  0
SPLINE
  5
148
100
AcDbEntity
  8
text
 62
7
100
AcDbSpline
 70
8
 71
3
 72
8
 73
4
 74
0
 40
0
 40
0
 40
0
 40
0
 40
1
 40
1
 40
1
 40
1
 10
243.590618
 20
658.637994
 30
0.0
 10
243.590618
 20
658.976135
 30
0.0
 10
243.895200
 20
659.250253
 30
0.0
 10
244.270908
 20
659.250253
 30
0.0
  0
SPLINE
  5
149
100
AcDbEntity
  8
text
 62
7
100
AcDbSpline
 70
8
 71
3
 72
8
 73
4
 74
0
 40
0
 40
0
 40
0
 40
0
 40
1
 40
1
 40
1
 40
1
 10
244.270908
 20
659.250253
 30
0.0
 10
244.646626
 20
659.250253
 30
0.0
 10
244.951199
 20
658.976135
 30
0.0
 10
244.951199
 20
658.637994
 30
0.0
  0
LWPOLYLINE
  5
14a
100
AcDbEntity
  8
text
 62
1
100
AcDbPolyline
 90
2
 70
1
 10
193.300662
 20
425.893878
 30
0.0
 10
193.300662
 20
425.893878
 30
0.0
  0
SPLINE
  5
14b
100
AcDbEntity
  8
text
 62
1
100
AcDbSpline
 70
8
 71
3
 72
8
 73
4
 74
0
 40
0
 40
0
 40
0
 40
0
 40
1
 40
1
 40
1
 40
1
 10
213.722416
 20
720.116672
 30
0.0
 10
213.722416
 20
725.136672
 30
0.0
 10
217.070416
 20
728.483672
 30
0.0
 10
222.090416
 20
728.483672
 30
0.0
  0
SPLINE
  5
14c
100
AcDbEntity
  8
text
 62
1
100
AcDbSpline
 70
8
 71
3
 72
8
 73
4
 74
0
 40
0
 40
0
 40
0
 40
0
 40
1
 40
1
 40
1
 40
1
 10
222.090416
 20
728.483672
 30
0.0
 10
227.113416
 20
728.483672
 30
0.0
 10
230.457416
 20
725.136672
 30
0.0
 10
230.457416
 20
720.116672
 30
0.0
  0
SPLINE
  5
14d
100
AcDbEntity
  8
text
 62
1
100
AcDbSpline
 70
8
 71
3
 72
8
 73
4
 74
0
 40
0
 40
0
 40
0
 40
0
 40
1
 40
1
 40
1
 40
1
 10
230.457416
 20
720.116672
 30
0.0
 10
230.457416
 20
715.097672
 30
0.0
 10
227.113416
 20
711.749672
 30
0.0
 10
222.090416
 20
711.749672
 30
0.0
  0
SPLINE
  5
14e
100
AcDbEntity
  8
text
 62
1
100
AcDbSpline
 70
8
 71
3
 72
8
 73
4
 74
0
 40
0
 40
0
 40
0
 40
0
 40
1
 40
1
 40
1
 40
1
 10
222.090416
 20
711.749672
 30
0.0
 10
217.070416
 20
711.749672
 30
0.0
 10
213.722416
 20
715.097672
 30
0.0
 10
213.722416
 20
720.116672
 30
0.0
  0
LWPOLYLINE
  5
14f
100
AcDbEntity
  8
text
 62
7
100
AcDbPolyline
 90
2
 70
1
 10
244.951199
 20
658.637994
 30
0.0
 10
244.951199
 20
658.637994
 30
0.0
  0
LWPOLYLINE
  5
150
100
AcDbEntity
  8
text
 62
1
100
AcDbPolyline
 90
2
 70
0
 10
218.746416
 20
720.116672
 30
0.0
 10
225.437416
 20
720.116672
 30
0.0
  0
SPLINE
  5
151
100
AcDbEntity
  8
text
 62
1
100
AcDbSpline
 70
8
 71
3
 72
8
 73
4
 74
0
 40
0
 40
0
 40
0
 40
0
 40
1
 40
1
 40
1
 40
1
 10
213.866416
 20
467.724600
 30
0.0
 10
213.866416
 20
472.744600
 30
0.0
 10
217.214416
 20
476.091600
 30
0.0
 10
222.234416
 20
476.091600
 30
0.0
  0
SPLINE
  5
152
100
AcDbEntity
  8
text
 62
1
100
AcDbSpline
 70
8
 71
3
 72
8
 73
4
 74
0
 40
0
 40
0
 40
0
 40
0
 40
1
 40
1
 40
1
 40
1
 10
222.234416
 20
476.091600
 30
0.0
 10
227.257416
 20
476.091600
 30
0.0
 10
230.601416
 20
472.744600
 30
0.0
 10
230.601416
 20
467.724600
 30
0.0
  0
SPLINE
  5
153
100
AcDbEntity
  8
text
 62
1
100
AcDbSpline
 70
8
 71
3
 72
8
 73
4
 74
0
 40
0
 40
0
 40
0
 40
0
 40
1
 40
1
 40
1
 40
1
 10
230.601416
 20
467.724600
 30
0.0
 10
230.601416
 20
462.705600
 30
0.0
 10
227.257416
 20
459.357600
 30
0.0
 10
222.234416
 20
459.357600
 30
0.0
  0
SPLINE
  5
154
100
AcDbEntity
  8
text
 62
1
100
AcDbSpline
 70
8
 71
3
 72
8
 73
4
 74
0
 40
0
 40
0
 40
0
 40
0
 40
1
 40
1
 40
1
 40
1
 10
222.234416
 20
459.357600
 30
0.0
 10
217.214416
 20
459.357600
 30
0.0
 10
213.866416
 20
462.705600
 30
0.0
 10
213.866416
 20
467.724600
 30
0.0
  0
LWPOLYLINE
  5
155
100
AcDbEntity
  8
text
 62
1
100
AcDbPolyline
 90
2
 70
0
 10
222.090416
 20
716.769672
 30
0.0
 10
222.090416
 20
723.464672
 30
0.0
  0
LWPOLYLINE
  5
156
100
AcDbEntity
  8
text
 62
1
100
AcDbPolyline
 90
2
 70
0
 10
218.890416
 20
467.724600
 30
0.0
 10
225.581416
 20
467.724600
 30
0.0
  0
SPLINE
  5
157
100
AcDbEntity
  8
text
 62
1
100
AcDbSpline
 70
8
 71
3
 72
8
 73
4
 74
0
 40
0
 40
0
 40
0
 40
0
 40
1
 40
1
 40
1
 40
1
 10
236.122416
 20
669.612600
 30
0.0
 10
236.122416
 20
674.632600
 30
0.0
 10
239.470416
 20
677.979600
 30
0.0
 10
244.490416
 20
677.979600
 30
0.0
  0
SPLINE
  5
158
100
AcDbEntity
  8
text
 62
1
100
AcDbSpline
 70
8
 71
3
 72
8
 73
4
 74
0
 40
0
 40
0
 40
0
 40
0
 40
1
 40
1
 40
1
 40
1
 10
244.490416
 20
677.979600
 30
0.0
 10
249.513416
 20
677.979600
 30
0.0
 10
252.857416
 20
674.632600
 30
0.0
 10
252.857416
 20
669.612600
 30
0.0
  0
SPLINE
  5
159
100
AcDbEntity
  8
text
 62
1
100
AcDbSpline
 70
8
 71
3
 72
8
 73
4
 74
0
 40
0
 40
0
 40
0
 40
0
 40
1
 40
1
 40
1
 40
1
 10
252.857416
 20
669.612600
 30
0.0
 10
252.857416
 20
664.593600
 30
0.0
 10
249.513416
 20
661.245600
 30
0.0
 10
244.490416
 20
661.245600
 30
0.0
  0
SPLINE
  5
15a
100
AcDbEntity
  8
text
 62
1
100
AcDbSpline
 70
8
 71
3
 72
8
 73
4
 74
0
 40
0
 40
0
 40
0
 40
0
 40
1
 40
1
 40
1
 40
1
 10
244.490416
 20
661.245600
 30
0.0
 10
239.470416
 20
661.245600
 30
0.0
 10
236.122416
 20
664.593600
 30
0.0
 10
236.122416
 20
669.612600
 30
0.0
  0
LWPOLYLINE
  5
15b
100
AcDbEntity
  8
text
 62
1
100
AcDbPolyline
 90
2
 70
0
 10
222.234416
 20
464.377600
 30
0.0
 10
222.234416
 20
471.072600
 30
0.0
  0
LWPOLYLINE
  5
15c
100
AcDbEntity
  8
text
 62
1
100
AcDbPolyline
 90
2
 70
0
 10
241.146416
 20
669.612600
 30
0.0
 10
247.837416
 20
669.612600
 30
0.0
  0
SPLINE
  5
15d
100
AcDbEntity
  8
text
 62
1
100
AcDbSpline
 70
8
 71
3
 72
8
 73
4
 74
0
 40
0
 40
0
 40
0
 40
0
 40
1
 40
1
 40
1
 40
1
 10
236.122416
 20
618.924600
 30
0.0
 10
236.122416
 20
623.944600
 30
0.0
 10
239.470416
 20
627.291600
 30
0.0
 10
244.490416
 20
627.291600
 30
0.0
  0
SPLINE
  5
15e
100
AcDbEntity
  8
text
 62
1
100
AcDbSpline
 70
8
 71
3
 72
8
 73
4
 74
0
 40
0
 40
0
 40
0
 40
0
 40
1
 40
1
 40
1
 40
1
 10
244.490416
 20
627.291600
 30
0.0
 10
249.513416
 20
627.291600
 30
0.0
 10
252.857416
 20
623.944600
 30
0.0
 10
252.857416
 20
618.924600
 30
0.0
  0
SPLINE
  5
15f
100
AcDbEntity
  8
text
 62
1
100
AcDbSpline
 70
8
 71
3
 72
8
 73
4
 74
0
 40
0
 40
0
 40
0
 40
0
 40
1
 40
1
 40
1
 40
1
 10
252.857416
 20
618.924600
 30
0.0
 10
252.857416
 20
613.905600
 30
0.0
 10
249.513416
 20
610.557600
 30
0.0
 10
244.490416
 20
610.557600
 30
0.0
  0
SPLINE
  5
160
100
AcDbEntity
  8
text
 62
1
100
AcDbSpline
 70
8
 71
3
 72
8
 73
4
 74
0
 40
0
 40
0
 40
0
 40
0
 40
1
 40
1
 40
1
 40
1
 10
244.490416
 20
610.557600
 30
0.0
 10
239.470416
 20
610.557600
 30
0.0
 10
236.122416
 20
613.905600
 30
0.0
 10
236.122416
 20
618.924600
 30
0.0
  0
LWPOLYLINE
  5
161
100
AcDbEntity
  8
text
 62
1
100
AcDbPolyline
 90
2
 70
0
 10
244.490416
 20
666.265600
 30
0.0
 10
244.490416
 20
672.960600
 30
0.0
  0
LWPOLYLINE
  5
162
100
AcDbEntity
  8
text
 62
1
100
AcDbPolyline
 90
2
 70
0
 10
241.146416
 20
618.924600
 30
0.0
 10
247.837416
 20
618.924600
 30
0.0
  0
SPLINE
  5
163
100
AcDbEntity
  8
text
 62
1
100
AcDbSpline
 70
8
 71
3
 72
8
 73
4
 74
0
 40
0
 40
0
 40
0
 40
0
 40
1
 40
1
 40
1
 40
1
 10
236.122416
 20
568.740600
 30
0.0
 10
236.122416
 20
573.760600
 30
0.0
 10
239.470416
 20
577.107600
 30
0.0
 10
244.490416
 20
577.107600
 30
0.0
  0
SPLINE
  5
164
100
AcDbEntity
  8
text
 62
1
100
AcDbSpline
 70
8
 71
3
 72
8
 73
4
 74
0
 40
0
 40
0
 40
0
 40
0
 40
1
 40
1
 40
1
 40
1
 10
244.490416
 20
577.107600
 30
0.0
 10
249.513416
 20
577.107600
 30
0.0
 10
252.857416
 20
573.760600
 30
0.0
 10
252.857416
 20
568.740600
 30
0.0
  0
SPLINE
  5
165
100
AcDbEntity
  8
text
 62
1
100
AcDbSpline
 70
8
 71
3
 72
8
 73
4
 74
0
 40
0
 40
0
 40
0
 40
0
 40
1
 40
1
 40
1
 40
1
 10
252.857416
 20
568.740600
 30
0.0
 10
252.857416
 20
563.721600
 30
0.0
 10
249.513416
 20
560.373600
 30
0.0
 10
244.490416
 20
560.373600
 30
0.0
  0
SPLINE
  5
166
100
AcDbEntity
  8
text
 62
1
100
AcDbSpline
 70
8
 71
3
 72
8
 73
4
 74
0
 40
0
 40
0
 40
0
 40
0
 40
1
 40
1
 40
1
 40
1
 10
244.490416
 20
560.373600
 30
0.0
 10
239.470416
 20
560.373600
 30
0.0
 10
236.122416
 20
563.721600
 30
0.0
 10
236.122416
 20
568.740600
 30
0.0
  0
LWPOLYLINE
  5
167
100
AcDbEntity
  8
text
 62
1
100
AcDbPolyline
 90
2
 70
0
 10
244.490416
 20
615.577600
 30
0.0
 10
244.490416
 20
622.272600
 30
0.0
  0
LWPOLYLINE
  5
168
100
AcDbEntity
  8
text
 62
1
100
AcDbPolyline
 90
2
 70
0
 10
241.146416
 20
568.740600
 30
0.0
 10
247.837416
 20
568.740600
 30
0.0
  0
SPLINE
  5
169
100
AcDbEntity
  8
text
 62
1
100
AcDbSpline
 70
8
 71
3
 72
8
 73
4
 74
0
 40
0
 40
0
 40
0
 40
0
 40
1
 40
1
 40
1
 40
1
 10
236.122416
 20
518.340600
 30
0.0
 10
236.122416
 20
523.360600
 30
0.0
 10
239.470416
 20
526.707600
 30
0.0
 10
244.490416
 20
526.707600
 30
0.0
  0
SPLINE
  5
16a
100
AcDbEntity
  8
text
 62
1
100
AcDbSpline
 70
8
 71
3
 72
8
 73
4
 74
0
 40
0
 40
0
 40
0
 40
0
 40
1
 40
1
 40
1
 40
1
 10
244.490416
 20
526.707600
 30
0.0
 10
249.513416
 20
526.707600
 30
0.0
 10
252.857416
 20
523.360600
 30
0.0
 10
252.857416
 20
518.340600
 30
0.0
  0
SPLINE
  5
16b
100
AcDbEntity
  8
text
 62
1
100
AcDbSpline
 70
8
 71
3
 72
8
 73
4
 74
0
 40
0
 40
0
 40
0
 40
0
 40
1
 40
1
 40
1
 40
1
 10
252.857416
 20
518.340600
 30
0.0
 10
252.857416
 20
513.321600
 30
0.0
 10
249.513416
 20
509.973600
 30
0.0
 10
244.490416
 20
509.973600
 30
0.0
  0
SPLINE
  5
16c
100
AcDbEntity
  8
text
 62
1
100
AcDbSpline
 70
8
 71
3
 72
8
 73
4
 74
0
 40
0
 40
0
 40
0
 40
0
 40
1
 40
1
 40
1
 40
1
 10
244.490416
 20
509.973600
 30
0.0
 10
239.470416
 20
509.973600
 30
0.0
 10
236.122416
 20
513.321600
 30
0.0
 10
236.122416
 20
518.340600
 30
0.0
  0
LWPOLYLINE
  5
16d
100
AcDbEntity
  8
text
 62
1
100
AcDbPolyline
 90
2
 70
0
 10
244.490416
 20
565.393600
 30
0.0
 10
244.490416
 20
572.088600
 30
0.0
  0
LWPOLYLINE
  5
16e
100
AcDbEntity
  8
text
 62
1
100
AcDbPolyline
 90
2
 70
0
 10
241.146416
 20
518.340600
 30
0.0
 10
247.837416
 20
518.340600
 30
0.0
  0
LWPOLYLINE
  5
16f
100
AcDbEntity
  8
text
 62
1
100
AcDbPolyline
 90
2
 70
0
 10
244.490416
 20
514.993600
 30
0.0
 10
244.490416
 20
521.688600
 30
0.0
  0
LWPOLYLINE
  5
170
100
AcDbEntity
  8
text
 62
1
100
AcDbPolyline
 90
6
 70
0
 10
178.057462
 20
666.048000
 30
0.0
 10
189.381227
 20
666.048000
 30
0.0
 10
189.381227
 20
674.537632
 30
0.0
 10
198.682891
 20
674.537632
 30
0.0
 10
198.682891
 20
666.044664
 30
0.0
 10
209.290416
 20
666.044664
 30
0.0
  0
SPLINE
  5
171
100
AcDbEntity
  8
text
 62
1
100
AcDbSpline
 70
8
 71
3
 72
8
 73
4
 74
0
 40
0
 40
0
 40
0
 40
0
 40
1
 40
1
 40
1
 40
1
 10
409.436712
 20
769.779861
 30
0.0
 10
409.436712
 20
769.404148
 30
0.0
 10
409.101682
 20
769.099572
 30
0.0
 10
408.688396
 20
769.099572
 30
0.0
  0
SPLINE
  5
172
100
AcDbEntity
  8
text
 62
1
100
AcDbSpline
 70
8
 71
3
 72
8
 73
4
 74
0
 40
0
 40
0
 40
0
 40
0
 40
1
 40
1
 40
1
 40
1
 10
408.688396
 20
769.099572
 30
0.0
 10
408.275111
 20
769.099572
 30
0.0
 10
407.940080
 20
769.404148
 30
0.0
 10
407.940080
 20
769.779861
 30
0.0
  0
SPLINE
  5
173
100
AcDbEntity
  8
text
 62
1
100
AcDbSpline
 70
8
 71
3
 72
8
 73
4
 74
0
 40
0
 40
0
 40
0
 40
0
 40
1
 40
1
 40
1
 40
1
 10
407.940080
 20
769.779861
 30
0.0
 10
407.940080
 20
770.155574
 30
0.0
 10
408.275111
 20
770.460150
 30
0.0
 10
408.688396
 20
770.460150
 30
0.0
  0
SPLINE
  5
174
100
AcDbEntity
  8
text
 62
1
100
AcDbSpline
 70
8
 71
3
 72
8
 73
4
 74
0
 40
0
 40
0
 40
0
 40
0
 40
1
 40
1
 40
1
 40
1
 10
408.688396
 20
770.460150
 30
0.0
 10
409.101682
 20
770.460150
 30
0.0
 10
409.436712
 20
770.155574
 30
0.0
 10
409.436712
 20
769.779861
 30
0.0
  0
LWPOLYLINE
  5
175
100
AcDbEntity
  8
text
 62
7
100
AcDbPolyline
 90
6
 70
0
 10
355.927395
 20
415.621512
 30
0.0
 10
312.057542
 20
415.621512
 30
0.0
 10
312.057542
 20
778.900531
 30
0.0
 10
433.529838
 20
778.900531
 30
0.0
 10
433.529838
 20
415.621512
 30
0.0
 10
312.057542
 20
415.621512
 30
0.0
  0
SPLINE
  5
176
100
AcDbEntity
  8
text
 62
1
100
AcDbSpline
 70
8
 71
3
 72
8
 73
4
 74
0
 40
0
 40
0
 40
0
 40
0
 40
1
 40
1
 40
1
 40
1
 10
337.300662
 20
425.893878
 30
0.0
 10
337.300662
 20
425.630883
 30
0.0
 10
337.026536
 20
425.417672
 30
0.0
 10
336.688396
 20
425.417672
 30
0.0
  0
SPLINE
  5
177
100
AcDbEntity
  8
text
 62
1
100
AcDbSpline
 70
8
 71
3
 72
8
 73
4
 74
0
 40
0
 40
0
 40
0
 40
0
 40
1
 40
1
 40
1
 40
1
 10
336.688396
 20
425.417672
 30
0.0
 10
336.350256
 20
425.417672
 30
0.0
 10
336.076140
 20
425.630883
 30
0.0
 10
336.076140
 20
425.893878
 30
0.0
  0
SPLINE
  5
178
100
AcDbEntity
  8
text
 62
1
100
AcDbSpline
 70
8
 71
3
 72
8
 73
4
 74
0
 40
0
 40
0
 40
0
 40
0
 40
1
 40
1
 40
1
 40
1
 10
336.076140
 20
425.893878
 30
0.0
 10
336.076140
 20
426.156873
 30
0.0
 10
336.350256
 20
426.370083
 30
0.0
 10
336.688396
 20
426.370083
 30
0.0
  0
SPLINE
  5
179
100
AcDbEntity
  8
text
 62
1
100
AcDbSpline
 70
8
 71
3
 72
8
 73
4
 74
0
 40
0
 40
0
 40
0
 40
0
 40
1
 40
1
 40
1
 40
1
 10
336.688396
 20
426.370083
 30
0.0
 10
337.026536
 20
426.370083
 30
0.0
 10
337.300662
 20
426.156873
 30
0.0
 10
337.300662
 20
425.893878
 30
0.0
  0
LWPOLYLINE
  5
17a
100
AcDbEntity
  8
text
 62
1
100
AcDbPolyline
 90
2
 70
1
 10
409.436712
 20
769.779861
 30
0.0
 10
409.436712
 20
769.779861
 30
0.0
  0
SPLINE
  5
17b
100
AcDbEntity
  8
text
 62
7
100
AcDbSpline
 70
8
 71
3
 72
8
 73
4
 74
0
 40
0
 40
0
 40
0
 40
0
 40
1
 40
1
 40
1
 40
1
 10
388.951199
 20
658.637994
 30
0.0
 10
388.951199
 20
658.299852
 30
0.0
 10
388.646626
 20
658.025734
 30
0.0
 10
388.270908
 20
658.025734
 30
0.0
  0
SPLINE
  5
17c
100
AcDbEntity
  8
text
 62
7
100
AcDbSpline
 70
8
 71
3
 72
8
 73
4
 74
0
 40
0
 40
0
 40
0
 40
0
 40
1
 40
1
 40
1
 40
1
 10
388.270908
 20
658.025734
 30
0.0
 10
387.895200
 20
658.025734
 30
0.0
 10
387.590618
 20
658.299852
 30
0.0
 10
387.590618
 20
658.637994
 30
0.0
  0
SPLINE
  5
17d
100
AcDbEntity
  8
text
 62
7
100
AcDbSpline
 70
8
 71
3
 72
8
 73
4
 74
0
 40
0
 40
0
 40
0
 40
0
 40
1
 40
1
 40
1
 40
1
 10
387.590618
 20
658.637994
 30
0.0
 10
387.590618
 20
658.976135
 30
0.0
 10
387.895200
 20
659.250253
 30
0.0
 10
388.270908
 20
659.250253
 30
0.0
  0
SPLINE
  5
17e
100
AcDbEntity
  8
text
 62
7
100
AcDbSpline
 70
8
 71
3
 72
8
 73
4
 74
0
 40
0
 40
0
 40
0
 40
0
 40
1
 40
1
 40
1
 40
1
 10
388.270908
 20
659.250253
 30
0.0
 10
388.646626
 20
659.250253
 30
0.0
 10
388.951199
 20
658.976135
 30
0.0
 10
388.951199
 20
658.637994
 30
0.0
  0
LWPOLYLINE
  5
17f
100
AcDbEntity
  8
text
 62
1
100
AcDbPolyline
 90
2
 70
1
 10
337.300662
 20
425.893878
 30
0.0
 10
337.300662
 20
425.893878
 30
0.0
  0
SPLINE
  5
180
100
AcDbEntity
  8
text
 62
1
100
AcDbSpline
 70
8
 71
3
 72
8
 73
4
 74
0
 40
0
 40
0
 40
0
 40
0
 40
1
 40
1
 40
1
 40
1
 10
357.722416
 20
720.116672
 30
0.0
 10
357.722416
 20
725.136672
 30
0.0
 10
361.070416
 20
728.483672
 30
0.0
 10
366.090416
 20
728.483672
 30
0.0
  0
SPLINE
  5
181
100
AcDbEntity
  8
text
 62
1
100
AcDbSpline
 70
8
 71
3
 72
8
 73
4
 74
0
 40
0
 40
0
 40
0
 40
0
 40
1
 40
1
 40
1
 40
1
 10
366.090416
 20
728.483672
 30
0.0
 10
371.113416
 20
728.483672
 30
0.0
 10
374.457416
 20
725.136672
 30
0.0
 10
374.457416
 20
720.116672
 30
0.0
  0
SPLINE
  5
182
100
AcDbEntity
  8
text
 62
1
100
AcDbSpline
 70
8
 71
3
 72
8
 73
4
 74
0
 40
0
 40
0
 40
0
 40
0
 40
1
 40
1
 40
1
 40
1
 10
374.457416
 20
720.116672
 30
0.0
 10
374.457416
 20
715.097672
 30
0.0
 10
371.113416
 20
711.749672
 30
0.0
 10
366.090416
 20
711.749672
 30
0.0
  0
SPLINE
  5
183
100
AcDbEntity
  8
text
 62
1
100
AcDbSpline
 70
8
 71
3
 72
8
 73
4
 74
0
 40
0
 40
0
 40
0
 40
0
 40
1
 40
1
 40
1
 40
1
 10
366.090416
 20
711.749672
 30
0.0
 10
361.070416
 20
711.749672
 30
0.0
 10
357.722416
 20
715.097672
 30
0.0
 10
357.722416
 20
720.116672
 30
0.0
  0
LWPOLYLINE
  5
184
100
AcDbEntity
  8
text
 62
7
100
AcDbPolyline
 90
2
 70
1
 10
388.951199
 20
658.637994
 30
0.0
 10
388.951199
 20
658.637994
 30
0.0
  0
LWPOLYLINE
  5
185
100
AcDbEntity
  8
text
 62
1
100
AcDbPolyline
 90
2
 70
0
 10
362.746416
 20
720.116672
 30
0.0
 10
369.437416
 20
720.116672
 30
0.0
  0
SPLINE
  5
186
100
AcDbEntity
  8
text
 62
1
100
AcDbSpline
 70
8
 71
3
 72
8
 73
4
 74
0
 40
0
 40
0
 40
0
 40
0
 40
1
 40
1
 40
1
 40
1
 10
357.866416
 20
467.724600
 30
0.0
 10
357.866416
 20
472.744600
 30
0.0
 10
361.214416
 20
476.091600
 30
0.0
 10
366.234416
 20
476.091600
 30
0.0
  0
SPLINE
  5
187
100
AcDbEntity
  8
text
 62
1
100
AcDbSpline
 70
8
 71
3
 72
8
 73
4
 74
0
 40
0
 40
0
 40
0
 40
0
 40
1
 40
1
 40
1
 40
1
 10
366.234416
 20
476.091600
 30
0.0
 10
371.257416
 20
476.091600
 30
0.0
 10
374.601416
 20
472.744600
 30
0.0
 10
374.601416
 20
467.724600
 30
0.0
  0
SPLINE
  5
188
100
AcDbEntity
  8
text
 62
1
100
AcDbSpline
 70
8
 71
3
 72
8
 73
4
 74
0
 40
0
 40
0
 40
0
 40
0
 40
1
 40
1
 40
1
 40
1
 10
374.601416
 20
467.724600
 30
0.0
 10
374.601416
 20
462.705600
 30
0.0
 10
371.257416
 20
459.357600
 30
0.0
 10
366.234416
 20
459.357600
 30
0.0
  0
SPLINE
  5
189
100
AcDbEntity
  8
text
 62
1
100
AcDbSpline
 70
8
 71
3
 72
8
 73
4
 74
0
 40
0
 40
0
 40
0
 40
0
 40
1
 40
1
 40
1
 40
1
 10
366.234416
 20
459.357600
 30
0.0
 10
361.214416
 20
459.357600
 30
0.0
 10
357.866416
 20
462.705600
 30
0.0
 10
357.866416
 20
467.724600
 30
0.0
  0
LWPOLYLINE
  5
18a
100
AcDbEntity
  8
text
 62
1
100
AcDbPolyline
 90
2
 70
0
 10
366.090416
 20
716.769672
 30
0.0
 10
366.090416
 20
723.464672
 30
0.0
  0
LWPOLYLINE
  5
18b
100
AcDbEntity
  8
text
 62
1
100
AcDbPolyline
 90
2
 70
0
 10
362.890416
 20
467.724600
 30
0.0
 10
369.581416
 20
467.724600
 30
0.0
  0
SPLINE
  5
18c
100
AcDbEntity
  8
text
 62
1
100
AcDbSpline
 70
8
 71
3
 72
8
 73
4
 74
0
 40
0
 40
0
 40
0
 40
0
 40
1
 40
1
 40
1
 40
1
 10
380.122416
 20
669.612600
 30
0.0
 10
380.122416
 20
674.632600
 30
0.0
 10
383.470416
 20
677.979600
 30
0.0
 10
388.490416
 20
677.979600
 30
0.0
  0
SPLINE
  5
18d
100
AcDbEntity
  8
text
 62
1
100
AcDbSpline
 70
8
 71
3
 72
8
 73
4
 74
0
 40
0
 40
0
 40
0
 40
0
 40
1
 40
1
 40
1
 40
1
 10
388.490416
 20
677.979600
 30
0.0
 10
393.513416
 20
677.979600
 30
0.0
 10
396.857416
 20
674.632600
 30
0.0
 10
396.857416
 20
669.612600
 30
0.0
  0
SPLINE
  5
18e
100
AcDbEntity
  8
text
 62
1
100
AcDbSpline
 70
8
 71
3
 72
8
 73
4
 74
0
 40
0
 40
0
 40
0
 40
0
 40
1
 40
1
 40
1
 40
1
 10
396.857416
 20
669.612600
 30
0.0
 10
396.857416
 20
664.593600
 30
0.0
 10
393.513416
 20
661.245600
 30
0.0
 10
388.490416
 20
661.245600
 30
0.0
  0
SPLINE
  5
18f
100
AcDbEntity
  8
text
 62
1
100
AcDbSpline
 70
8
 71
3
 72
8
 73
4
 74
0
 40
0
 40
0
 40
0
 40
0
 40
1
 40
1
 40
1
 40
1
 10
388.490416
 20
661.245600
 30
0.0
 10
383.470416
 20
661.245600
 30
0.0
 10
380.122416
 20
664.593600
 30
0.0
 10
380.122416
 20
669.612600
 30
0.0
  0
LWPOLYLINE
  5
190
100
AcDbEntity
  8
text
 62
1
100
AcDbPolyline
 90
2
 70
0
 10
366.234416
 20
464.377600
 30
0.0
 10
366.234416
 20
471.072600
 30
0.0
  0
LWPOLYLINE
  5
191
100
AcDbEntity
  8
text
 62
1
100
AcDbPolyline
 90
2
 70
0
 10
385.146416
 20
669.612600
 30
0.0
 10
391.837416
 20
669.612600
 30
0.0
  0
SPLINE
  5
192
100
AcDbEntity
  8
text
 62
1
100
AcDbSpline
 70
8
 71
3
 72
8
 73
4
 74
0
 40
0
 40
0
 40
0
 40
0
 40
1
 40
1
 40
1
 40
1
 10
380.122416
 20
618.924600
 30
0.0
 10
380.122416
 20
623.944600
 30
0.0
 10
383.470416
 20
627.291600
 30
0.0
 10
388.490416
 20
627.291600
 30
0.0
  0
SPLINE
  5
193
100
AcDbEntity
  8
text
 62
1
100
AcDbSpline
 70
8
 71
3
 72
8
 73
4
 74
0
 40
0
 40
0
 40
0
 40
0
 40
1
 40
1
 40
1
 40
1
 10
388.490416
 20
627.291600
 30
0.0
 10
393.513416
 20
627.291600
 30
0.0
 10
396.857416
 20
623.944600
 30
0.0
 10
396.857416
 20
618.924600
 30
0.0
  0
SPLINE
  5
194
100
AcDbEntity
  8
text
 62
1
100
AcDbSpline
 70
8
 71
3
 72
8
 73
4
 74
0
 40
0
 40
0
 40
0
 40
0
 40
1
 40
1
 40
1
 40
1
 10
396.857416
 20
618.924600
 30
0.0
 10
396.857416
 20
613.905600
 30
0.0
 10
393.513416
 20
610.557600
 30
0.0
 10
388.490416
 20
610.557600
 30
0.0
  0
SPLINE
  5
195
100
AcDbEntity
  8
text
 62
1
100
AcDbSpline
 70
8
 71
3
 72
8
 73
4
 74
0
 40
0
 40
0
 40
0
 40
0
 40
1
 40
1
 40
1
 40
1
 10
388.490416
 20
610.557600
 30
0.0
 10
383.470416
 20
610.557600
 30
0.0
 10
380.122416
 20
613.905600
 30
0.0
 10
380.122416
 20
618.924600
 30
0.0
  0
LWPOLYLINE
  5
196
100
AcDbEntity
  8
text
 62
1
100
AcDbPolyline
 90
2
 70
0
 10
388.490416
 20
666.265600
 30
0.0
 10
388.490416
 20
672.960600
 30
0.0
  0
LWPOLYLINE
  5
197
100
AcDbEntity
  8
text
 62
1
100
AcDbPolyline
 90
2
 70
0
 10
385.146416
 20
618.924600
 30
0.0
 10
391.837416
 20
618.924600
 30
0.0
  0
SPLINE
  5
198
100
AcDbEntity
  8
text
 62
1
100
AcDbSpline
 70
8
 71
3
 72
8
 73
4
 74
0
 40
0
 40
0
 40
0
 40
0
 40
1
 40
1
 40
1
 40
1
 10
380.122416
 20
568.740600
 30
0.0
 10
380.122416
 20
573.760600
 30
0.0
 10
383.470416
 20
577.107600
 30
0.0
 10
388.490416
 20
577.107600
 30
0.0
  0
SPLINE
  5
199
100
AcDbEntity
  8
text
 62
1
100
AcDbSpline
 70
8
 71
3
 72
8
 73
4
 74
0
 40
0
 40
0
 40
0
 40
0
 40
1
 40
1
 40
1
 40
1
 10
388.490416
 20
577.107600
 30
0.0
 10
393.513416
 20
577.107600
 30
0.0
 10
396.857416
 20
573.760600
 30
0.0
 10
396.857416
 20
568.740600
 30
0.0
  0
SPLINE
  5
19a
100
AcDbEntity
  8
text
 62
1
100
AcDbSpline
 70
8
 71
3
 72
8
 73
4
 74
0
 40
0
 40
0
 40
0
 40
0
 40
1
 40
1
 40
1
 40
1
 10
396.857416
 20
568.740600
 30
0.0
 10
396.857416
 20
563.721600
 30
0.0
 10
393.513416
 20
560.373600
 30
0.0
 10
388.490416
 20
560.373600
 30
0.0
  0
SPLINE
  5
19b
100
AcDbEntity
  8
text
 62
1
100
AcDbSpline
 70
8
 71
3
 72
8
 73
4
 74
0
 40
0
 40
0
 40
0
 40
0
 40
1
 40
1
 40
1
 40
1
 10
388.490416
 20
560.373600
 30
0.0
 10
383.470416
 20
560.373600
 30
0.0
 10
380.122416
 20
563.721600
 30
0.0
 10
380.122416
 20
568.740600
 30
0.0
  0
LWPOLYLINE
  5
19c
100
AcDbEntity
  8
text
 62
1
100
AcDbPolyline
 90
2
 70
0
 10
388.490416
 20
615.577600
 30
0.0
 10
388.490416
 20
622.272600
 30
0.0
  0
LWPOLYLINE
  5
19d
100
AcDbEntity
  8
text
 62
1
100
AcDbPolyline
 90
2
 70
0
 10
385.146416
 20
568.740600
 30
0.0
 10
391.837416
 20
568.740600
 30
0.0
  0
SPLINE
  5
19e
100
AcDbEntity
  8
text
 62
1
100
AcDbSpline
 70
8
 71
3
 72
8
 73
4
 74
0
 40
0
 40
0
 40
0
 40
0
 40
1
 40
1
 40
1
 40
1
 10
380.122416
 20
518.340600
 30
0.0
 10
380.122416
 20
523.360600
 30
0.0
 10
383.470416
 20
526.707600
 30
0.0
 10
388.490416
 20
526.707600
 30
0.0
  0
SPLINE
  5
19f
100
AcDbEntity
  8
text
 62
1
100
AcDbSpline
 70
8
 71
3
 72
8
 73
4
 74
0
 40
0
 40
0
 40
0
 40
0
 40
1
 40
1
 40
1
 40
1
 10
388.490416
 20
526.707600
 30
0.0
 10
393.513416
 20
526.707600
 30
0.0
 10
396.857416
 20
523.360600
 30
0.0
 10
396.857416
 20
518.340600
 30
0.0
  0
SPLINE
  5
1a0
100
AcDbEntity
  8
text
 62
1
100
AcDbSpline
 70
8
 71
3
 72
8
 73
4
 74
0
 40
0
 40
0
 40
0
 40
0
 40
1
 40
1
 40
1
 40
1
 10
396.857416
 20
518.340600
 30
0.0
 10
396.857416
 20
513.321600
 30
0.0
 10
393.513416
 20
509.973600
 30
0.0
 10
388.490416
 20
509.973600
 30
0.0
  0
SPLINE
  5
1a1
100
AcDbEntity
  8
text
 62
1
100
AcDbSpline
 70
8
 71
3
 72
8
 73
4
 74
0
 40
0
 40
0
 40
0
 40
0
 40
1
 40
1
 40
1
 40
1
 10
388.490416
 20
509.973600
 30
0.0
 10
383.470416
 20
509.973600
 30
0.0
 10
380.122416
 20
513.321600
 30
0.0
 10
380.122416
 20
518.340600
 30
0.0
  0
LWPOLYLINE
  5
1a2
100
AcDbEntity
  8
text
 62
1
100
AcDbPolyline
 90
2
 70
0
 10
388.490416
 20
565.393600
 30
0.0
 10
388.490416
 20
572.088600
 30
0.0
  0
LWPOLYLINE
  5
1a3
100
AcDbEntity
  8
text
 62
1
100
AcDbPolyline
 90
2
 70
0
 10
385.146416
 20
518.340600
 30
0.0
 10
391.837416
 20
518.340600
 30
0.0
  0
LWPOLYLINE
  5
1a4
100
AcDbEntity
  8
text
 62
1
100
AcDbPolyline
 90
2
 70
0
 10
388.490416
 20
514.993600
 30
0.0
 10
388.490416
 20
521.688600
 30
0.0
  0
LWPOLYLINE
  5
1a5
100
AcDbEntity
  8
text
 62
1
100
AcDbPolyline
 90
6
 70
0
 10
322.057462
 20
666.048000
 30
0.0
 10
333.381227
 20
666.048000
 30
0.0
 10
333.381227
 20
674.537632
 30
0.0
 10
342.682891
 20
674.537632
 30
0.0
 10
342.682891
 20
666.044664
 30
0.0
 10
353.290416
 20
666.044664
 30
0.0
  0
SPLINE
  5
1a6
100
AcDbEntity
  8
text
 62
1
100
AcDbSpline
 70
8
 71
3
 72
8
 73
4
 74
0
 40
0
 40
0
 40
0
 40
0
 40
1
 40
1
 40
1
 40
1
 10
553.436712
 20
769.779861
 30
0.0
 10
553.436712
 20
769.404148
 30
0.0
 10
553.101682
 20
769.099572
 30
0.0
 10
552.688396
 20
769.099572
 30
0.0
  0
SPLINE
  5
1a7
100
AcDbEntity
  8
text
 62
1
100
AcDbSpline
 70
8
 71
3
 72
8
 73
4
 74
0
 40
0
 40
0
 40
0
 40
0
 40
1
 40
1
 40
1
 40
1
 10
552.688396
 20
769.099572
 30
0.0
 10
552.275111
 20
769.099572
 30
0.0
 10
551.940080
 20
769.404148
 30
0.0
 10
551.940080
 20
769.779861
 30
0.0
  0
SPLINE
  5
1a8
100
AcDbEntity
  8
text
 62
1
100
AcDbSpline
 70
8
 71
3
 72
8
 73
4
 74
0
 40
0
 40
0
 40
0
 40
0
 40
1
 40
1
 40
1
 40
1
 10
551.940080
 20
769.779861
 30
0.0
 10
551.940080
 20
770.155574
 30
0.0
 10
552.275111
 20
770.460150
 30
0.0
 10
552.688396
 20
770.460150
 30
0.0
  0
SPLINE
  5
1a9
100
AcDbEntity
  8
text
 62
1
100
AcDbSpline
 70
8
 71
3
 72
8
 73
4
 74
0
 40
0
 40
0
 40
0
 40
0
 40
1
 40
1
 40
1
 40
1
 10
552.688396
 20
770.460150
 30
0.0
 10
553.101682
 20
770.460150
 30
0.0
 10
553.436712
 20
770.155574
 30
0.0
 10
553.436712
 20
769.779861
 30
0.0
  0
LWPOLYLINE
  5
1aa
100
AcDbEntity
  8
text
 62
7
100
AcDbPolyline
 90
6
 70
0
 10
499.927395
 20
415.621512
 30
0.0
 10
456.057542
 20
415.621512
 30
0.0
 10
456.057542
 20
778.900531
 30
0.0
 10
577.529838
 20
778.900531
 30
0.0
 10
577.529838
 20
415.621512
 30
0.0
 10
456.057542
 20
415.621512
 30
0.0
  0
SPLINE
  5
1ab
100
AcDbEntity
  8
text
 62
1
100
AcDbSpline
 70
8
 71
3
 72
8
 73
4
 74
0
 40
0
 40
0
 40
0
 40
0
 40
1
 40
1
 40
1
 40
1
 10
481.300662
 20
425.893878
 30
0.0
 10
481.300662
 20
425.630883
 30
0.0
 10
481.026536
 20
425.417672
 30
0.0
 10
480.688396
 20
425.417672
 30
0.0
  0
SPLINE
  5
1ac
100
AcDbEntity
  8
text
 62
1
100
AcDbSpline
 70
8
 71
3
 72
8
 73
4
 74
0
 40
0
 40
0
 40
0
 40
0
 40
1
 40
1
 40
1
 40
1
 10
480.688396
 20
425.417672
 30
0.0
 10
480.350256
 20
425.417672
 30
0.0
 10
480.076140
 20
425.630883
 30
0.0
 10
480.076140
 20
425.893878
 30
0.0
  0
SPLINE
  5
1ad
100
AcDbEntity
  8
text
 62
1
100
AcDbSpline
 70
8
 71
3
 72
8
 73
4
 74
0
 40
0
 40
0
 40
0
 40
0
 40
1
 40
1
 40
1
 40
1
 10
480.076140
 20
425.893878
 30
0.0
 10
480.076140
 20
426.156873
 30
0.0
 10
480.350256
 20
426.370083
 30
0.0
 10
480.688396
 20
426.370083
 30
0.0
  0
SPLINE
  5
1ae
100
AcDbEntity
  8
text
 62
1
100
AcDbSpline
 70
8
 71
3
 72
8
 73
4
 74
0
 40
0
 40
0
 40
0
 40
0
 40
1
 40
1
 40
1
 40
1
 10
480.688396
 20
426.370083
 30
0.0
 10
481.026536
 20
426.370083
 30
0.0
 10
481.300662
 20
426.156873
 30
0.0
 10
481.300662
 20
425.893878
 30
0.0
  0
LWPOLYLINE
  5
1af
100
AcDbEntity
  8
text
 62
1
100
AcDbPolyline
 90
2
 70
1
 10
553.436712
 20
769.779861
 30
0.0
 10
553.436712
 20
769.779861
 30
0.0
  0
SPLINE
  5
1b0
100
AcDbEntity
  8
text
 62
7
100
AcDbSpline
 70
8
 71
3
 72
8
 73
4
 74
0
 40
0
 40
0
 40
0
 40
0
 40
1
 40
1
 40
1
 40
1
 10
532.951199
 20
658.637994
 30
0.0
 10
532.951199
 20
658.299852
 30
0.0
 10
532.646626
 20
658.025734
 30
0.0
 10
532.270908
 20
658.025734
 30
0.0
  0
SPLINE
  5
1b1
100
AcDbEntity
  8
text
 62
7
100
AcDbSpline
 70
8
 71
3
 72
8
 73
4
 74
0
 40
0
 40
0
 40
0
 40
0
 40
1
 40
1
 40
1
 40
1
 10
532.270908
 20
658.025734
 30
0.0
 10
531.895200
 20
658.025734
 30
0.0
 10
531.590618
 20
658.299852
 30
0.0
 10
531.590618
 20
658.637994
 30
0.0
  0
SPLINE
  5
1b2
100
AcDbEntity
  8
text
 62
7
100
AcDbSpline
 70
8
 71
3
 72
8
 73
4
 74
0
 40
0
 40
0
 40
0
 40
0
 40
1
 40
1
 40
1
 40
1
 10
531.590618
 20
658.637994
 30
0.0
 10
531.590618
 20
658.976135
 30
0.0
 10
531.895200
 20
659.250253
 30
0.0
 10
532.270908
 20
659.250253
 30
0.0
  0
SPLINE
  5
1b3
100
AcDbEntity
  8
text
 62
7
100
AcDbSpline
 70
8
 71
3
 72
8
 73
4
 74
0
 40
0
 40
0
 40
0
 40
0
 40
1
 40
1
 40
1
 40
1
 10
532.270908
 20
659.250253
 30
0.0
 10
532.646626
 20
659.250253
 30
0.0
 10
532.951199
 20
658.976135
 30
0.0
 10
532.951199
 20
658.637994
 30
0.0
  0
LWPOLYLINE
  5
1b4
100
AcDbEntity
  8
text
 62
1
100
AcDbPolyline
 90
2
 70
1
 10
481.300662
 20
425.893878
 30
0.0
 10
481.300662
 20
425.893878
 30
0.0
  0
SPLINE
  5
1b5
100
AcDbEntity
  8
text
 62
1
100
AcDbSpline
 70
8
 71
3
 72
8
 73
4
 74
0
 40
0
 40
0
 40
0
 40
0
 40
1
 40
1
 40
1
 40
1
 10
501.722416
 20
720.116672
 30
0.0
 10
501.722416
 20
725.136672
 30
0.0
 10
505.070416
 20
728.483672
 30
0.0
 10
510.090416
 20
728.483672
 30
0.0
  0
SPLINE
  5
1b6
100
AcDbEntity
  8
text
 62
1
100
AcDbSpline
 70
8
 71
3
 72
8
 73
4
 74
0
 40
0
 40
0
 40
0
 40
0
 40
1
 40
1
 40
1
 40
1
 10
510.090416
 20
728.483672
 30
0.0
 10
515.113416
 20
728.483672
 30
0.0
 10
518.457416
 20
725.136672
 30
0.0
 10
518.457416
 20
720.116672
 30
0.0
  0
SPLINE
  5
1b7
100
AcDbEntity
  8
text
 62
1
100
AcDbSpline
 70
8
 71
3
 72
8
 73
4
 74
0
 40
0
 40
0
 40
0
 40
0
 40
1
 40
1
 40
1
 40
1
 10
518.457416
 20
720.116672
 30
0.0
 10
518.457416
 20
715.097672
 30
0.0
 10
515.113416
 20
711.749672
 30
0.0
 10
510.090416
 20
711.749672
 30
0.0
  0
SPLINE
  5
1b8
100
AcDbEntity
  8
text
 62
1
100
AcDbSpline
 70
8
 71
3
 72
8
 73
4
 74
0
 40
0
 40
0
 40
0
 40
0
 40
1
 40
1
 40
1
 40
1
 10
510.090416
 20
711.749672
 30
0.0
 10
505.070416
 20
711.749672
 30
0.0
 10
501.722416
 20
715.097672
 30
0.0
 10
501.722416
 20
720.116672
 30
0.0
  0
LWPOLYLINE
  5
1b9
100
AcDbEntity
  8
text
 62
7
100
AcDbPolyline
 90
2
 70
1
 10
532.951199
 20
658.637994
 30
0.0
 10
532.951199
 20
658.637994
 30
0.0
  0
LWPOLYLINE
  5
1ba
100
AcDbEntity
  8
text
 62
1
100
AcDbPolyline
 90
2
 70
0
 10
506.746416
 20
720.116672
 30
0.0
 10
513.437416
 20
720.116672
 30
0.0
  0
SPLINE
  5
1bb
100
AcDbEntity
  8
text
 62
1
100
AcDbSpline
 70
8
 71
3
 72
8
 73
4
 74
0
 40
0
 40
0
 40
0
 40
0
 40
1
 40
1
 40
1
 40
1
 10
501.866416
 20
467.724600
 30
0.0
 10
501.866416
 20
472.744600
 30
0.0
 10
505.214416
 20
476.091600
 30
0.0
 10
510.234416
 20
476.091600
 30
0.0
  0
SPLINE
  5
1bc
100
AcDbEntity
  8
text
 62
1
100
AcDbSpline
 70
8
 71
3
 72
8
 73
4
 74
0
 40
0
 40
0
 40
0
 40
0
 40
1
 40
1
 40
1
 40
1
 10
510.234416
 20
476.091600
 30
0.0
 10
515.257416
 20
476.091600
 30
0.0
 10
518.601416
 20
472.744600
 30
0.0
 10
518.601416
 20
467.724600
 30
0.0
  0
SPLINE
  5
1bd
100
AcDbEntity
  8
text
 62
1
100
AcDbSpline
 70
8
 71
3
 72
8
 73
4
 74
0
 40
0
 40
0
 40
0
 40
0
 40
1
 40
1
 40
1
 40
1
 10
518.601416
 20
467.724600
 30
0.0
 10
518.601416
 20
462.705600
 30
0.0
 10
515.257416
 20
459.357600
 30
0.0
 10
510.234416
 20
459.357600
 30
0.0
  0
SPLINE
  5
1be
100
AcDbEntity
  8
text
 62
1
100
AcDbSpline
 70
8
 71
3
 72
8
 73
4
 74
0
 40
0
 40
0
 40
0
 40
0
 40
1
 40
1
 40
1
 40
1
 10
510.234416
 20
459.357600
 30
0.0
 10
505.214416
 20
459.357600
 30
0.0
 10
501.866416
 20
462.705600
 30
0.0
 10
501.866416
 20
467.724600
 30
0.0
  0
LWPOLYLINE
  5
1bf
100
AcDbEntity
  8
text
 62
1
100
AcDbPolyline
 90
2
 70
0
 10
510.090416
 20
716.769672
 30
0.0
 10
510.090416
 20
723.464672
 30
0.0
  0
LWPOLYLINE
  5
1c0
100
AcDbEntity
  8
text
 62
1
100
AcDbPolyline
 90
2
 70
0
 10
506.890416
 20
467.724600
 30
0.0
 10
513.581416
 20
467.724600
 30
0.0
  0
SPLINE
  5
1c1
100
AcDbEntity
  8
text
 62
1
100
AcDbSpline
 70
8
 71
3
 72
8
 73
4
 74
0
 40
0
 40
0
 40
0
 40
0
 40
1
 40
1
 40
1
 40
1
 10
524.122416
 20
669.612600
 30
0.0
 10
524.122416
 20
674.632600
 30
0.0
 10
527.470416
 20
677.979600
 30
0.0
 10
532.490416
 20
677.979600
 30
0.0
  0
SPLINE
  5
1c2
100
AcDbEntity
  8
text
 62
1
100
AcDbSpline
 70
8
 71
3
 72
8
 73
4
 74
0
 40
0
 40
0
 40
0
 40
0
 40
1
 40
1
 40
1
 40
1
 10
532.490416
 20
677.979600
 30
0.0
 10
537.513416
 20
677.979600
 30
0.0
 10
540.857416
 20
674.632600
 30
0.0
 10
540.857416
 20
669.612600
 30
0.0
  0
SPLINE
  5
1c3
100
AcDbEntity
  8
text
 62
1
100
AcDbSpline
 70
8
 71
3
 72
8
 73
4
 74
0
 40
0
 40
0
 40
0
 40
0
 40
1
 40
1
 40
1
 40
1
 10
540.857416
 20
669.612600
 30
0.0
 10
540.857416
 20
664.593600
 30
0.0
 10
537.513416
 20
661.245600
 30
0.0
 10
532.490416
 20
661.245600
 30
0.0
  0
SPLINE
  5
1c4
100
AcDbEntity
  8
text
 62
1
100
AcDbSpline
 70
8
 71
3
 72
8
 73
4
 74
0
 40
0
 40
0
 40
0
 40
0
 40
1
 40
1
 40
1
 40
1
 10
532.490416
 20
661.245600
 30
0.0
 10
527.470416
 20
661.245600
 30
0.0
 10
524.122416
 20
664.593600
 30
0.0
 10
524.122416
 20
669.612600
 30
0.0
  0
LWPOLYLINE
  5
1c5
100
AcDbEntity
  8
text
 62
1
100
AcDbPolyline
 90
2
 70
0
 10
510.234416
 20
464.377600
 30
0.0
 10
510.234416
 20
471.072600
 30
0.0
  0
LWPOLYLINE
  5
1c6
100
AcDbEntity
  8
text
 62
1
100
AcDbPolyline
 90
2
 70
0
 10
529.146416
 20
669.612600
 30
0.0
 10
535.837416
 20
669.612600
 30
0.0
  0
SPLINE
  5
1c7
100
AcDbEntity
  8
text
 62
1
100
AcDbSpline
 70
8
 71
3
 72
8
 73
4
 74
0
 40
0
 40
0
 40
0
 40
0
 40
1
 40
1
 40
1
 40
1
 10
524.122416
 20
618.924600
 30
0.0
 10
524.122416
 20
623.944600
 30
0.0
 10
527.470416
 20
627.291600
 30
0.0
 10
532.490416
 20
627.291600
 30
0.0
  0
SPLINE
  5
1c8
100
AcDbEntity
  8
text
 62
1
100
AcDbSpline
 70
8
 71
3
 72
8
 73
4
 74
0
 40
0
 40
0
 40
0
 40
0
 40
1
 40
1
 40
1
 40
1
 10
532.490416
 20
627.291600
 30
0.0
 10
537.513416
 20
627.291600
 30
0.0
 10
540.857416
 20
623.944600
 30
0.0
 10
540.857416
 20
618.924600
 30
0.0
  0
SPLINE
  5
1c9
100
AcDbEntity
  8
text
 62
1
100
AcDbSpline
 70
8
 71
3
 72
8
 73
4
 74
0
 40
0
 40
0
 40
0
 40
0
 40
1
 40
1
 40
1
 40
1
 10
540.857416
 20
618.924600
 30
0.0
 10
540.857416
 20
613.905600
 30
0.0
 10
537.513416
 20
610.557600
 30
0.0
 10
532.490416
 20
610.557600
 30
0.0
  0
SPLINE
  5
1ca
100
AcDbEntity
  8
text
 62
1
100
AcDbSpline
 70
8
 71
3
 72
8
 73
4
 74
0
 40
0
 40
0
 40
0
 40
0
 40
1
 40
1
 40
1
 40
1
 10
532.490416
 20
610.557600
 30
0.0
 10
527.470416
 20
610.557600
 30
0.0
 10
524.122416
 20
613.905600
 30
0.0
 10
524.122416
 20
618.924600
 30
0.0
  0
LWPOLYLINE
  5
1cb
100
AcDbEntity
  8
text
 62
1
100
AcDbPolyline
 90
2
 70
0
 10
532.490416
 20
666.265600
 30
0.0
 10
532.490416
 20
672.960600
 30
0.0
  0
LWPOLYLINE
  5
1cc
100
AcDbEntity
  8
text
 62
1
100
AcDbPolyline
 90
2
 70
0
 10
529.146416
 20
618.924600
 30
0.0
 10
535.837416
 20
618.924600
 30
0.0
  0
SPLINE
  5
1cd
100
AcDbEntity
  8
text
 62
1
100
AcDbSpline
 70
8
 71
3
 72
8
 73
4
 74
0
 40
0
 40
0
 40
0
 40
0
 40
1
 40
1
 40
1
 40
1
 10
524.122416
 20
568.740600
 30
0.0
 10
524.122416
 20
573.760600
 30
0.0
 10
527.470416
 20
577.107600
 30
0.0
 10
532.490416
 20
577.107600
 30
0.0
  0
SPLINE
  5
1ce
100
AcDbEntity
  8
text
 62
1
100
AcDbSpline
 70
8
 71
3
 72
8
 73
4
 74
0
 40
0
 40
0
 40
0
 40
0
 40
1
 40
1
 40
1
 40
1
 10
532.490416
 20
577.107600
 30
0.0
 10
537.513416
 20
577.107600
 30
0.0
 10
540.857416
 20
573.760600
 30
0.0
 10
540.857416
 20
568.740600
 30
0.0
  0
SPLINE
  5
1cf
100
AcDbEntity
  8
text
 62
1
100
AcDbSpline
 70
8
 71
3
 72
8
 73
4
 74
0
 40
0
 40
0
 40
0
 40
0
 40
1
 40
1
 40
1
 40
1
 10
540.857416
 20
568.740600
 30
0.0
 10
540.857416
 20
563.721600
 30
0.0
 10
537.513416
 20
560.373600
 30
0.0
 10
532.490416
 20
560.373600
 30
0.0
  0
SPLINE
  5
1d0
100
AcDbEntity
  8
text
 62
1
100
AcDbSpline
 70
8
 71
3
 72
8
 73
4
 74
0
 40
0
 40
0
 40
0
 40
0
 40
1
 40
1
 40
1
 40
1
 10
532.490416
 20
560.373600
 30
0.0
 10
527.470416
 20
560.373600
 30
0.0
 10
524.122416
 20
563.721600
 30
0.0
 10
524.122416
 20
568.740600
 30
0.0
  0
LWPOLYLINE
  5
1d1
100
AcDbEntity
  8
text
 62
1
100
AcDbPolyline
 90
2
 70
0
 10
532.490416
 20
615.577600
 30
0.0
 10
532.490416
 20
622.272600
 30
0.0
  0
LWPOLYLINE
  5
1d2
100
AcDbEntity
  8
text
 62
1
100
AcDbPolyline
 90
2
 70
0
 10
529.146416
 20
568.740600
 30
0.0
 10
535.837416
 20
568.740600
 30
0.0
  0
SPLINE
  5
1d3
100
AcDbEntity
  8
text
 62
1
100
AcDbSpline
 70
8
 71
3
 72
8
 73
4
 74
0
 40
0
 40
0
 40
0
 40
0
 40
1
 40
1
 40
1
 40
1
 10
524.122416
 20
518.340600
 30
0.0
 10
524.122416
 20
523.360600
 30
0.0
 10
527.470416
 20
526.707600
 30
0.0
 10
532.490416
 20
526.707600
 30
0.0
  0
SPLINE
  5
1d4
100
AcDbEntity
  8
text
 62
1
100
AcDbSpline
 70
8
 71
3
 72
8
 73
4
 74
0
 40
0
 40
0
 40
0
 40
0
 40
1
 40
1
 40
1
 40
1
 10
532.490416
 20
526.707600
 30
0.0
 10
537.513416
 20
526.707600
 30
0.0
 10
540.857416
 20
523.360600
 30
0.0
 10
540.857416
 20
518.340600
 30
0.0
  0
SPLINE
  5
1d5
100
AcDbEntity
  8
text
 62
1
100
AcDbSpline
 70
8
 71
3
 72
8
 73
4
 74
0
 40
0
 40
0
 40
0
 40
0
 40
1
 40
1
 40
1
 40
1
 10
540.857416
 20
518.340600
 30
0.0
 10
540.857416
 20
513.321600
 30
0.0
 10
537.513416
 20
509.973600
 30
0.0
 10
532.490416
 20
509.973600
 30
0.0
  0
SPLINE
  5
1d6
100
AcDbEntity
  8
text
 62
1
100
AcDbSpline
 70
8
 71
3
 72
8
 73
4
 74
0
 40
0
 40
0
 40
0
 40
0
 40
1
 40
1
 40
1
 40
1
 10
532.490416
 20
509.973600
 30
0.0
 10
527.470416
 20
509.973600
 30
0.0
 10
524.122416
 20
513.321600
 30
0.0
 10
524.122416
 20
518.340600
 30
0.0
  0
LWPOLYLINE
  5
1d7
100
AcDbEntity
  8
text
 62
1
100
AcDbPolyline
 90
2
 70
0
 10
532.490416
 20
565.393600
 30
0.0
 10
532.490416
 20
572.088600
 30
0.0
  0
LWPOLYLINE
  5
1d8
100
AcDbEntity
  8
text
 62
1
100
AcDbPolyline
 90
2
 70
0
 10
529.146416
 20
518.340600
 30
0.0
 10
535.837416
 20
518.340600
 30
0.0
  0
LWPOLYLINE
  5
1d9
100
AcDbEntity
  8
text
 62
1
100
AcDbPolyline
 90
2
 70
0
 10
532.490416
 20
514.993600
 30
0.0
 10
532.490416
 20
521.688600
 30
0.0
  0
LWPOLYLINE
  5
1da
100
AcDbEntity
  8
text
 62
1
100
AcDbPolyline
 90
6
 70
0
 10
466.057462
 20
666.048000
 30
0.0
 10
477.381227
 20
666.048000
 30
0.0
 10
477.381227
 20
674.537632
 30
0.0
 10
486.682891
 20
674.537632
 30
0.0
 10
486.682891
 20
666.044664
 30
0.0
 10
497.290416
 20
666.044664
 30
0.0
  0
SPLINE
  5
1db
100
AcDbEntity
  8
text
 62
1
100
AcDbSpline
 70
8
 71
3
 72
8
 73
4
 74
0
 40
0
 40
0
 40
0
 40
0
 40
1
 40
1
 40
1
 40
1
 10
121.436712
 20
395.379861
 30
0.0
 10
121.436712
 20
395.004148
 30
0.0
 10
121.101682
 20
394.699572
 30
0.0
 10
120.688396
 20
394.699572
 30
0.0
  0
SPLINE
  5
1dc
100
AcDbEntity
  8
text
 62
1
100
AcDbSpline
 70
8
 71
3
 72
8
 73
4
 74
0
 40
0
 40
0
 40
0
 40
0
 40
1
 40
1
 40
1
 40
1
 10
120.688396
 20
394.699572
 30
0.0
 10
120.275111
 20
394.699572
 30
0.0
 10
119.940080
 20
395.004148
 30
0.0
 10
119.940080
 20
395.379861
 30
0.0
  0
SPLINE
  5
1dd
100
AcDbEntity
  8
text
 62
1
100
AcDbSpline
 70
8
 71
3
 72
8
 73
4
 74
0
 40
0
 40
0
 40
0
 40
0
 40
1
 40
1
 40
1
 40
1
 10
119.940080
 20
395.379861
 30
0.0
 10
119.940080
 20
395.755574
 30
0.0
 10
120.275111
 20
396.060150
 30
0.0
 10
120.688396
 20
396.060150
 30
0.0
  0
SPLINE
  5
1de
100
AcDbEntity
  8
text
 62
1
100
AcDbSpline
 70
8
 71
3
 72
8
 73
4
 74
0
 40
0
 40
0
 40
0
 40
0
 40
1
 40
1
 40
1
 40
1
 10
120.688396
 20
396.060150
 30
0.0
 10
121.101682
 20
396.060150
 30
0.0
 10
121.436712
 20
395.755574
 30
0.0
 10
121.436712
 20
395.379861
 30
0.0
  0
LWPOLYLINE
  5
1df
100
AcDbEntity
  8
text
 62
7
100
AcDbPolyline
 90
6
 70
0
 10
67.927395
 20
41.221512
 30
0.0
 10
24.057542
 20
41.221512
 30
0.0
 10
24.057542
 20
404.500531
 30
0.0
 10
145.529838
 20
404.500531
 30
0.0
 10
145.529838
 20
41.221512
 30
0.0
 10
24.057542
 20
41.221512
 30
0.0
  0
SPLINE
  5
1e0
100
AcDbEntity
  8
text
 62
1
100
AcDbSpline
 70
8
 71
3
 72
8
 73
4
 74
0
 40
0
 40
0
 40
0
 40
0
 40
1
 40
1
 40
1
 40
1
 10
49.300662
 20
51.493878
 30
0.0
 10
49.300662
 20
51.230883
 30
0.0
 10
49.026536
 20
51.017672
 30
0.0
 10
48.688396
 20
51.017672
 30
0.0
  0
SPLINE
  5
1e1
100
AcDbEntity
  8
text
 62
1
100
AcDbSpline
 70
8
 71
3
 72
8
 73
4
 74
0
 40
0
 40
0
 40
0
 40
0
 40
1
 40
1
 40
1
 40
1
 10
48.688396
 20
51.017672
 30
0.0
 10
48.350256
 20
51.017672
 30
0.0
 10
48.076140
 20
51.230883
 30
0.0
 10
48.076140
 20
51.493878
 30
0.0
  0
SPLINE
  5
1e2
100
AcDbEntity
  8
text
 62
1
100
AcDbSpline
 70
8
 71
3
 72
8
 73
4
 74
0
 40
0
 40
0
 40
0
 40
0
 40
1
 40
1
 40
1
 40
1
 10
48.076140
 20
51.493878
 30
0.0
 10
48.076140
 20
51.756873
 30
0.0
 10
48.350256
 20
51.970083
 30
0.0
 10
48.688396
 20
51.970083
 30
0.0
  0
SPLINE
  5
1e3
100
AcDbEntity
  8
text
 62
1
100
AcDbSpline
 70
8
 71
3
 72
8
 73
4
 74
0
 40
0
 40
0
 40
0
 40
0
 40
1
 40
1
 40
1
 40
1
 10
48.688396
 20
51.970083
 30
0.0
 10
49.026536
 20
51.970083
 30
0.0
 10
49.300662
 20
51.756873
 30
0.0
 10
49.300662
 20
51.493878
 30
0.0
  0
LWPOLYLINE
  5
1e4
100
AcDbEntity
  8
text
 62
1
100
AcDbPolyline
 90
2
 70
1
 10
121.436712
 20
395.379861
 30
0.0
 10
121.436712
 20
395.379861
 30
0.0
  0
SPLINE
  5
1e5
100
AcDbEntity
  8
text
 62
7
100
AcDbSpline
 70
8
 71
3
 72
8
 73
4
 74
0
 40
0
 40
0
 40
0
 40
0
 40
1
 40
1
 40
1
 40
1
 10
100.951199
 20
284.237994
 30
0.0
 10
100.951199
 20
283.899852
 30
0.0
 10
100.646626
 20
283.625734
 30
0.0
 10
100.270908
 20
283.625734
 30
0.0
  0
SPLINE
  5
1e6
100
AcDbEntity
  8
text
 62
7
100
AcDbSpline
 70
8
 71
3
 72
8
 73
4
 74
0
 40
0
 40
0
 40
0
 40
0
 40
1
 40
1
 40
1
 40
1
 10
100.270908
 20
283.625734
 30
0.0
 10
99.895200
 20
283.625734
 30
0.0
 10
99.590618
 20
283.899852
 30
0.0
 10
99.590618
 20
284.237994
 30
0.0
  0
SPLINE
  5
1e7
100
AcDbEntity
  8
text
 62
7
100
AcDbSpline
 70
8
 71
3
 72
8
 73
4
 74
0
 40
0
 40
0
 40
0
 40
0
 40
1
 40
1
 40
1
 40
1
 10
99.590618
 20
284.237994
 30
0.0
 10
99.590618
 20
284.576135
 30
0.0
 10
99.895200
 20
284.850253
 30
0.0
 10
100.270908
 20
284.850253
 30
0.0
  0
SPLINE
  5
1e8
100
AcDbEntity
  8
text
 62
7
100
AcDbSpline
 70
8
 71
3
 72
8
 73
4
 74
0
 40
0
 40
0
 40
0
 40
0
 40
1
 40
1
 40
1
 40
1
 10
100.270908
 20
284.850253
 30
0.0
 10
100.646626
 20
284.850253
 30
0.0
 10
100.951199
 20
284.576135
 30
0.0
 10
100.951199
 20
284.237994
 30
0.0
  0
LWPOLYLINE
  5
1e9
100
AcDbEntity
  8
text
 62
1
100
AcDbPolyline
 90
2
 70
1
 10
49.300662
 20
51.493878
 30
0.0
 10
49.300662
 20
51.493878
 30
0.0
  0
SPLINE
  5
1ea
100
AcDbEntity
  8
text
 62
1
100
AcDbSpline
 70
8
 71
3
 72
8
 73
4
 74
0
 40
0
 40
0
 40
0
 40
0
 40
1
 40
1
 40
1
 40
1
 10
69.722416
 20
345.716672
 30
0.0
 10
69.722416
 20
350.736672
 30
0.0
 10
73.070416
 20
354.083672
 30
0.0
 10
78.090416
 20
354.083672
 30
0.0
  0
SPLINE
  5
1eb
100
AcDbEntity
  8
text
 62
1
100
AcDbSpline
 70
8
 71
3
 72
8
 73
4
 74
0
 40
0
 40
0
 40
0
 40
0
 40
1
 40
1
 40
1
 40
1
 10
78.090416
 20
354.083672
 30
0.0
 10
83.113416
 20
354.083672
 30
0.0
 10
86.457416
 20
350.736672
 30
0.0
 10
86.457416
 20
345.716672
 30
0.0
  0
SPLINE
  5
1ec
100
AcDbEntity
  8
text
 62
1
100
AcDbSpline
 70
8
 71
3
 72
8
 73
4
 74
0
 40
0
 40
0
 40
0
 40
0
 40
1
 40
1
 40
1
 40
1
 10
86.457416
 20
345.716672
 30
0.0
 10
86.457416
 20
340.697672
 30
0.0
 10
83.113416
 20
337.349672
 30
0.0
 10
78.090416
 20
337.349672
 30
0.0
  0
SPLINE
  5
1ed
100
AcDbEntity
  8
text
 62
1
100
AcDbSpline
 70
8
 71
3
 72
8
 73
4
 74
0
 40
0
 40
0
 40
0
 40
0
 40
1
 40
1
 40
1
 40
1
 10
78.090416
 20
337.349672
 30
0.0
 10
73.070416
 20
337.349672
 30
0.0
 10
69.722416
 20
340.697672
 30
0.0
 10
69.722416
 20
345.716672
 30
0.0
  0
LWPOLYLINE
  5
1ee
100
AcDbEntity
  8
text
 62
7
100
AcDbPolyline
 90
2
 70
1
 10
100.951199
 20
284.237994
 30
0.0
 10
100.951199
 20
284.237994
 30
0.0
  0
LWPOLYLINE
  5
1ef
100
AcDbEntity
  8
text
 62
1
100
AcDbPolyline
 90
2
 70
0
 10
74.746416
 20
345.716672
 30
0.0
 10
81.437416
 20
345.716672
 30
0.0
  0
SPLINE
  5
1f0
100
AcDbEntity
  8
text
 62
1
100
AcDbSpline
 70
8
 71
3
 72
8
 73
4
 74
0
 40
0
 40
0
 40
0
 40
0
 40
1
 40
1
 40
1
 40
1
 10
69.866416
 20
93.324600
 30
0.0
 10
69.866416
 20
98.344600
 30
0.0
 10
73.214416
 20
101.691600
 30
0.0
 10
78.234416
 20
101.691600
 30
0.0
  0
SPLINE
  5
1f1
100
AcDbEntity
  8
text
 62
1
100
AcDbSpline
 70
8
 71
3
 72
8
 73
4
 74
0
 40
0
 40
0
 40
0
 40
0
 40
1
 40
1
 40
1
 40
1
 10
78.234416
 20
101.691600
 30
0.0
 10
83.257416
 20
101.691600
 30
0.0
 10
86.601416
 20
98.344600
 30
0.0
 10
86.601416
 20
93.324600
 30
0.0
  0
SPLINE
  5
1f2
100
AcDbEntity
  8
text
 62
1
100
AcDbSpline
 70
8
 71
3
 72
8
 73
4
 74
0
 40
0
 40
0
 40
0
 40
0
 40
1
 40
1
 40
1
 40
1
 10
86.601416
 20
93.324600
 30
0.0
 10
86.601416
 20
88.305600
 30
0.0
 10
83.257416
 20
84.957600
 30
0.0
 10
78.234416
 20
84.957600
 30
0.0
  0
SPLINE
  5
1f3
100
AcDbEntity
  8
text
 62
1
100
AcDbSpline
 70
8
 71
3
 72
8
 73
4
 74
0
 40
0
 40
0
 40
0
 40
0
 40
1
 40
1
 40
1
 40
1
 10
78.234416
 20
84.957600
 30
0.0
 10
73.214416
 20
84.957600
 30
0.0
 10
69.866416
 20
88.305600
 30
0.0
 10
69.866416
 20
93.324600
 30
0.0
  0
LWPOLYLINE
  5
1f4
100
AcDbEntity
  8
text
 62
1
100
AcDbPolyline
 90
2
 70
0
 10
78.090416
 20
342.369672
 30
0.0
 10
78.090416
 20
349.064672
 30
0.0
  0
LWPOLYLINE
  5
1f5
100
AcDbEntity
  8
text
 62
1
100
AcDbPolyline
 90
2
 70
0
 10
74.890416
 20
93.324600
 30
0.0
 10
81.581416
 20
93.324600
 30
0.0
  0
SPLINE
  5
1f6
100
AcDbEntity
  8
text
 62
1
100
AcDbSpline
 70
8
 71
3
 72
8
 73
4
 74
0
 40
0
 40
0
 40
0
 40
0
 40
1
 40
1
 40
1
 40
1
 10
92.122416
 20
295.212600
 30
0.0
 10
92.122416
 20
300.232600
 30
0.0
 10
95.470416
 20
303.579600
 30
0.0
 10
100.490416
 20
303.579600
 30
0.0
  0
SPLINE
  5
1f7
100
AcDbEntity
  8
text
 62
1
100
AcDbSpline
 70
8
 71
3
 72
8
 73
4
 74
0
 40
0
 40
0
 40
0
 40
0
 40
1
 40
1
 40
1
 40
1
 10
100.490416
 20
303.579600
 30
0.0
 10
105.513416
 20
303.579600
 30
0.0
 10
108.857416
 20
300.232600
 30
0.0
 10
108.857416
 20
295.212600
 30
0.0
  0
SPLINE
  5
1f8
100
AcDbEntity
  8
text
 62
1
100
AcDbSpline
 70
8
 71
3
 72
8
 73
4
 74
0
 40
0
 40
0
 40
0
 40
0
 40
1
 40
1
 40
1
 40
1
 10
108.857416
 20
295.212600
 30
0.0
 10
108.857416
 20
290.193600
 30
0.0
 10
105.513416
 20
286.845600
 30
0.0
 10
100.490416
 20
286.845600
 30
0.0
  0
SPLINE
  5
1f9
100
AcDbEntity
  8
text
 62
1
100
AcDbSpline
 70
8
 71
3
 72
8
 73
4
 74
0
 40
0
 40
0
 40
0
 40
0
 40
1
 40
1
 40
1
 40
1
 10
100.490416
 20
286.845600
 30
0.0
 10
95.470416
 20
286.845600
 30
0.0
 10
92.122416
 20
290.193600
 30
0.0
 10
92.122416
 20
295.212600
 30
0.0
  0
LWPOLYLINE
  5
1fa
100
AcDbEntity
  8
text
 62
1
100
AcDbPolyline
 90
2
 70
0
 10
78.234416
 20
89.977600
 30
0.0
 10
78.234416
 20
96.672600
 30
0.0
  0
LWPOLYLINE
  5
1fb
100
AcDbEntity
  8
text
 62
1
100
AcDbPolyline
 90
2
 70
0
 10
97.146416
 20
295.212600
 30
0.0
 10
103.837416
 20
295.212600
 30
0.0
  0
SPLINE
  5
1fc
100
AcDbEntity
  8
text
 62
1
100
AcDbSpline
 70
8
 71
3
 72
8
 73
4
 74
0
 40
0
 40
0
 40
0
 40
0
 40
1
 40
1
 40
1
 40
1
 10
92.122416
 20
244.524600
 30
0.0
 10
92.122416
 20
249.544600
 30
0.0
 10
95.470416
 20
252.891600
 30
0.0
 10
100.490416
 20
252.891600
 30
0.0
  0
SPLINE
  5
1fd
100
AcDbEntity
  8
text
 62
1
100
AcDbSpline
 70
8
 71
3
 72
8
 73
4
 74
0
 40
0
 40
0
 40
0
 40
0
 40
1
 40
1
 40
1
 40
1
 10
100.490416
 20
252.891600
 30
0.0
 10
105.513416
 20
252.891600
 30
0.0
 10
108.857416
 20
249.544600
 30
0.0
 10
108.857416
 20
244.524600
 30
0.0
  0
SPLINE
  5
1fe
100
AcDbEntity
  8
text
 62
1
100
AcDbSpline
 70
8
 71
3
 72
8
 73
4
 74
0
 40
0
 40
0
 40
0
 40
0
 40
1
 40
1
 40
1
 40
1
 10
108.857416
 20
244.524600
 30
0.0
 10
108.857416
 20
239.505600
 30
0.0
 10
105.513416
 20
236.157600
 30
0.0
 10
100.490416
 20
236.157600
 30
0.0
  0
SPLINE
  5
1ff
100
AcDbEntity
  8
text
 62
1
100
AcDbSpline
 70
8
 71
3
 72
8
 73
4
 74
0
 40
0
 40
0
 40
0
 40
0
 40
1
 40
1
 40
1
 40
1
 10
100.490416
 20
236.157600
 30
0.0
 10
95.470416
 20
236.157600
 30
0.0
 10
92.122416
 20
239.505600
 30
0.0
 10
92.122416
 20
244.524600
 30
0.0
  0
LWPOLYLINE
  5
200
100
AcDbEntity
  8
text
 62
1
100
AcDbPolyline
 90
2
 70
0
 10
100.490416
 20
291.865600
 30
0.0
 10
100.490416
 20
298.560600
 30
0.0
  0
LWPOLYLINE
  5
201
100
AcDbEntity
  8
text
 62
1
100
AcDbPolyline
 90
2
 70
0
 10
97.146416
 20
244.524600
 30
0.0
 10
103.837416
 20
244.524600
 30
0.0
  0
SPLINE
  5
202
100
AcDbEntity
  8
text
 62
1
100
AcDbSpline
 70
8
 71
3
 72
8
 73
4
 74
0
 40
0
 40
0
 40
0
 40
0
 40
1
 40
1
 40
1
 40
1
 10
92.122416
 20
194.340600
 30
0.0
 10
92.122416
 20
199.360600
 30
0.0
 10
95.470416
 20
202.707600
 30
0.0
 10
100.490416
 20
202.707600
 30
0.0
  0
SPLINE
  5
203
100
AcDbEntity
  8
text
 62
1
100
AcDbSpline
 70
8
 71
3
 72
8
 73
4
 74
0
 40
0
 40
0
 40
0
 40
0
 40
1
 40
1
 40
1
 40
1
 10
100.490416
 20
202.707600
 30
0.0
 10
105.513416
 20
202.707600
 30
0.0
 10
108.857416
 20
199.360600
 30
0.0
 10
108.857416
 20
194.340600
 30
0.0
  0
SPLINE
  5
204
100
AcDbEntity
  8
text
 62
1
100
AcDbSpline
 70
8
 71
3
 72
8
 73
4
 74
0
 40
0
 40
0
 40
0
 40
0
 40
1
 40
1
 40
1
 40
1
 10
108.857416
 20
194.340600
 30
0.0
 10
108.857416
 20
189.321600
 30
0.0
 10
105.513416
 20
185.973600
 30
0.0
 10
100.490416
 20
185.973600
 30
0.0
  0
SPLINE
  5
205
100
AcDbEntity
  8
text
 62
1
100
AcDbSpline
 70
8
 71
3
 72
8
 73
4
 74
0
 40
0
 40
0
 40
0
 40
0
 40
1
 40
1
 40
1
 40
1
 10
100.490416
 20
185.973600
 30
0.0
 10
95.470416
 20
185.973600
 30
0.0
 10
92.122416
 20
189.321600
 30
0.0
 10
92.122416
 20
194.340600
 30
0.0
  0
LWPOLYLINE
  5
206
100
AcDbEntity
  8
text
 62
1
100
AcDbPolyline
 90
2
 70
0
 10
100.490416
 20
241.177600
 30
0.0
 10
100.490416
 20
247.872600
 30
0.0
  0
LWPOLYLINE
  5
207
100
AcDbEntity
  8
text
 62
1
100
AcDbPolyline
 90
2
 70
0
 10
97.146416
 20
194.340600
 30
0.0
 10
103.837416
 20
194.340600
 30
0.0
  0
SPLINE
  5
208
100
AcDbEntity
  8
text
 62
1
100
AcDbSpline
 70
8
 71
3
 72
8
 73
4
 74
0
 40
0
 40
0
 40
0
 40
0
 40
1
 40
1
 40
1
 40
1
 10
92.122416
 20
143.940600
 30
0.0
 10
92.122416
 20
148.960600
 30
0.0
 10
95.470416
 20
152.307600
 30
0.0
 10
100.490416
 20
152.307600
 30
0.0
  0
SPLINE
  5
209
100
AcDbEntity
  8
text
 62
1
100
AcDbSpline
 70
8
 71
3
 72
8
 73
4
 74
0
 40
0
 40
0
 40
0
 40
0
 40
1
 40
1
 40
1
 40
1
 10
100.490416
 20
152.307600
 30
0.0
 10
105.513416
 20
152.307600
 30
0.0
 10
108.857416
 20
148.960600
 30
0.0
 10
108.857416
 20
143.940600
 30
0.0
  0
SPLINE
  5
20a
100
AcDbEntity
  8
text
 62
1
100
AcDbSpline
 70
8
 71
3
 72
8
 73
4
 74
0
 40
0
 40
0
 40
0
 40
0
 40
1
 40
1
 40
1
 40
1
 10
108.857416
 20
143.940600
 30
0.0
 10
108.857416
 20
138.921600
 30
0.0
 10
105.513416
 20
135.573600
 30
0.0
 10
100.490416
 20
135.573600
 30
0.0
  0
SPLINE
  5
20b
100
AcDbEntity
  8
text
 62
1
100
AcDbSpline
 70
8
 71
3
 72
8
 73
4
 74
0
 40
0
 40
0
 40
0
 40
0
 40
1
 40
1
 40
1
 40
1
 10
100.490416
 20
135.573600
 30
0.0
 10
95.470416
 20
135.573600
 30
0.0
 10
92.122416
 20
138.921600
 30
0.0
 10
92.122416
 20
143.940600
 30
0.0
  0
LWPOLYLINE
  5
20c
100
AcDbEntity
  8
text
 62
1
100
AcDbPolyline
 90
2
 70
0
 10
100.490416
 20
190.993600
 30
0.0
 10
100.490416
 20
197.688600
 30
0.0
  0
LWPOLYLINE
  5
20d
100
AcDbEntity
  8
text
 62
1
100
AcDbPolyline
 90
2
 70
0
 10
97.146416
 20
143.940600
 30
0.0
 10
103.837416
 20
143.940600
 30
0.0
  0
LWPOLYLINE
  5
20e
100
AcDbEntity
  8
text
 62
1
100
AcDbPolyline
 90
2
 70
0
 10
100.490416
 20
140.593600
 30
0.0
 10
100.490416
 20
147.288600
 30
0.0
  0
LWPOLYLINE
  5
20f
100
AcDbEntity
  8
text
 62
1
100
AcDbPolyline
 90
6
 70
0
 10
34.057462
 20
291.648000
 30
0.0
 10
45.381227
 20
291.648000
 30
0.0
 10
45.381227
 20
300.137632
 30
0.0
 10
54.682891
 20
300.137632
 30
0.0
 10
54.682891
 20
291.644664
 30
0.0
 10
65.290416
 20
291.644664
 30
0.0
  0
SPLINE
  5
210
100
AcDbEntity
  8
text
 62
1
100
AcDbSpline
 70
8
 71
3
 72
8
 73
4
 74
0
 40
0
 40
0
 40
0
 40
0
 40
1
 40
1
 40
1
 40
1
 10
265.436712
 20
395.379861
 30
0.0
 10
265.436712
 20
395.004148
 30
0.0
 10
265.101682
 20
394.699572
 30
0.0
 10
264.688396
 20
394.699572
 30
0.0
  0
SPLINE
  5
211
100
AcDbEntity
  8
text
 62
1
100
AcDbSpline
 70
8
 71
3
 72
8
 73
4
 74
0
 40
0
 40
0
 40
0
 40
0
 40
1
 40
1
 40
1
 40
1
 10
264.688396
 20
394.699572
 30
0.0
 10
264.275111
 20
394.699572
 30
0.0
 10
263.940080
 20
395.004148
 30
0.0
 10
263.940080
 20
395.379861
 30
0.0
  0
SPLINE
  5
212
100
AcDbEntity
  8
text
 62
1
100
AcDbSpline
 70
8
 71
3
 72
8
 73
4
 74
0
 40
0
 40
0
 40
0
 40
0
 40
1
 40
1
 40
1
 40
1
 10
263.940080
 20
395.379861
 30
0.0
 10
263.940080
 20
395.755574
 30
0.0
 10
264.275111
 20
396.060150
 30
0.0
 10
264.688396
 20
396.060150
 30
0.0
  0
SPLINE
  5
213
100
AcDbEntity
  8
text
 62
1
100
AcDbSpline
 70
8
 71
3
 72
8
 73
4
 74
0
 40
0
 40
0
 40
0
 40
0
 40
1
 40
1
 40
1
 40
1
 10
264.688396
 20
396.060150
 30
0.0
 10
265.101682
 20
396.060150
 30
0.0
 10
265.436712
 20
395.755574
 30
0.0
 10
265.436712
 20
395.379861
 30
0.0
  0
LWPOLYLINE
  5
214
100
AcDbEntity
  8
text
 62
7
100
AcDbPolyline
 90
6
 70
0
 10
211.927395
 20
41.221512
 30
0.0
 10
168.057542
 20
41.221512
 30
0.0
 10
168.057542
 20
404.500531
 30
0.0
 10
289.529838
 20
404.500531
 30
0.0
 10
289.529838
 20
41.221512
 30
0.0
 10
168.057542
 20
41.221512
 30
0.0
  0
SPLINE
  5
215
100
AcDbEntity
  8
text
 62
1
100
AcDbSpline
 70
8
 71
3
 72
8
 73
4
 74
0
 40
0
 40
0
 40
0
 40
0
 40
1
 40
1
 40
1
 40
1
 10
193.300662
 20
51.493878
 30
0.0
 10
193.300662
 20
51.230883
 30
0.0
 10
193.026536
 20
51.017672
 30
0.0
 10
192.688396
 20
51.017672
 30
0.0
  0
SPLINE
  5
216
100
AcDbEntity
  8
text
 62
1
100
AcDbSpline
 70
8
 71
3
 72
8
 73
4
 74
0
 40
0
 40
0
 40
0
 40
0
 40
1
 40
1
 40
1
 40
1
 10
192.688396
 20
51.017672
 30
0.0
 10
192.350256
 20
51.017672
 30
0.0
 10
192.076140
 20
51.230883
 30
0.0
 10
192.076140
 20
51.493878
 30
0.0
  0
SPLINE
  5
217
100
AcDbEntity
  8
text
 62
1
100
AcDbSpline
 70
8
 71
3
 72
8
 73
4
 74
0
 40
0
 40
0
 40
0
 40
0
 40
1
 40
1
 40
1
 40
1
 10
192.076140
 20
51.493878
 30
0.0
 10
192.076140
 20
51.756873
 30
0.0
 10
192.350256
 20
51.970083
 30
0.0
 10
192.688396
 20
51.970083
 30
0.0
  0
SPLINE
  5
218
100
AcDbEntity
  8
text
 62
1
100
AcDbSpline
 70
8
 71
3
 72
8
 73
4
 74
0
 40
0
 40
0
 40
0
 40
0
 40
1
 40
1
 40
1
 40
1
 10
192.688396
 20
51.970083
 30
0.0
 10
193.026536
 20
51.970083
 30
0.0
 10
193.300662
 20
51.756873
 30
0.0
 10
193.300662
 20
51.493878
 30
0.0
  0
LWPOLYLINE
  5
219
100
AcDbEntity
  8
text
 62
1
100
AcDbPolyline
 90
2
 70
1
 10
265.436712
 20
395.379861
 30
0.0
 10
265.436712
 20
395.379861
 30
0.0
  0
SPLINE
  5
21a
100
AcDbEntity
  8
text
 62
7
100
AcDbSpline
 70
8
 71
3
 72
8
 73
4
 74
0
 40
0
 40
0
 40
0
 40
0
 40
1
 40
1
 40
1
 40
1
 10
244.951199
 20
284.237994
 30
0.0
 10
244.951199
 20
283.899852
 30
0.0
 10
244.646626
 20
283.625734
 30
0.0
 10
244.270908
 20
283.625734
 30
0.0
  0
SPLINE
  5
21b
100
AcDbEntity
  8
text
 62
7
100
AcDbSpline
 70
8
 71
3
 72
8
 73
4
 74
0
 40
0
 40
0
 40
0
 40
0
 40
1
 40
1
 40
1
 40
1
 10
244.270908
 20
283.625734
 30
0.0
 10
243.895200
 20
283.625734
 30
0.0
 10
243.590618
 20
283.899852
 30
0.0
 10
243.590618
 20
284.237994
 30
0.0
  0
SPLINE
  5
21c
100
AcDbEntity
  8
text
 62
7
100
AcDbSpline
 70
8
 71
3
 72
8
 73
4
 74
0
 40
0
 40
0
 40
0
 40
0
 40
1
 40
1
 40
1
 40
1
 10
243.590618
 20
284.237994
 30
0.0
 10
243.590618
 20
284.576135
 30
0.0
 10
243.895200
 20
284.850253
 30
0.0
 10
244.270908
 20
284.850253
 30
0.0
  0
SPLINE
  5
21d
100
AcDbEntity
  8
text
 62
7
100
AcDbSpline
 70
8
 71
3
 72
8
 73
4
 74
0
 40
0
 40
0
 40
0
 40
0
 40
1
 40
1
 40
1
 40
1
 10
244.270908
 20
284.850253
 30
0.0
 10
244.646626
 20
284.850253
 30
0.0
 10
244.951199
 20
284.576135
 30
0.0
 10
244.951199
 20
284.237994
 30
0.0
  0
LWPOLYLINE
  5
21e
100
AcDbEntity
  8
text
 62
1
100
AcDbPolyline
 90
2
 70
1
 10
193.300662
 20
51.493878
 30
0.0
 10
193.300662
 20
51.493878
 30
0.0
  0
SPLINE
  5
21f
100
AcDbEntity
  8
text
 62
1
100
AcDbSpline
 70
8
 71
3
 72
8
 73
4
 74
0
 40
0
 40
0
 40
0
 40
0
 40
1
 40
1
 40
1
 40
1
 10
213.722416
 20
345.716672
 30
0.0
 10
213.722416
 20
350.736672
 30
0.0
 10
217.070416
 20
354.083672
 30
0.0
 10
222.090416
 20
354.083672
 30
0.0
  0
SPLINE
  5
220
100
AcDbEntity
  8
text
 62
1
100
AcDbSpline
 70
8
 71
3
 72
8
 73
4
 74
0
 40
0
 40
0
 40
0
 40
0
 40
1
 40
1
 40
1
 40
1
 10
222.090416
 20
354.083672
 30
0.0
 10
227.113416
 20
354.083672
 30
0.0
 10
230.457416
 20
350.736672
 30
0.0
 10
230.457416
 20
345.716672
 30
0.0
  0
SPLINE
  5
221
100
AcDbEntity
  8
text
 62
1
100
AcDbSpline
 70
8
 71
3
 72
8
 73
4
 74
0
 40
0
 40
0
 40
0
 40
0
 40
1
 40
1
 40
1
 40
1
 10
230.457416
 20
345.716672
 30
0.0
 10
230.457416
 20
340.697672
 30
0.0
 10
227.113416
 20
337.349672
 30
0.0
 10
222.090416
 20
337.349672
 30
0.0
  0
SPLINE
  5
222
100
AcDbEntity
  8
text
 62
1
100
AcDbSpline
 70
8
 71
3
 72
8
 73
4
 74
0
 40
0
 40
0
 40
0
 40
0
 40
1
 40
1
 40
1
 40
1
 10
222.090416
 20
337.349672
 30
0.0
 10
217.070416
 20
337.349672
 30
0.0
 10
213.722416
 20
340.697672
 30
0.0
 10
213.722416
 20
345.716672
 30
0.0
  0
LWPOLYLINE
  5
223
100
AcDbEntity
  8
text
 62
7
100
AcDbPolyline
 90
2
 70
1
 10
244.951199
 20
284.237994
 30
0.0
 10
244.951199
 20
284.237994
 30
0.0
  0
LWPOLYLINE
  5
224
100
AcDbEntity
  8
text
 62
1
100
AcDbPolyline
 90
2
 70
0
 10
218.746416
 20
345.716672
 30
0.0
 10
225.437416
 20
345.716672
 30
0.0
  0
SPLINE
  5
225
100
AcDbEntity
  8
text
 62
1
100
AcDbSpline
 70
8
 71
3
 72
8
 73
4
 74
0
 40
0
 40
0
 40
0
 40
0
 40
1
 40
1
 40
1
 40
1
 10
213.866416
 20
93.324600
 30
0.0
 10
213.866416
 20
98.344600
 30
0.0
 10
217.214416
 20
101.691600
 30
0.0
 10
222.234416
 20
101.691600
 30
0.0
  0
SPLINE
  5
226
100
AcDbEntity
  8
text
 62
1
100
AcDbSpline
 70
8
 71
3
 72
8
 73
4
 74
0
 40
0
 40
0
 40
0
 40
0
 40
1
 40
1
 40
1
 40
1
 10
222.234416
 20
101.691600
 30
0.0
 10
227.257416
 20
101.691600
 30
0.0
 10
230.601416
 20
98.344600
 30
0.0
 10
230.601416
 20
93.324600
 30
0.0
  0
SPLINE
  5
227
100
AcDbEntity
  8
text
 62
1
100
AcDbSpline
 70
8
 71
3
 72
8
 73
4
 74
0
 40
0
 40
0
 40
0
 40
0
 40
1
 40
1
 40
1
 40
1
 10
230.601416
 20
93.324600
 30
0.0
 10
230.601416
 20
88.305600
 30
0.0
 10
227.257416
 20
84.957600
 30
0.0
 10
222.234416
 20
84.957600
 30
0.0
  0
SPLINE
  5
228
100
AcDbEntity
  8
text
 62
1
100
AcDbSpline
 70
8
 71
3
 72
8
 73
4
 74
0
 40
0
 40
0
 40
0
 40
0
 40
1
 40
1
 40
1
 40
1
 10
222.234416
 20
84.957600
 30
0.0
 10
217.214416
 20
84.957600
 30
0.0
 10
213.866416
 20
88.305600
 30
0.0
 10
213.866416
 20
93.324600
 30
0.0
  0
LWPOLYLINE
  5
229
100
AcDbEntity
  8
text
 62
1
100
AcDbPolyline
 90
2
 70
0
 10
222.090416
 20
342.369672
 30
0.0
 10
222.090416
 20
349.064672
 30
0.0
  0
LWPOLYLINE
  5
22a
100
AcDbEntity
  8
text
 62
1
100
AcDbPolyline
 90
2
 70
0
 10
218.890416
 20
93.324600
 30
0.0
 10
225.581416
 20
93.324600
 30
0.0
  0
SPLINE
  5
22b
100
AcDbEntity
  8
text
 62
1
100
AcDbSpline
 70
8
 71
3
 72
8
 73
4
 74
0
 40
0
 40
0
 40
0
 40
0
 40
1
 40
1
 40
1
 40
1
 10
236.122416
 20
295.212600
 30
0.0
 10
236.122416
 20
300.232600
 30
0.0
 10
239.470416
 20
303.579600
 30
0.0
 10
244.490416
 20
303.579600
 30
0.0
  0
SPLINE
  5
22c
100
AcDbEntity
  8
text
 62
1
100
AcDbSpline
 70
8
 71
3
 72
8
 73
4
 74
0
 40
0
 40
0
 40
0
 40
0
 40
1
 40
1
 40
1
 40
1
 10
244.490416
 20
303.579600
 30
0.0
 10
249.513416
 20
303.579600
 30
0.0
 10
252.857416
 20
300.232600
 30
0.0
 10
252.857416
 20
295.212600
 30
0.0
  0
SPLINE
  5
22d
100
AcDbEntity
  8
text
 62
1
100
AcDbSpline
 70
8
 71
3
 72
8
 73
4
 74
0
 40
0
 40
0
 40
0
 40
0
 40
1
 40
1
 40
1
 40
1
 10
252.857416
 20
295.212600
 30
0.0
 10
252.857416
 20
290.193600
 30
0.0
 10
249.513416
 20
286.845600
 30
0.0
 10
244.490416
 20
286.845600
 30
0.0
  0
SPLINE
  5
22e
100
AcDbEntity
  8
text
 62
1
100
AcDbSpline
 70
8
 71
3
 72
8
 73
4
 74
0
 40
0
 40
0
 40
0
 40
0
 40
1
 40
1
 40
1
 40
1
 10
244.490416
 20
286.845600
 30
0.0
 10
239.470416
 20
286.845600
 30
0.0
 10
236.122416
 20
290.193600
 30
0.0
 10
236.122416
 20
295.212600
 30
0.0
  0
LWPOLYLINE
  5
22f
100
AcDbEntity
  8
text
 62
1
100
AcDbPolyline
 90
2
 70
0
 10
222.234416
 20
89.977600
 30
0.0
 10
222.234416
 20
96.672600
 30
0.0
  0
LWPOLYLINE
  5
230
100
AcDbEntity
  8
text
 62
1
100
AcDbPolyline
 90
2
 70
0
 10
241.146416
 20
295.212600
 30
0.0
 10
247.837416
 20
295.212600
 30
0.0
  0
SPLINE
  5
231
100
AcDbEntity
  8
text
 62
1
100
AcDbSpline
 70
8
 71
3
 72
8
 73
4
 74
0
 40
0
 40
0
 40
0
 40
0
 40
1
 40
1
 40
1
 40
1
 10
236.122416
 20
244.524600
 30
0.0
 10
236.122416
 20
249.544600
 30
0.0
 10
239.470416
 20
252.891600
 30
0.0
 10
244.490416
 20
252.891600
 30
0.0
  0
SPLINE
  5
232
100
AcDbEntity
  8
text
 62
1
100
AcDbSpline
 70
8
 71
3
 72
8
 73
4
 74
0
 40
0
 40
0
 40
0
 40
0
 40
1
 40
1
 40
1
 40
1
 10
244.490416
 20
252.891600
 30
0.0
 10
249.513416
 20
252.891600
 30
0.0
 10
252.857416
 20
249.544600
 30
0.0
 10
252.857416
 20
244.524600
 30
0.0
  0
SPLINE
  5
233
100
AcDbEntity
  8
text
 62
1
100
AcDbSpline
 70
8
 71
3
 72
8
 73
4
 74
0
 40
0
 40
0
 40
0
 40
0
 40
1
 40
1
 40
1
 40
1
 10
252.857416
 20
244.524600
 30
0.0
 10
252.857416
 20
239.505600
 30
0.0
 10
249.513416
 20
236.157600
 30
0.0
 10
244.490416
 20
236.157600
 30
0.0
  0
SPLINE
  5
234
100
AcDbEntity
  8
text
 62
1
100
AcDbSpline
 70
8
 71
3
 72
8
 73
4
 74
0
 40
0
 40
0
 40
0
 40
0
 40
1
 40
1
 40
1
 40
1
 10
244.490416
 20
236.157600
 30
0.0
 10
239.470416
 20
236.157600
 30
0.0
 10
236.122416
 20
239.505600
 30
0.0
 10
236.122416
 20
244.524600
 30
0.0
  0
LWPOLYLINE
  5
235
100
AcDbEntity
  8
text
 62
1
100
AcDbPolyline
 90
2
 70
0
 10
244.490416
 20
291.865600
 30
0.0
 10
244.490416
 20
298.560600
 30
0.0
  0
LWPOLYLINE
  5
236
100
AcDbEntity
  8
text
 62
1
100
AcDbPolyline
 90
2
 70
0
 10
241.146416
 20
244.524600
 30
0.0
 10
247.837416
 20
244.524600
 30
0.0
  0
SPLINE
  5
237
100
AcDbEntity
  8
text
 62
1
100
AcDbSpline
 70
8
 71
3
 72
8
 73
4
 74
0
 40
0
 40
0
 40
0
 40
0
 40
1
 40
1
 40
1
 40
1
 10
236.122416
 20
194.340600
 30
0.0
 10
236.122416
 20
199.360600
 30
0.0
 10
239.470416
 20
202.707600
 30
0.0
 10
244.490416
 20
202.707600
 30
0.0
  0
SPLINE
  5
238
100
AcDbEntity
  8
text
 62
1
100
AcDbSpline
 70
8
 71
3
 72
8
 73
4
 74
0
 40
0
 40
0
 40
0
 40
0
 40
1
 40
1
 40
1
 40
1
 10
244.490416
 20
202.707600
 30
0.0
 10
249.513416
 20
202.707600
 30
0.0
 10
252.857416
 20
199.360600
 30
0.0
 10
252.857416
 20
194.340600
 30
0.0
  0
SPLINE
  5
239
100
AcDbEntity
  8
text
 62
1
100
AcDbSpline
 70
8
 71
3
 72
8
 73
4
 74
0
 40
0
 40
0
 40
0
 40
0
 40
1
 40
1
 40
1
 40
1
 10
252.857416
 20
194.340600
 30
0.0
 10
252.857416
 20
189.321600
 30
0.0
 10
249.513416
 20
185.973600
 30
0.0
 10
244.490416
 20
185.973600
 30
0.0
  0
SPLINE
  5
23a
100
AcDbEntity
  8
text
 62
1
100
AcDbSpline
 70
8
 71
3
 72
8
 73
4
 74
0
 40
0
 40
0
 40
0
 40
0
 40
1
 40
1
 40
1
 40
1
 10
244.490416
 20
185.973600
 30
0.0
 10
239.470416
 20
185.973600
 30
0.0
 10
236.122416
 20
189.321600
 30
0.0
 10
236.122416
 20
194.340600
 30
0.0
  0
LWPOLYLINE
  5
23b
100
AcDbEntity
  8
text
 62
1
100
AcDbPolyline
 90
2
 70
0
 10
244.490416
 20
241.177600
 30
0.0
 10
244.490416
 20
247.872600
 30
0.0
  0
LWPOLYLINE
  5
23c
100
AcDbEntity
  8
text
 62
1
100
AcDbPolyline
 90
2
 70
0
 10
241.146416
 20
194.340600
 30
0.0
 10
247.837416
 20
194.340600
 30
0.0
  0
SPLINE
  5
23d
100
AcDbEntity
  8
text
 62
1
100
AcDbSpline
 70
8
 71
3
 72
8
 73
4
 74
0
 40
0
 40
0
 40
0
 40
0
 40
1
 40
1
 40
1
 40
1
 10
236.122416
 20
143.940600
 30
0.0
 10
236.122416
 20
148.960600
 30
0.0
 10
239.470416
 20
152.307600
 30
0.0
 10
244.490416
 20
152.307600
 30
0.0
  0
SPLINE
  5
23e
100
AcDbEntity
  8
text
 62
1
100
AcDbSpline
 70
8
 71
3
 72
8
 73
4
 74
0
 40
0
 40
0
 40
0
 40
0
 40
1
 40
1
 40
1
 40
1
 10
244.490416
 20
152.307600
 30
0.0
 10
249.513416
 20
152.307600
 30
0.0
 10
252.857416
 20
148.960600
 30
0.0
 10
252.857416
 20
143.940600
 30
0.0
  0
SPLINE
  5
23f
100
AcDbEntity
  8
text
 62
1
100
AcDbSpline
 70
8
 71
3
 72
8
 73
4
 74
0
 40
0
 40
0
 40
0
 40
0
 40
1
 40
1
 40
1
 40
1
 10
252.857416
 20
143.940600
 30
0.0
 10
252.857416
 20
138.921600
 30
0.0
 10
249.513416
 20
135.573600
 30
0.0
 10
244.490416
 20
135.573600
 30
0.0
  0
SPLINE
  5
240
100
AcDbEntity
  8
text
 62
1
100
AcDbSpline
 70
8
 71
3
 72
8
 73
4
 74
0
 40
0
 40
0
 40
0
 40
0
 40
1
 40
1
 40
1
 40
1
 10
244.490416
 20
135.573600
 30
0.0
 10
239.470416
 20
135.573600
 30
0.0
 10
236.122416
 20
138.921600
 30
0.0
 10
236.122416
 20
143.940600
 30
0.0
  0
LWPOLYLINE
  5
241
100
AcDbEntity
  8
text
 62
1
100
AcDbPolyline
 90
2
 70
0
 10
244.490416
 20
190.993600
 30
0.0
 10
244.490416
 20
197.688600
 30
0.0
  0
LWPOLYLINE
  5
242
100
AcDbEntity
  8
text
 62
1
100
AcDbPolyline
 90
2
 70
0
 10
241.146416
 20
143.940600
 30
0.0
 10
247.837416
 20
143.940600
 30
0.0
  0
LWPOLYLINE
  5
243
100
AcDbEntity
  8
text
 62
1
100
AcDbPolyline
 90
2
 70
0
 10
244.490416
 20
140.593600
 30
0.0
 10
244.490416
 20
147.288600
 30
0.0
  0
LWPOLYLINE
  5
244
100
AcDbEntity
  8
text
 62
1
100
AcDbPolyline
 90
6
 70
0
 10
178.057462
 20
291.648000
 30
0.0
 10
189.381227
 20
291.648000
 30
0.0
 10
189.381227
 20
300.137632
 30
0.0
 10
198.682891
 20
300.137632
 30
0.0
 10
198.682891
 20
291.644664
 30
0.0
 10
209.290416
 20
291.644664
 30
0.0
  0
SPLINE
  5
245
100
AcDbEntity
  8
text
 62
1
100
AcDbSpline
 70
8
 71
3
 72
8
 73
4
 74
0
 40
0
 40
0
 40
0
 40
0
 40
1
 40
1
 40
1
 40
1
 10
409.436712
 20
395.379861
 30
0.0
 10
409.436712
 20
395.004148
 30
0.0
 10
409.101682
 20
394.699572
 30
0.0
 10
408.688396
 20
394.699572
 30
0.0
  0
SPLINE
  5
246
100
AcDbEntity
  8
text
 62
1
100
AcDbSpline
 70
8
 71
3
 72
8
 73
4
 74
0
 40
0
 40
0
 40
0
 40
0
 40
1
 40
1
 40
1
 40
1
 10
408.688396
 20
394.699572
 30
0.0
 10
408.275111
 20
394.699572
 30
0.0
 10
407.940080
 20
395.004148
 30
0.0
 10
407.940080
 20
395.379861
 30
0.0
  0
SPLINE
  5
247
100
AcDbEntity
  8
text
 62
1
100
AcDbSpline
 70
8
 71
3
 72
8
 73
4
 74
0
 40
0
 40
0
 40
0
 40
0
 40
1
 40
1
 40
1
 40
1
 10
407.940080
 20
395.379861
 30
0.0
 10
407.940080
 20
395.755574
 30
0.0
 10
408.275111
 20
396.060150
 30
0.0
 10
408.688396
 20
396.060150
 30
0.0
  0
SPLINE
  5
248
100
AcDbEntity
  8
text
 62
1
100
AcDbSpline
 70
8
 71
3
 72
8
 73
4
 74
0
 40
0
 40
0
 40
0
 40
0
 40
1
 40
1
 40
1
 40
1
 10
408.688396
 20
396.060150
 30
0.0
 10
409.101682
 20
396.060150
 30
0.0
 10
409.436712
 20
395.755574
 30
0.0
 10
409.436712
 20
395.379861
 30
0.0
  0
LWPOLYLINE
  5
249
100
AcDbEntity
  8
text
 62
7
100
AcDbPolyline
 90
6
 70
0
 10
355.927395
 20
41.221512
 30
0.0
 10
312.057542
 20
41.221512
 30
0.0
 10
312.057542
 20
404.500531
 30
0.0
 10
433.529838
 20
404.500531
 30
0.0
 10
433.529838
 20
41.221512
 30
0.0
 10
312.057542
 20
41.221512
 30
0.0
  0
SPLINE
  5
24a
100
AcDbEntity
  8
text
 62
1
100
AcDbSpline
 70
8
 71
3
 72
8
 73
4
 74
0
 40
0
 40
0
 40
0
 40
0
 40
1
 40
1
 40
1
 40
1
 10
337.300662
 20
51.493878
 30
0.0
 10
337.300662
 20
51.230883
 30
0.0
 10
337.026536
 20
51.017672
 30
0.0
 10
336.688396
 20
51.017672
 30
0.0
  0
SPLINE
  5
24b
100
AcDbEntity
  8
text
 62
1
100
AcDbSpline
 70
8
 71
3
 72
8
 73
4
 74
0
 40
0
 40
0
 40
0
 40
0
 40
1
 40
1
 40
1
 40
1
 10
336.688396
 20
51.017672
 30
0.0
 10
336.350256
 20
51.017672
 30
0.0
 10
336.076140
 20
51.230883
 30
0.0
 10
336.076140
 20
51.493878
 30
0.0
  0
SPLINE
  5
24c
100
AcDbEntity
  8
text
 62
1
100
AcDbSpline
 70
8
 71
3
 72
8
 73
4
 74
0
 40
0
 40
0
 40
0
 40
0
 40
1
 40
1
 40
1
 40
1
 10
336.076140
 20
51.493878
 30
0.0
 10
336.076140
 20
51.756873
 30
0.0
 10
336.350256
 20
51.970083
 30
0.0
 10
336.688396
 20
51.970083
 30
0.0
  0
SPLINE
  5
24d
100
AcDbEntity
  8
text
 62
1
100
AcDbSpline
 70
8
 71
3
 72
8
 73
4
 74
0
 40
0
 40
0
 40
0
 40
0
 40
1
 40
1
 40
1
 40
1
 10
336.688396
 20
51.970083
 30
0.0
 10
337.026536
 20
51.970083
 30
0.0
 10
337.300662
 20
51.756873
 30
0.0
 10
337.300662
 20
51.493878
 30
0.0
  0
LWPOLYLINE
  5
24e
100
AcDbEntity
  8
text
 62
1
100
AcDbPolyline
 90
2
 70
1
 10
409.436712
 20
395.379861
 30
0.0
 10
409.436712
 20
395.379861
 30
0.0
  0
SPLINE
  5
24f
100
AcDbEntity
  8
text
 62
7
100
AcDbSpline
 70
8
 71
3
 72
8
 73
4
 74
0
 40
0
 40
0
 40
0
 40
0
 40
1
 40
1
 40
1
 40
1
 10
388.951199
 20
284.237994
 30
0.0
 10
388.951199
 20
283.899852
 30
0.0
 10
388.646626
 20
283.625734
 30
0.0
 10
388.270908
 20
283.625734
 30
0.0
  0
SPLINE
  5
250
100
AcDbEntity
  8
text
 62
7
100
AcDbSpline
 70
8
 71
3
 72
8
 73
4
 74
0
 40
0
 40
0
 40
0
 40
0
 40
1
 40
1
 40
1
 40
1
 10
388.270908
 20
283.625734
 30
0.0
 10
387.895200
 20
283.625734
 30
0.0
 10
387.590618
 20
283.899852
 30
0.0
 10
387.590618
 20
284.237994
 30
0.0
  0
SPLINE
  5
251
100
AcDbEntity
  8
text
 62
7
100
AcDbSpline
 70
8
 71
3
 72
8
 73
4
 74
0
 40
0
 40
0
 40
0
 40
0
 40
1
 40
1
 40
1
 40
1
 10
387.590618
 20
284.237994
 30
0.0
 10
387.590618
 20
284.576135
 30
0.0
 10
387.895200
 20
284.850253
 30
0.0
 10
388.270908
 20
284.850253
 30
0.0
  0
SPLINE
  5
252
100
AcDbEntity
  8
text
 62
7
100
AcDbSpline
 70
8
 71
3
 72
8
 73
4
 74
0
 40
0
 40
0
 40
0
 40
0
 40
1
 40
1
 40
1
 40
1
 10
388.270908
 20
284.850253
 30
0.0
 10
388.646626
 20
284.850253
 30
0.0
 10
388.951199
 20
284.576135
 30
0.0
 10
388.951199
 20
284.237994
 30
0.0
  0
LWPOLYLINE
  5
253
100
AcDbEntity
  8
text
 62
1
100
AcDbPolyline
 90
2
 70
1
 10
337.300662
 20
51.493878
 30
0.0
 10
337.300662
 20
51.493878
 30
0.0
  0
SPLINE
  5
254
100
AcDbEntity
  8
text
 62
1
100
AcDbSpline
 70
8
 71
3
 72
8
 73
4
 74
0
 40
0
 40
0
 40
0
 40
0
 40
1
 40
1
 40
1
 40
1
 10
357.722416
 20
345.716672
 30
0.0
 10
357.722416
 20
350.736672
 30
0.0
 10
361.070416
 20
354.083672
 30
0.0
 10
366.090416
 20
354.083672
 30
0.0
  0
SPLINE
  5
255
100
AcDbEntity
  8
text
 62
1
100
AcDbSpline
 70
8
 71
3
 72
8
 73
4
 74
0
 40
0
 40
0
 40
0
 40
0
 40
1
 40
1
 40
1
 40
1
 10
366.090416
 20
354.083672
 30
0.0
 10
371.113416
 20
354.083672
 30
0.0
 10
374.457416
 20
350.736672
 30
0.0
 10
374.457416
 20
345.716672
 30
0.0
  0
SPLINE
  5
256
100
AcDbEntity
  8
text
 62
1
100
AcDbSpline
 70
8
 71
3
 72
8
 73
4
 74
0
 40
0
 40
0
 40
0
 40
0
 40
1
 40
1
 40
1
 40
1
 10
374.457416
 20
345.716672
 30
0.0
 10
374.457416
 20
340.697672
 30
0.0
 10
371.113416
 20
337.349672
 30
0.0
 10
366.090416
 20
337.349672
 30
0.0
  0
SPLINE
  5
257
100
AcDbEntity
  8
text
 62
1
100
AcDbSpline
 70
8
 71
3
 72
8
 73
4
 74
0
 40
0
 40
0
 40
0
 40
0
 40
1
 40
1
 40
1
 40
1
 10
366.090416
 20
337.349672
 30
0.0
 10
361.070416
 20
337.349672
 30
0.0
 10
357.722416
 20
340.697672
 30
0.0
 10
357.722416
 20
345.716672
 30
0.0
  0
LWPOLYLINE
  5
258
100
AcDbEntity
  8
text
 62
7
100
AcDbPolyline
 90
2
 70
1
 10
388.951199
 20
284.237994
 30
0.0
 10
388.951199
 20
284.237994
 30
0.0
  0
LWPOLYLINE
  5
259
100
AcDbEntity
  8
text
 62
1
100
AcDbPolyline
 90
2
 70
0
 10
362.746416
 20
345.716672
 30
0.0
 10
369.437416
 20
345.716672
 30
0.0
  0
SPLINE
  5
25a
100
AcDbEntity
  8
text
 62
1
100
AcDbSpline
 70
8
 71
3
 72
8
 73
4
 74
0
 40
0
 40
0
 40
0
 40
0
 40
1
 40
1
 40
1
 40
1
 10
357.866416
 20
93.324600
 30
0.0
 10
357.866416
 20
98.344600
 30
0.0
 10
361.214416
 20
101.691600
 30
0.0
 10
366.234416
 20
101.691600
 30
0.0
  0
SPLINE
  5
25b
100
AcDbEntity
  8
text
 62
1
100
AcDbSpline
 70
8
 71
3
 72
8
 73
4
 74
0
 40
0
 40
0
 40
0
 40
0
 40
1
 40
1
 40
1
 40
1
 10
366.234416
 20
101.691600
 30
0.0
 10
371.257416
 20
101.691600
 30
0.0
 10
374.601416
 20
98.344600
 30
0.0
 10
374.601416
 20
93.324600
 30
0.0
  0
SPLINE
  5
25c
100
AcDbEntity
  8
text
 62
1
100
AcDbSpline
 70
8
 71
3
 72
8
 73
4
 74
0
 40
0
 40
0
 40
0
 40
0
 40
1
 40
1
 40
1
 40
1
 10
374.601416
 20
93.324600
 30
0.0
 10
374.601416
 20
88.305600
 30
0.0
 10
371.257416
 20
84.957600
 30
0.0
 10
366.234416
 20
84.957600
 30
0.0
  0
SPLINE
  5
25d
100
AcDbEntity
  8
text
 62
1
100
AcDbSpline
 70
8
 71
3
 72
8
 73
4
 74
0
 40
0
 40
0
 40
0
 40
0
 40
1
 40
1
 40
1
 40
1
 10
366.234416
 20
84.957600
 30
0.0
 10
361.214416
 20
84.957600
 30
0.0
 10
357.866416
 20
88.305600
 30
0.0
 10
357.866416
 20
93.324600
 30
0.0
  0
LWPOLYLINE
  5
25e
100
AcDbEntity
  8
text
 62
1
100
AcDbPolyline
 90
2
 70
0
 10
366.090416
 20
342.369672
 30
0.0
 10
366.090416
 20
349.064672
 30
0.0
  0
LWPOLYLINE
  5
25f
100
AcDbEntity
  8
text
 62
1
100
AcDbPolyline
 90
2
 70
0
 10
362.890416
 20
93.324600
 30
0.0
 10
369.581416
 20
93.324600
 30
0.0
  0
SPLINE
  5
260
100
AcDbEntity
  8
text
 62
1
100
AcDbSpline
 70
8
 71
3
 72
8
 73
4
 74
0
 40
0
 40
0
 40
0
 40
0
 40
1
 40
1
 40
1
 40
1
 10
380.122416
 20
295.212600
 30
0.0
 10
380.122416
 20
300.232600
 30
0.0
 10
383.470416
 20
303.579600
 30
0.0
 10
388.490416
 20
303.579600
 30
0.0
  0
SPLINE
  5
261
100
AcDbEntity
  8
text
 62
1
100
AcDbSpline
 70
8
 71
3
 72
8
 73
4
 74
0
 40
0
 40
0
 40
0
 40
0
 40
1
 40
1
 40
1
 40
1
 10
388.490416
 20
303.579600
 30
0.0
 10
393.513416
 20
303.579600
 30
0.0
 10
396.857416
 20
300.232600
 30
0.0
 10
396.857416
 20
295.212600
 30
0.0
  0
SPLINE
  5
262
100
AcDbEntity
  8
text
 62
1
100
AcDbSpline
 70
8
 71
3
 72
8
 73
4
 74
0
 40
0
 40
0
 40
0
 40
0
 40
1
 40
1
 40
1
 40
1
 10
396.857416
 20
295.212600
 30
0.0
 10
396.857416
 20
290.193600
 30
0.0
 10
393.513416
 20
286.845600
 30
0.0
 10
388.490416
 20
286.845600
 30
0.0
  0
SPLINE
  5
263
100
AcDbEntity
  8
text
 62
1
100
AcDbSpline
 70
8
 71
3
 72
8
 73
4
 74
0
 40
0
 40
0
 40
0
 40
0
 40
1
 40
1
 40
1
 40
1
 10
388.490416
 20
286.845600
 30
0.0
 10
383.470416
 20
286.845600
 30
0.0
 10
380.122416
 20
290.193600
 30
0.0
 10
380.122416
 20
295.212600
 30
0.0
  0
LWPOLYLINE
  5
264
100
AcDbEntity
  8
text
 62
1
100
AcDbPolyline
 90
2
 70
0
 10
366.234416
 20
89.977600
 30
0.0
 10
366.234416
 20
96.672600
 30
0.0
  0
LWPOLYLINE
  5
265
100
AcDbEntity
  8
text
 62
1
100
AcDbPolyline
 90
2
 70
0
 10
385.146416
 20
295.212600
 30
0.0
 10
391.837416
 20
295.212600
 30
0.0
  0
SPLINE
  5
266
100
AcDbEntity
  8
text
 62
1
100
AcDbSpline
 70
8
 71
3
 72
8
 73
4
 74
0
 40
0
 40
0
 40
0
 40
0
 40
1
 40
1
 40
1
 40
1
 10
380.122416
 20
244.524600
 30
0.0
 10
380.122416
 20
249.544600
 30
0.0
 10
383.470416
 20
252.891600
 30
0.0
 10
388.490416
 20
252.891600
 30
0.0
  0
SPLINE
  5
267
100
AcDbEntity
  8
text
 62
1
100
AcDbSpline
 70
8
 71
3
 72
8
 73
4
 74
0
 40
0
 40
0
 40
0
 40
0
 40
1
 40
1
 40
1
 40
1
 10
388.490416
 20
252.891600
 30
0.0
 10
393.513416
 20
252.891600
 30
0.0
 10
396.857416
 20
249.544600
 30
0.0
 10
396.857416
 20
244.524600
 30
0.0
  0
SPLINE
  5
268
100
AcDbEntity
  8
text
 62
1
100
AcDbSpline
 70
8
 71
3
 72
8
 73
4
 74
0
 40
0
 40
0
 40
0
 40
0
 40
1
 40
1
 40
1
 40
1
 10
396.857416
 20
244.524600
 30
0.0
 10
396.857416
 20
239.505600
 30
0.0
 10
393.513416
 20
236.157600
 30
0.0
 10
388.490416
 20
236.157600
 30
0.0
  0
SPLINE
  5
269
100
AcDbEntity
  8
text
 62
1
100
AcDbSpline
 70
8
 71
3
 72
8
 73
4
 74
0
 40
0
 40
0
 40
0
 40
0
 40
1
 40
1
 40
1
 40
1
 10
388.490416
 20
236.157600
 30
0.0
 10
383.470416
 20
236.157600
 30
0.0
 10
380.122416
 20
239.505600
 30
0.0
 10
380.122416
 20
244.524600
 30
0.0
  0
LWPOLYLINE
  5
26a
100
AcDbEntity
  8
text
 62
1
100
AcDbPolyline
 90
2
 70
0
 10
388.490416
 20
291.865600
 30
0.0
 10
388.490416
 20
298.560600
 30
0.0
  0
LWPOLYLINE
  5
26b
100
AcDbEntity
  8
text
 62
1
100
AcDbPolyline
 90
2
 70
0
 10
385.146416
 20
244.524600
 30
0.0
 10
391.837416
 20
244.524600
 30
0.0
  0
SPLINE
  5
26c
100
AcDbEntity
  8
text
 62
1
100
AcDbSpline
 70
8
 71
3
 72
8
 73
4
 74
0
 40
0
 40
0
 40
0
 40
0
 40
1
 40
1
 40
1
 40
1
 10
380.122416
 20
194.340600
 30
0.0
 10
380.122416
 20
199.360600
 30
0.0
 10
383.470416
 20
202.707600
 30
0.0
 10
388.490416
 20
202.707600
 30
0.0
  0
SPLINE
  5
26d
100
AcDbEntity
  8
text
 62
1
100
AcDbSpline
 70
8
 71
3
 72
8
 73
4
 74
0
 40
0
 40
0
 40
0
 40
0
 40
1
 40
1
 40
1
 40
1
 10
388.490416
 20
202.707600
 30
0.0
 10
393.513416
 20
202.707600
 30
0.0
 10
396.857416
 20
199.360600
 30
0.0
 10
396.857416
 20
194.340600
 30
0.0
  0
SPLINE
  5
26e
100
AcDbEntity
  8
text
 62
1
100
AcDbSpline
 70
8
 71
3
 72
8
 73
4
 74
0
 40
0
 40
0
 40
0
 40
0
 40
1
 40
1
 40
1
 40
1
 10
396.857416
 20
194.340600
 30
0.0
 10
396.857416
 20
189.321600
 30
0.0
 10
393.513416
 20
185.973600
 30
0.0
 10
388.490416
 20
185.973600
 30
0.0
  0
SPLINE
  5
26f
100
AcDbEntity
  8
text
 62
1
100
AcDbSpline
 70
8
 71
3
 72
8
 73
4
 74
0
 40
0
 40
0
 40
0
 40
0
 40
1
 40
1
 40
1
 40
1
 10
388.490416
 20
185.973600
 30
0.0
 10
383.470416
 20
185.973600
 30
0.0
 10
380.122416
 20
189.321600
 30
0.0
 10
380.122416
 20
194.340600
 30
0.0
  0
LWPOLYLINE
  5
270
100
AcDbEntity
  8
text
 62
1
100
AcDbPolyline
 90
2
 70
0
 10
388.490416
 20
241.177600
 30
0.0
 10
388.490416
 20
247.872600
 30
0.0
  0
LWPOLYLINE
  5
271
100
AcDbEntity
  8
text
 62
1
100
AcDbPolyline
 90
2
 70
0
 10
385.146416
 20
194.340600
 30
0.0
 10
391.837416
 20
194.340600
 30
0.0
  0
SPLINE
  5
272
100
AcDbEntity
  8
text
 62
1
100
AcDbSpline
 70
8
 71
3
 72
8
 73
4
 74
0
 40
0
 40
0
 40
0
 40
0
 40
1
 40
1
 40
1
 40
1
 10
380.122416
 20
143.940600
 30
0.0
 10
380.122416
 20
148.960600
 30
0.0
 10
383.470416
 20
152.307600
 30
0.0
 10
388.490416
 20
152.307600
 30
0.0
  0
SPLINE
  5
273
100
AcDbEntity
  8
text
 62
1
100
AcDbSpline
 70
8
 71
3
 72
8
 73
4
 74
0
 40
0
 40
0
 40
0
 40
0
 40
1
 40
1
 40
1
 40
1
 10
388.490416
 20
152.307600
 30
0.0
 10
393.513416
 20
152.307600
 30
0.0
 10
396.857416
 20
148.960600
 30
0.0
 10
396.857416
 20
143.940600
 30
0.0
  0
SPLINE
  5
274
100
AcDbEntity
  8
text
 62
1
100
AcDbSpline
 70
8
 71
3
 72
8
 73
4
 74
0
 40
0
 40
0
 40
0
 40
0
 40
1
 40
1
 40
1
 40
1
 10
396.857416
 20
143.940600
 30
0.0
 10
396.857416
 20
138.921600
 30
0.0
 10
393.513416
 20
135.573600
 30
0.0
 10
388.490416
 20
135.573600
 30
0.0
  0
SPLINE
  5
275
100
AcDbEntity
  8
text
 62
1
100
AcDbSpline
 70
8
 71
3
 72
8
 73
4
 74
0
 40
0
 40
0
 40
0
 40
0
 40
1
 40
1
 40
1
 40
1
 10
388.490416
 20
135.573600
 30
0.0
 10
383.470416
 20
135.573600
 30
0.0
 10
380.122416
 20
138.921600
 30
0.0
 10
380.122416
 20
143.940600
 30
0.0
  0
LWPOLYLINE
  5
276
100
AcDbEntity
  8
text
 62
1
100
AcDbPolyline
 90
2
 70
0
 10
388.490416
 20
190.993600
 30
0.0
 10
388.490416
 20
197.688600
 30
0.0
  0
LWPOLYLINE
  5
277
100
AcDbEntity
  8
text
 62
1
100
AcDbPolyline
 90
2
 70
0
 10
385.146416
 20
143.940600
 30
0.0
 10
391.837416
 20
143.940600
 30
0.0
  0
LWPOLYLINE
  5
278
100
AcDbEntity
  8
text
 62
1
100
AcDbPolyline
 90
2
 70
0
 10
388.490416
 20
140.593600
 30
0.0
 10
388.490416
 20
147.288600
 30
0.0
  0
LWPOLYLINE
  5
279
100
AcDbEntity
  8
text
 62
1
100
AcDbPolyline
 90
6
 70
0
 10
322.057462
 20
291.648000
 30
0.0
 10
333.381227
 20
291.648000
 30
0.0
 10
333.381227
 20
300.137632
 30
0.0
 10
342.682891
 20
300.137632
 30
0.0
 10
342.682891
 20
291.644664
 30
0.0
 10
353.290416
 20
291.644664
 30
0.0
  0
SPLINE
  5
27a
100
AcDbEntity
  8
text
 62
1
100
AcDbSpline
 70
8
 71
3
 72
8
 73
4
 74
0
 40
0
 40
0
 40
0
 40
0
 40
1
 40
1
 40
1
 40
1
 10
553.436712
 20
395.379861
 30
0.0
 10
553.436712
 20
395.004148
 30
0.0
 10
553.101682
 20
394.699572
 30
0.0
 10
552.688396
 20
394.699572
 30
0.0
  0
SPLINE
  5
27b
100
AcDbEntity
  8
text
 62
1
100
AcDbSpline
 70
8
 71
3
 72
8
 73
4
 74
0
 40
0
 40
0
 40
0
 40
0
 40
1
 40
1
 40
1
 40
1
 10
552.688396
 20
394.699572
 30
0.0
 10
552.275111
 20
394.699572
 30
0.0
 10
551.940080
 20
395.004148
 30
0.0
 10
551.940080
 20
395.379861
 30
0.0
  0
SPLINE
  5
27c
100
AcDbEntity
  8
text
 62
1
100
AcDbSpline
 70
8
 71
3
 72
8
 73
4
 74
0
 40
0
 40
0
 40
0
 40
0
 40
1
 40
1
 40
1
 40
1
 10
551.940080
 20
395.379861
 30
0.0
 10
551.940080
 20
395.755574
 30
0.0
 10
552.275111
 20
396.060150
 30
0.0
 10
552.688396
 20
396.060150
 30
0.0
  0
SPLINE
  5
27d
100
AcDbEntity
  8
text
 62
1
100
AcDbSpline
 70
8
 71
3
 72
8
 73
4
 74
0
 40
0
 40
0
 40
0
 40
0
 40
1
 40
1
 40
1
 40
1
 10
552.688396
 20
396.060150
 30
0.0
 10
553.101682
 20
396.060150
 30
0.0
 10
553.436712
 20
395.755574
 30
0.0
 10
553.436712
 20
395.379861
 30
0.0
  0
LWPOLYLINE
  5
27e
100
AcDbEntity
  8
text
 62
7
100
AcDbPolyline
 90
6
 70
0
 10
499.927395
 20
41.221512
 30
0.0
 10
456.057542
 20
41.221512
 30
0.0
 10
456.057542
 20
404.500531
 30
0.0
 10
577.529838
 20
404.500531
 30
0.0
 10
577.529838
 20
41.221512
 30
0.0
 10
456.057542
 20
41.221512
 30
0.0
  0
SPLINE
  5
27f
100
AcDbEntity
  8
text
 62
1
100
AcDbSpline
 70
8
 71
3
 72
8
 73
4
 74
0
 40
0
 40
0
 40
0
 40
0
 40
1
 40
1
 40
1
 40
1
 10
481.300662
 20
51.493878
 30
0.0
 10
481.300662
 20
51.230883
 30
0.0
 10
481.026536
 20
51.017672
 30
0.0
 10
480.688396
 20
51.017672
 30
0.0
  0
SPLINE
  5
280
100
AcDbEntity
  8
text
 62
1
100
AcDbSpline
 70
8
 71
3
 72
8
 73
4
 74
0
 40
0
 40
0
 40
0
 40
0
 40
1
 40
1
 40
1
 40
1
 10
480.688396
 20
51.017672
 30
0.0
 10
480.350256
 20
51.017672
 30
0.0
 10
480.076140
 20
51.230883
 30
0.0
 10
480.076140
 20
51.493878
 30
0.0
  0
SPLINE
  5
281
100
AcDbEntity
  8
text
 62
1
100
AcDbSpline
 70
8
 71
3
 72
8
 73
4
 74
0
 40
0
 40
0
 40
0
 40
0
 40
1
 40
1
 40
1
 40
1
 10
480.076140
 20
51.493878
 30
0.0
 10
480.076140
 20
51.756873
 30
0.0
 10
480.350256
 20
51.970083
 30
0.0
 10
480.688396
 20
51.970083
 30
0.0
  0
SPLINE
  5
282
100
AcDbEntity
  8
text
 62
1
100
AcDbSpline
 70
8
 71
3
 72
8
 73
4
 74
0
 40
0
 40
0
 40
0
 40
0
 40
1
 40
1
 40
1
 40
1
 10
480.688396
 20
51.970083
 30
0.0
 10
481.026536
 20
51.970083
 30
0.0
 10
481.300662
 20
51.756873
 30
0.0
 10
481.300662
 20
51.493878
 30
0.0
  0
LWPOLYLINE
  5
283
100
AcDbEntity
  8
text
 62
1
100
AcDbPolyline
 90
2
 70
1
 10
553.436712
 20
395.379861
 30
0.0
 10
553.436712
 20
395.379861
 30
0.0
  0
SPLINE
  5
284
100
AcDbEntity
  8
text
 62
7
100
AcDbSpline
 70
8
 71
3
 72
8
 73
4
 74
0
 40
0
 40
0
 40
0
 40
0
 40
1
 40
1
 40
1
 40
1
 10
532.951199
 20
284.237994
 30
0.0
 10
532.951199
 20
283.899852
 30
0.0
 10
532.646626
 20
283.625734
 30
0.0
 10
532.270908
 20
283.625734
 30
0.0
  0
SPLINE
  5
285
100
AcDbEntity
  8
text
 62
7
100
AcDbSpline
 70
8
 71
3
 72
8
 73
4
 74
0
 40
0
 40
0
 40
0
 40
0
 40
1
 40
1
 40
1
 40
1
 10
532.270908
 20
283.625734
 30
0.0
 10
531.895200
 20
283.625734
 30
0.0
 10
531.590618
 20
283.899852
 30
0.0
 10
531.590618
 20
284.237994
 30
0.0
  0
SPLINE
  5
286
100
AcDbEntity
  8
text
 62
7
100
AcDbSpline
 70
8
 71
3
 72
8
 73
4
 74
0
 40
0
 40
0
 40
0
 40
0
 40
1
 40
1
 40
1
 40
1
 10
531.590618
 20
284.237994
 30
0.0
 10
531.590618
 20
284.576135
 30
0.0
 10
531.895200
 20
284.850253
 30
0.0
 10
532.270908
 20
284.850253
 30
0.0
  0
SPLINE
  5
287
100
AcDbEntity
  8
text
 62
7
100
AcDbSpline
 70
8
 71
3
 72
8
 73
4
 74
0
 40
0
 40
0
 40
0
 40
0
 40
1
 40
1
 40
1
 40
1
 10
532.270908
 20
284.850253
 30
0.0
 10
532.646626
 20
284.850253
 30
0.0
 10
532.951199
 20
284.576135
 30
0.0
 10
532.951199
 20
284.237994
 30
0.0
  0
LWPOLYLINE
  5
288
100
AcDbEntity
  8
text
 62
1
100
AcDbPolyline
 90
2
 70
1
 10
481.300662
 20
51.493878
 30
0.0
 10
481.300662
 20
51.493878
 30
0.0
  0
SPLINE
  5
289
100
AcDbEntity
  8
text
 62
1
100
AcDbSpline
 70
8
 71
3
 72
8
 73
4
 74
0
 40
0
 40
0
 40
0
 40
0
 40
1
 40
1
 40
1
 40
1
 10
501.722416
 20
345.716672
 30
0.0
 10
501.722416
 20
350.736672
 30
0.0
 10
505.070416
 20
354.083672
 30
0.0
 10
510.090416
 20
354.083672
 30
0.0
  0
SPLINE
  5
28a
100
AcDbEntity
  8
text
 62
1
100
AcDbSpline
 70
8
 71
3
 72
8
 73
4
 74
0
 40
0
 40
0
 40
0
 40
0
 40
1
 40
1
 40
1
 40
1
 10
510.090416
 20
354.083672
 30
0.0
 10
515.113416
 20
354.083672
 30
0.0
 10
518.457416
 20
350.736672
 30
0.0
 10
518.457416
 20
345.716672
 30
0.0
  0
SPLINE
  5
28b
100
AcDbEntity
  8
text
 62
1
100
AcDbSpline
 70
8
 71
3
 72
8
 73
4
 74
0
 40
0
 40
0
 40
0
 40
0
 40
1
 40
1
 40
1
 40
1
 10
518.457416
 20
345.716672
 30
0.0
 10
518.457416
 20
340.697672
 30
0.0
 10
515.113416
 20
337.349672
 30
0.0
 10
510.090416
 20
337.349672
 30
0.0
  0
SPLINE
  5
28c
100
AcDbEntity
  8
text
 62
1
100
AcDbSpline
 70
8
 71
3
 72
8
 73
4
 74
0
 40
0
 40
0
 40
0
 40
0
 40
1
 40
1
 40
1
 40
1
 10
510.090416
 20
337.349672
 30
0.0
 10
505.070416
 20
337.349672
 30
0.0
 10
501.722416
 20
340.697672
 30
0.0
 10
501.722416
 20
345.716672
 30
0.0
  0
LWPOLYLINE
  5
28d
100
AcDbEntity
  8
text
 62
7
100
AcDbPolyline
 90
2
 70
1
 10
532.951199
 20
284.237994
 30
0.0
 10
532.951199
 20
284.237994
 30
0.0
  0
LWPOLYLINE
  5
28e
100
AcDbEntity
  8
text
 62
1
100
AcDbPolyline
 90
2
 70
0
 10
506.746416
 20
345.716672
 30
0.0
 10
513.437416
 20
345.716672
 30
0.0
  0
SPLINE
  5
28f
100
AcDbEntity
  8
text
 62
1
100
AcDbSpline
 70
8
 71
3
 72
8
 73
4
 74
0
 40
0
 40
0
 40
0
 40
0
 40
1
 40
1
 40
1
 40
1
 10
501.866416
 20
93.324600
 30
0.0
 10
501.866416
 20
98.344600
 30
0.0
 10
505.214416
 20
101.691600
 30
0.0
 10
510.234416
 20
101.691600
 30
0.0
  0
SPLINE
  5
290
100
AcDbEntity
  8
text
 62
1
100
AcDbSpline
 70
8
 71
3
 72
8
 73
4
 74
0
 40
0
 40
0
 40
0
 40
0
 40
1
 40
1
 40
1
 40
1
 10
510.234416
 20
101.691600
 30
0.0
 10
515.257416
 20
101.691600
 30
0.0
 10
518.601416
 20
98.344600
 30
0.0
 10
518.601416
 20
93.324600
 30
0.0
  0
SPLINE
  5
291
100
AcDbEntity
  8
text
 62
1
100
AcDbSpline
 70
8
 71
3
 72
8
 73
4
 74
0
 40
0
 40
0
 40
0
 40
0
 40
1
 40
1
 40
1
 40
1
 10
518.601416
 20
93.324600
 30
0.0
 10
518.601416
 20
88.305600
 30
0.0
 10
515.257416
 20
84.957600
 30
0.0
 10
510.234416
 20
84.957600
 30
0.0
  0
SPLINE
  5
292
100
AcDbEntity
  8
text
 62
1
100
AcDbSpline
 70
8
 71
3
 72
8
 73
4
 74
0
 40
0
 40
0
 40
0
 40
0
 40
1
 40
1
 40
1
 40
1
 10
510.234416
 20
84.957600
 30
0.0
 10
505.214416
 20
84.957600
 30
0.0
 10
501.866416
 20
88.305600
 30
0.0
 10
501.866416
 20
93.324600
 30
0.0
  0
LWPOLYLINE
  5
293
100
AcDbEntity
  8
text
 62
1
100
AcDbPolyline
 90
2
 70
0
 10
510.090416
 20
342.369672
 30
0.0
 10
510.090416
 20
349.064672
 30
0.0
  0
LWPOLYLINE
  5
294
100
AcDbEntity
  8
text
 62
1
100
AcDbPolyline
 90
2
 70
0
 10
506.890416
 20
93.324600
 30
0.0
 10
513.581416
 20
93.324600
 30
0.0
  0
SPLINE
  5
295
100
AcDbEntity
  8
text
 62
1
100
AcDbSpline
 70
8
 71
3
 72
8
 73
4
 74
0
 40
0
 40
0
 40
0
 40
0
 40
1
 40
1
 40
1
 40
1
 10
524.122416
 20
295.212600
 30
0.0
 10
524.122416
 20
300.232600
 30
0.0
 10
527.470416
 20
303.579600
 30
0.0
 10
532.490416
 20
303.579600
 30
0.0
  0
SPLINE
  5
296
100
AcDbEntity
  8
text
 62
1
100
AcDbSpline
 70
8
 71
3
 72
8
 73
4
 74
0
 40
0
 40
0
 40
0
 40
0
 40
1
 40
1
 40
1
 40
1
 10
532.490416
 20
303.579600
 30
0.0
 10
537.513416
 20
303.579600
 30
0.0
 10
540.857416
 20
300.232600
 30
0.0
 10
540.857416
 20
295.212600
 30
0.0
  0
SPLINE
  5
297
100
AcDbEntity
  8
text
 62
1
100
AcDbSpline
 70
8
 71
3
 72
8
 73
4
 74
0
 40
0
 40
0
 40
0
 40
0
 40
1
 40
1
 40
1
 40
1
 10
540.857416
 20
295.212600
 30
0.0
 10
540.857416
 20
290.193600
 30
0.0
 10
537.513416
 20
286.845600
 30
0.0
 10
532.490416
 20
286.845600
 30
0.0
  0
SPLINE
  5
298
100
AcDbEntity
  8
text
 62
1
100
AcDbSpline
 70
8
 71
3
 72
8
 73
4
 74
0
 40
0
 40
0
 40
0
 40
0
 40
1
 40
1
 40
1
 40
1
 10
532.490416
 20
286.845600
 30
0.0
 10
527.470416
 20
286.845600
 30
0.0
 10
524.122416
 20
290.193600
 30
0.0
 10
524.122416
 20
295.212600
 30
0.0
  0
LWPOLYLINE
  5
299
100
AcDbEntity
  8
text
 62
1
100
AcDbPolyline
 90
2
 70
0
 10
510.234416
 20
89.977600
 30
0.0
 10
510.234416
 20
96.672600
 30
0.0
  0
LWPOLYLINE
  5
29a
100
AcDbEntity
  8
text
 62
1
100
AcDbPolyline
 90
2
 70
0
 10
529.146416
 20
295.212600
 30
0.0
 10
535.837416
 20
295.212600
 30
0.0
  0
SPLINE
  5
29b
100
AcDbEntity
  8
text
 62
1
100
AcDbSpline
 70
8
 71
3
 72
8
 73
4
 74
0
 40
0
 40
0
 40
0
 40
0
 40
1
 40
1
 40
1
 40
1
 10
524.122416
 20
244.524600
 30
0.0
 10
524.122416
 20
249.544600
 30
0.0
 10
527.470416
 20
252.891600
 30
0.0
 10
532.490416
 20
252.891600
 30
0.0
  0
SPLINE
  5
29c
100
AcDbEntity
  8
text
 62
1
100
AcDbSpline
 70
8
 71
3
 72
8
 73
4
 74
0
 40
0
 40
0
 40
0
 40
0
 40
1
 40
1
 40
1
 40
1
 10
532.490416
 20
252.891600
 30
0.0
 10
537.513416
 20
252.891600
 30
0.0
 10
540.857416
 20
249.544600
 30
0.0
 10
540.857416
 20
244.524600
 30
0.0
  0
SPLINE
  5
29d
100
AcDbEntity
  8
text
 62
1
100
AcDbSpline
 70
8
 71
3
 72
8
 73
4
 74
0
 40
0
 40
0
 40
0
 40
0
 40
1
 40
1
 40
1
 40
1
 10
540.857416
 20
244.524600
 30
0.0
 10
540.857416
 20
239.505600
 30
0.0
 10
537.513416
 20
236.157600
 30
0.0
 10
532.490416
 20
236.157600
 30
0.0
  0
SPLINE
  5
29e
100
AcDbEntity
  8
text
 62
1
100
AcDbSpline
 70
8
 71
3
 72
8
 73
4
 74
0
 40
0
 40
0
 40
0
 40
0
 40
1
 40
1
 40
1
 40
1
 10
532.490416
 20
236.157600
 30
0.0
 10
527.470416
 20
236.157600
 30
0.0
 10
524.122416
 20
239.505600
 30
0.0
 10
524.122416
 20
244.524600
 30
0.0
  0
LWPOLYLINE
  5
29f
100
AcDbEntity
  8
text
 62
1
100
AcDbPolyline
 90
2
 70
0
 10
532.490416
 20
291.865600
 30
0.0
 10
532.490416
 20
298.560600
 30
0.0
  0
LWPOLYLINE
  5
2a0
100
AcDbEntity
  8
text
 62
1
100
AcDbPolyline
 90
2
 70
0
 10
529.146416
 20
244.524600
 30
0.0
 10
535.837416
 20
244.524600
 30
0.0
  0
SPLINE
  5
2a1
100
AcDbEntity
  8
text
 62
1
100
AcDbSpline
 70
8
 71
3
 72
8
 73
4
 74
0
 40
0
 40
0
 40
0
 40
0
 40
1
 40
1
 40
1
 40
1
 10
524.122416
 20
194.340600
 30
0.0
 10
524.122416
 20
199.360600
 30
0.0
 10
527.470416
 20
202.707600
 30
0.0
 10
532.490416
 20
202.707600
 30
0.0
  0
SPLINE
  5
2a2
100
AcDbEntity
  8
text
 62
1
100
AcDbSpline
 70
8
 71
3
 72
8
 73
4
 74
0
 40
0
 40
0
 40
0
 40
0
 40
1
 40
1
 40
1
 40
1
 10
532.490416
 20
202.707600
 30
0.0
 10
537.513416
 20
202.707600
 30
0.0
 10
540.857416
 20
199.360600
 30
0.0
 10
540.857416
 20
194.340600
 30
0.0
  0
SPLINE
  5
2a3
100
AcDbEntity
  8
text
 62
1
100
AcDbSpline
 70
8
 71
3
 72
8
 73
4
 74
0
 40
0
 40
0
 40
0
 40
0
 40
1
 40
1
 40
1
 40
1
 10
540.857416
 20
194.340600
 30
0.0
 10
540.857416
 20
189.321600
 30
0.0
 10
537.513416
 20
185.973600
 30
0.0
 10
532.490416
 20
185.973600
 30
0.0
  0
SPLINE
  5
2a4
100
AcDbEntity
  8
text
 62
1
100
AcDbSpline
 70
8
 71
3
 72
8
 73
4
 74
0
 40
0
 40
0
 40
0
 40
0
 40
1
 40
1
 40
1
 40
1
 10
532.490416
 20
185.973600
 30
0.0
 10
527.470416
 20
185.973600
 30
0.0
 10
524.122416
 20
189.321600
 30
0.0
 10
524.122416
 20
194.340600
 30
0.0
  0
LWPOLYLINE
  5
2a5
100
AcDbEntity
  8
text
 62
1
100
AcDbPolyline
 90
2
 70
0
 10
532.490416
 20
241.177600
 30
0.0
 10
532.490416
 20
247.872600
 30
0.0
  0
LWPOLYLINE
  5
2a6
100
AcDbEntity
  8
text
 62
1
100
AcDbPolyline
 90
2
 70
0
 10
529.146416
 20
194.340600
 30
0.0
 10
535.837416
 20
194.340600
 30
0.0
  0
SPLINE
  5
2a7
100
AcDbEntity
  8
text
 62
1
100
AcDbSpline
 70
8
 71
3
 72
8
 73
4
 74
0
 40
0
 40
0
 40
0
 40
0
 40
1
 40
1
 40
1
 40
1
 10
524.122416
 20
143.940600
 30
0.0
 10
524.122416
 20
148.960600
 30
0.0
 10
527.470416
 20
152.307600
 30
0.0
 10
532.490416
 20
152.307600
 30
0.0
  0
SPLINE
  5
2a8
100
AcDbEntity
  8
text
 62
1
100
AcDbSpline
 70
8
 71
3
 72
8
 73
4
 74
0
 40
0
 40
0
 40
0
 40
0
 40
1
 40
1
 40
1
 40
1
 10
532.490416
 20
152.307600
 30
0.0
 10
537.513416
 20
152.307600
 30
0.0
 10
540.857416
 20
148.960600
 30
0.0
 10
540.857416
 20
143.940600
 30
0.0
  0
SPLINE
  5
2a9
100
AcDbEntity
  8
text
 62
1
100
AcDbSpline
 70
8
 71
3
 72
8
 73
4
 74
0
 40
0
 40
0
 40
0
 40
0
 40
1
 40
1
 40
1
 40
1
 10
540.857416
 20
143.940600
 30
0.0
 10
540.857416
 20
138.921600
 30
0.0
 10
537.513416
 20
135.573600
 30
0.0
 10
532.490416
 20
135.573600
 30
0.0
  0
SPLINE
  5
2aa
100
AcDbEntity
  8
text
 62
1
100
AcDbSpline
 70
8
 71
3
 72
8
 73
4
 74
0
 40
0
 40
0
 40
0
 40
0
 40
1
 40
1
 40
1
 40
1
 10
532.490416
 20
135.573600
 30
0.0
 10
527.470416
 20
135.573600
 30
0.0
 10
524.122416
 20
138.921600
 30
0.0
 10
524.122416
 20
143.940600
 30
0.0
  0
LWPOLYLINE
  5
2ab
100
AcDbEntity
  8
text
 62
1
100
AcDbPolyline
 90
2
 70
0
 10
532.490416
 20
190.993600
 30
0.0
 10
532.490416
 20
197.688600
 30
0.0
  0
LWPOLYLINE
  5
2ac
100
AcDbEntity
  8
text
 62
1
100
AcDbPolyline
 90
2
 70
0
 10
529.146416
 20
143.940600
 30
0.0
 10
535.837416
 20
143.940600
 30
0.0
  0
LWPOLYLINE
  5
2ad
100
AcDbEntity
  8
text
 62
1
100
AcDbPolyline
 90
2
 70
0
 10
532.490416
 20
140.593600
 30
0.0
 10
532.490416
 20
147.288600
 30
0.0
  0
LWPOLYLINE
  5
2ae
100
AcDbEntity
  8
text
 62
1
100
AcDbPolyline
 90
6
 70
0
 10
466.057462
 20
291.648000
 30
0.0
 10
477.381227
 20
291.648000
 30
0.0
 10
477.381227
 20
300.137632
 30
0.0
 10
486.682891
 20
300.137632
 30
0.0
 10
486.682891
 20
291.644664
 30
0.0
 10
497.290416
 20
291.644664
 30
0.0
  0
ENDSEC
  0
SECTION
  2
OBJECTS
  0
DICTIONARY
  5
C
330
0
100
AcDbDictionary
  3
ACAD_GROUP
350
D
  3
ACAD_MLINESTYLE
350
17
  0
DICTIONARY
  5
D
330
C
100
AcDbDictionary
  0
DICTIONARY
  5
1A
330
C
100
AcDbDictionary
  0
DICTIONARY
  5
17
330
C
100
AcDbDictionary
  3
STANDARD
350
18
  0
DICTIONARY
  5
19
330
C
100
AcDbDictionary
  0
ENDSEC
  0
EOF
